<svg width="442" height="377" viewBox="0 0 442 377" fill="none" xmlns="http://www.w3.org/2000/svg">
<path d="M440.974 157.45C441.174 145.44 438.554 126.37 412.414 122.93C386.274 119.5 380.014 138.77 375.874 142.91C371.934 146.34 370.524 151.79 374.154 153.71C373.644 166.43 376.944 176.32 376.944 176.32C376.944 176.32 377.074 190.85 376.674 197.45C348.414 197.58 360.254 222.35 360.254 222.35C360.254 222.35 354.464 240.11 337.514 248.05C309.654 259.35 290.814 241.86 289.204 225.71C287.594 209.56 300.504 206.06 314.774 179.15C329.034 152.24 319.484 125.93 319.484 125.93C343.214 123.02 347.424 109.26 347.224 96.4401C347.024 83.6201 330.264 68.1801 311.094 57.7801C291.924 47.3801 290.004 39.3101 258.614 17.8101C227.224 -3.68987 191.094 -3.68987 170.604 9.74013C145.064 26.8001 138.234 44.1901 139.184 59.3301C140.124 74.4701 155.804 83.4201 155.804 83.4201C155.804 83.4201 153.244 88.6001 157.354 92.7001C133.934 103 130.704 108.71 132.794 113.69C134.884 118.67 156.484 121.36 156.484 121.36C156.484 121.36 155.204 137.57 157.094 150.76C158.974 163.95 158.974 175.25 157.704 179.83C156.424 184.4 147.614 192.08 148.014 203.65C148.414 215.22 158.104 223.36 165.374 229.42C162.684 235.01 146.064 236.49 133.544 231.51C121.034 226.53 112.624 209.78 113.834 199.35C115.044 188.92 118.544 152.86 118.544 152.86C125.204 149.9 130.324 138.33 123.924 127.69C120.894 108.92 113.154 107.91 102.934 108.52C97.7541 97.8201 87.3941 97.2201 76.1541 103.41C70.9741 96.9501 55.7641 95.4001 49.3041 105.83C47.6941 104.15 33.9641 103.47 29.1141 115.38C23.5241 129.44 32.0041 134.69 39.1441 135.77C39.0141 142.3 37.6641 145.66 37.6641 145.66C13.7141 142.83 7.99412 152.05 6.24412 158.44C4.49412 164.83 3.08412 174.05 0.65412 197C-1.76588 219.94 25.1141 227.35 25.1141 227.35C24.5041 232.34 23.3941 236.69 25.2641 240.27C29.2041 246.83 41.6641 251.02 52.8141 252.99C49.8841 265.71 51.7041 274.94 51.7041 274.94C51.7041 274.94 46.2541 280.19 49.4341 288.41C52.6141 296.64 59.2741 295.27 59.2741 295.27L59.8841 296.13C56.8541 308.59 68.4141 311.67 73.0541 308.39C73.1541 319.95 85.2141 320.75 91.7241 316.06C96.4641 329.08 108.584 323.43 110.594 317.88C112.514 322.32 117.054 322.93 122.104 322.83C130.634 322.38 130.534 314.86 130.534 314.86C130.534 314.86 137.094 318.29 141.784 316.73C149.854 313.8 147.894 307.39 147.894 307.39C147.894 307.39 154.304 310.62 160.154 308.2C168.434 304.52 165.384 296.57 165.384 296.57C165.384 296.57 167.264 295.76 171.034 290.65C162.424 332.91 150.244 333.51 144.124 332.97C138.004 332.43 131.614 327.52 128.114 333.44C124.614 339.36 125.964 346.76 135.784 353.29C145.604 359.82 157.924 357.73 171.174 352.01C172.584 358.54 178.444 359.41 185.304 353.83C192.164 348.25 189.204 341.58 189.204 341.58C189.204 341.58 196.334 343.19 200.574 335.26C204.814 327.32 198.014 325.03 198.014 325.03C198.014 325.03 200.034 320.39 205.214 303.84C210.394 287.29 215.714 284.8 217.394 285.54C228.094 297.25 223.784 319.39 220.284 335.67C216.784 351.95 226.874 372.48 250.834 375.23C274.794 377.98 283.464 361.17 284.344 352.15C285.214 343.13 280.234 336.88 275.464 336.67C270.694 336.46 268.604 340.44 268.194 345.95C267.794 351.47 261.734 356.04 255.474 353.08C249.214 350.12 251.574 340.36 254.734 330.41C257.894 320.46 259.174 313.72 260.054 304.37C262.344 308 271.154 314.73 271.154 314.73C271.154 314.73 268.124 322.26 274.994 326.17C281.854 330.07 288.784 325.09 288.784 325.09C288.784 325.09 289.524 325.29 291.144 325.83C289.534 327.65 289.864 333.1 298.814 336.93C316.104 352.54 331.784 356.71 344.574 350.99C357.354 345.27 364.624 335.65 366.844 330.13C386.014 332.69 383.934 316.13 383.934 316.13C383.934 316.13 392.144 320.57 396.784 315.93C401.424 311.29 401.694 304.02 402.704 303.21C416.564 300.92 415.214 289.62 412.934 284.23C416.564 283.09 419.054 281.34 421.414 277.23C424.244 271.58 421.214 266.13 420.204 262.56C419.194 258.99 420.204 247.69 417.314 235.17C414.424 222.66 406.884 210.65 406.884 210.65C406.884 210.65 409.844 206.18 413.314 199.18C416.844 191.81 416.004 192.62 421.454 188.68C430.234 183.13 432.254 180.57 435.144 176.77C438.034 172.97 439.184 173.1 440.594 171.66C442.004 170.21 440.994 165.5 440.994 157.43H440.974V157.45ZM33.7141 171.29C33.7141 171.29 25.3741 169.27 23.2841 185.62C21.1941 199.48 27.1241 201.97 29.5441 202.91L28.7241 210.11C28.7241 210.11 17.9041 211.46 20.7341 195.11C23.5641 178.76 22.8841 172.37 24.5041 167.66C26.1241 162.95 34.5941 163.22 34.5941 163.22L33.7241 171.29H33.7141ZM96.4541 286.31C77.0141 284.36 70.9541 269.02 75.3241 255.96C75.3241 255.96 90.5341 255.56 102.234 252.66C101.894 260.53 104.254 265.58 117.034 264.57C117.574 269.08 121.874 279.57 134.934 268.94C139.174 269.28 139.374 269.61 139.374 269.61C139.374 269.61 123.294 288.78 96.4441 286.3L96.4541 286.31ZM330.334 339.17C332.114 337.05 330.844 332.85 330.844 332.85C333.204 333.02 339.424 332.92 346.824 331.71C345.644 333.97 340.904 337.19 330.344 339.18L330.334 339.17ZM356.444 294.86C349.644 299.23 331.074 299.84 305.984 292.03C316.074 294.32 317.084 292.77 319.104 288.73C320.314 288.66 321.054 288.12 323.214 290.68C325.364 293.24 336.534 296.8 339.494 285.03C345.754 288.8 356.654 288.19 355.504 274.73L358.534 272.85C358.534 272.85 355.374 282.47 356.444 294.85V294.86ZM369.904 288.87C369.634 278.24 373.064 272.86 373.064 272.86C373.064 272.86 378.174 273.8 380.864 269.43C383.554 265.06 393.374 239.69 393.374 239.69C398.114 265.59 382.674 282.01 369.894 288.87H369.904Z" fill="black" stroke="black" stroke-miterlimit="10"/>
<path d="M163.234 70.3697C163.234 70.3697 170.604 65.7297 183.214 65.6297C177.054 57.2497 176.754 44.5397 182.404 33.7397C188.054 22.9397 198.154 18.5997 206.724 19.5097C215.304 20.4197 227.514 27.5797 228.224 44.6397C228.624 58.0597 223.984 64.3197 220.854 67.6497C240.534 70.5797 276.164 79.5597 306.444 91.8697C337.324 103.48 342.274 93.4797 337.634 87.0297C332.994 80.5797 324.614 73.2997 304.024 61.3897C283.434 49.4797 265.464 27.8797 240.134 15.2697C214.804 2.65973 188.664 5.57973 173.424 15.6697C158.184 25.7597 144.764 41.0997 144.254 54.2197C143.744 67.3397 152.734 77.3297 156.764 76.6297C160.804 75.9197 153.734 62.8997 159.084 57.1497C160.594 63.7097 163.224 70.3697 163.224 70.3697H163.234Z" fill="#EEDFC5"/>
<path d="M265.064 62.5C265.064 62.5 291.714 82.48 308.164 87.83C324.614 93.18 338.644 88.84 338.644 88.84C338.644 88.84 343.184 94.39 340.764 103.78C338.344 113.17 331.584 117.81 323.704 118.82C325.014 113.17 326.424 109.33 324.614 106C322.804 102.67 298.674 88.96 280.904 82.59C276.364 77.13 264.764 66.53 265.064 62.5Z" fill="#C7BAA2"/>
<path d="M164.844 79.0498C162.624 79.2898 162.724 76.2198 163.834 75.2098C164.944 74.1998 174.634 67.4398 218.134 72.7898C261.634 78.1398 308.664 99.4398 320.074 107.41C321.994 110.03 320.374 123.36 316.234 123.36C310.484 120.43 305.034 117.1 302.104 116.4C304.324 113.07 307.354 107.62 304.024 102.88C300.694 98.1398 296.154 96.6198 288.884 99.1398C269.004 89.6498 218.844 73.1999 164.844 79.0599V79.0498Z" fill="#253D4B"/>
<path d="M300.855 108.81C301.448 105.208 299.371 101.867 296.215 101.347C293.06 100.828 290.021 103.327 289.428 106.929C288.835 110.531 290.912 113.872 294.068 114.392C297.223 114.911 300.261 112.412 300.855 108.81Z" fill="#D39851"/>
<path d="M286.364 103.02L285.154 107.06L285.764 111.1C285.764 111.1 258.814 99.3596 218.244 93.1996C193.114 89.1596 175.654 89.4596 162.534 91.1796C160.114 90.8796 159.064 89.0296 160.314 86.5696C161.554 84.1096 162.704 83.7796 164.284 83.6796C165.864 83.5796 198.234 80.7496 234.054 87.5196C260.904 93.3696 276.814 98.9596 286.374 103.03L286.364 103.02Z" fill="#D9A566"/>
<path d="M167.574 90.6198C167.574 90.6198 167.674 87.4198 170.604 83.2998L167.914 83.4398C167.914 83.4398 165.694 87.0498 164.924 89.9098C165.224 90.6898 165.504 90.8298 165.504 90.8298L167.574 90.6198Z" fill="#BA7E41"/>
<path d="M173.184 90.2003C173.184 90.2003 174.154 86.0403 176.214 83.0903L179.314 83.0303C179.314 83.0303 175.514 85.9703 175.244 90.1003L173.194 90.1903L173.184 90.2003Z" fill="#BA7E41"/>
<path d="M186.004 83.0205L181.364 89.9805L183.684 89.9905L188.324 83.0505L186.004 83.0205Z" fill="#BA7E41"/>
<path d="M196.134 83.2803L190.244 90.1803L193.184 90.3403L198.424 83.3803L196.134 83.2803Z" fill="#BA7E41"/>
<path d="M206.394 83.8896L200.234 90.8797L204.334 91.2997L210.734 84.2697L206.394 83.8896Z" fill="#BA7E41"/>
<path d="M218.624 85.1201C218.624 85.1201 215.164 89.4501 211.544 92.2001L215.314 92.7401L221.884 85.5401L218.634 85.1201H218.624Z" fill="#BA7E41"/>
<path d="M230.114 86.7998L223.314 94.0098L226.054 94.4798L233.104 87.3298L230.114 86.7998Z" fill="#BA7E41"/>
<path d="M242.134 89.3398C241.924 89.3898 234.124 95.9998 234.124 95.9998C234.124 95.9998 237.734 96.7498 237.784 96.7598C237.834 96.7698 246.124 90.2998 246.124 90.2998L242.134 89.3398Z" fill="#BA7E41"/>
<path d="M254.164 92.3506L246.684 98.7806L250.104 99.6206L256.594 93.0006L254.164 92.3506Z" fill="#BA7E41"/>
<path d="M262.624 94.71L255.104 100.93L257.844 101.68L266.274 95.81L262.624 94.71Z" fill="#BA7E41"/>
<path d="M271.024 97.3203L262.964 103.16L266.994 104.39L274.754 98.5703L271.024 97.3203Z" fill="#BA7E41"/>
<path d="M281.244 100.94C281.084 100.96 273.274 106.42 273.274 106.42L276.164 107.42L283.964 102.02L281.244 100.94Z" fill="#BA7E41"/>
<path d="M165.714 94.7105C165.714 94.7105 235.744 93.0505 279.154 114.091C279.154 114.091 268.654 127.111 220.614 123.361C163.584 117.781 177.424 119.101 156.224 106.821C156.044 106.721 156.114 106.441 156.314 106.431C175.054 105.211 177.284 103.191 177.284 103.191C177.284 103.191 170.594 101.131 165.714 94.7105Z" fill="#152B32"/>
<path d="M140.284 107.86C140.284 107.86 147.804 113.82 177.294 118.13C167.954 110.26 167.734 113.63 156.374 106.92C156.164 106.79 156.244 106.47 156.494 106.46C169.644 106.13 176.094 104.29 177.304 103.19C171.514 99.83 168.054 96.81 165.734 94.71C151.914 100.85 140.304 107.86 140.304 107.86H140.284Z" fill="#324F55"/>
<path d="M267.384 112.91C267.584 112.91 269.674 114.32 269.674 114.32C269.674 114.32 265.774 114.72 264.494 115.06C263.214 115.4 260.994 118.36 259.244 116.74L255.664 116.67C255.664 116.67 248.854 120.38 242.524 120.78C240.034 120.91 240.374 118.02 243.604 117.69C246.834 117.35 249.524 116.85 249.524 116.85H248.584C248.584 116.85 244.744 116.01 237.214 116.85C235.194 118.5 232.704 118.64 231.494 119.04C230.284 119.44 229.744 119.98 227.324 119.71C224.904 119.44 223.424 117.69 231.364 116.14C223.764 115.06 211.784 117.08 208.624 112.57C208.964 111.16 218.384 111.29 223.694 113.11C229.004 114.93 234.134 114.86 234.134 114.86C234.134 114.86 229.814 112.82 226.724 111.62C223.634 110.42 223.294 109.14 225.644 108.74C227.994 108.34 228.734 109.14 232.034 110.69C235.334 112.24 239.704 113.52 239.704 113.52L239.834 114.33L246.124 114.72C246.124 114.72 241.644 111.37 236.134 109.55C239.834 108.54 243.514 110.21 246.684 112.16C248.984 113.18 256.604 112.58 256.604 112.58C256.604 112.58 250.604 111.57 249.264 109.75C247.924 107.93 250.404 108.44 252.494 109.26C254.584 110.08 257.204 111.63 260.094 112.37C262.984 113.11 267.394 112.9 267.394 112.9L267.384 112.91Z" fill="#796E4E"/>
<path d="M75.0544 111.67C75.0544 111.67 79.8944 105.41 88.3144 105.21C96.7244 105.01 98.8144 112.81 98.9444 115.37C104.264 113.08 112.534 113.89 115.834 119.41C119.134 124.93 117.114 130.78 117.114 130.78C117.114 130.78 123.844 136.3 119.204 143.63C114.564 150.97 107.564 145.92 105.074 143.29C106.284 150.69 107.164 154.8 105.474 160.72C103.794 166.64 101.434 167.58 98.4744 167.11C95.5144 166.64 91.8844 162.47 95.4444 151.43C91.4744 150.42 85.7544 147.8 82.5244 138.58C79.6944 143.15 67.6544 147.16 60.0544 136.21C54.7344 139.19 46.2644 138.99 45.1844 129.5C42.1544 131.52 32.6044 132.59 32.8044 122.91C33.0044 113.22 45.7244 107.23 51.9744 112.68C54.8044 107.16 58.5044 104.13 64.4844 104.4C70.4644 104.67 74.4444 109.11 75.0444 111.67H75.0544Z" fill="#EEDEC3"/>
<path d="M104.084 138.66C106.134 137.33 109.674 145.93 113.704 146C117.744 146.07 119.034 139.91 119.504 133.74C121.244 136.98 122.794 141.02 118.624 146C114.454 150.98 110.554 150.17 105.904 144.92C107.724 150.17 106.964 158.66 104.994 162.22C104.094 155.75 104.554 152.38 103.554 146.87C102.554 141.36 102.944 139.4 104.094 138.66H104.084Z" fill="#D1C3AA"/>
<path d="M42.7043 138.05C42.7043 138.05 48.8643 145.82 59.1543 141.38C63.6443 147.33 73.6843 150.31 81.4643 146.22C83.6843 150.21 87.0643 152.73 89.5943 153.69C89.3443 159.19 88.7843 163.23 90.3043 169.44C91.8143 175.65 103.934 175.04 107.054 168.53C110.184 162.02 110.534 159.65 111.194 152.88H113.664L105.004 232.6C105.004 232.6 106.764 234.01 106.724 236.28C106.684 238.55 106.274 241.93 106.014 243.24C105.764 244.55 103.994 248.96 77.5543 250.31C65.4443 250.44 38.5943 246.95 29.1043 236.52C28.7643 235.38 29.8443 226.76 29.8443 226.76C29.8443 226.76 32.2643 225.82 32.5343 221.71C32.8043 217.6 33.5743 204.08 34.4343 203.27C35.2943 202.46 40.6043 199.84 39.3943 189.75C38.1843 179.66 38.3843 173.87 38.9243 166.74C39.4643 159.61 42.7043 138.04 42.7043 138.04V138.05Z" fill="#EDD5B0"/>
<path d="M44.5043 155.44L52.1743 157.39C52.1743 157.39 50.4943 169.5 50.6943 173.27C50.8943 177.04 57.5543 178.65 58.9043 172.93C60.2543 167.21 60.8543 159 60.8543 159C60.8543 159 72.5043 161.81 89.3243 162.89C90.8643 169.22 92.4843 170.3 95.1043 171.78C97.7243 173.26 103.474 173.65 104.324 172.32C105.174 170.98 107.484 169.23 107.484 169.23C107.484 169.23 105.464 188.88 104.184 200.11C102.904 211.35 101.224 226.01 100.884 228.23C100.544 230.45 98.5243 233.07 77.8043 233.48C57.0743 233.88 37.3643 227.83 36.6943 221.84C36.7643 219.28 39.1843 200.11 40.1943 189.68C41.2043 179.25 43.7643 160.14 44.4943 155.43L44.5043 155.44Z" fill="#DC9940"/>
<path d="M59.1041 226.36C59.1041 226.36 73.7041 228.92 80.1641 227.03C86.6241 225.15 85.4141 215.73 87.4341 199.71C89.4541 183.7 91.7041 169.01 91.7041 169.01C91.7041 169.01 98.8941 176.19 106.794 169.01C106.794 169.01 99.2141 227.3 97.9341 230.53C97.5641 231.36 96.0541 231.86 94.9041 232.08C93.7541 232.3 80.1641 235.53 59.1041 232.15C58.4941 228.84 59.1041 226.35 59.1041 226.35V226.36Z" fill="#BF8734"/>
<path d="M91.374 208.06C91.374 208.06 96.554 213.98 97.564 209.27C98.574 204.56 99.784 184.58 99.444 182.15C99.104 179.72 95.474 178.45 94.534 182.49C93.594 186.53 91.774 202.14 91.374 208.06Z" fill="#DA9B40"/>
<path d="M91.5942 219.03C93.3842 218.99 94.4443 217.44 93.6143 215.85C92.7843 214.26 90.0042 214.61 89.1942 216.1C88.3842 217.59 89.2442 219.08 91.5942 219.03Z" fill="#DC9D3B"/>
<path d="M47.6643 187.05C48.0343 185.18 57.8543 188.06 57.7543 190.33C57.6543 192.6 55.5843 218.04 54.8243 220.05C54.0643 222.06 51.0443 222.98 49.2743 222.98C47.5043 222.98 45.3843 221.11 45.3343 218.39C45.2843 215.67 47.4543 188.06 47.6543 187.05H47.6643Z" fill="#ECB365"/>
<path d="M80.314 188.47C81.9598 188.47 83.294 187.462 83.294 186.22C83.294 184.977 81.9598 183.97 80.314 183.97C78.6682 183.97 77.334 184.977 77.334 186.22C77.334 187.462 78.6682 188.47 80.314 188.47Z" fill="#F0DEC0"/>
<path d="M66.3541 207.14C67.9557 207.14 69.2541 205.908 69.2541 204.39C69.2541 202.871 67.9557 201.64 66.3541 201.64C64.7525 201.64 63.4541 202.871 63.4541 204.39C63.4541 205.908 64.7525 207.14 66.3541 207.14Z" fill="#F0DEC0"/>
<path d="M52.4043 186.45C53.796 186.45 54.9243 185.573 54.9243 184.49C54.9243 183.408 53.796 182.53 52.4043 182.53C51.0125 182.53 49.8843 183.408 49.8843 184.49C49.8843 185.573 51.0125 186.45 52.4043 186.45Z" fill="#F0DEC0"/>
<path d="M68.3543 173.43C70.0056 173.43 71.3443 172.011 71.3443 170.26C71.3443 168.509 70.0056 167.09 68.3543 167.09C66.7029 167.09 65.3643 168.509 65.3643 170.26C65.3643 172.011 66.7029 173.43 68.3543 173.43Z" fill="#F0DEC0"/>
<path d="M32.9741 176.65C32.9741 176.65 33.2741 182.4 34.0341 187.7C34.7941 193 34.0841 198.9 30.9541 198.9C27.8241 198.9 26.9141 191.53 28.2841 185.63C29.6441 179.73 31.2641 176.95 32.9741 176.65Z" fill="#F58238"/>
<path d="M32.2642 194.19C33.0742 193.31 30.6942 188.02 30.6542 186.45C30.6142 184.88 28.8842 183.28 28.8842 183.28C28.8842 183.28 27.1942 188.35 27.7842 193.43C27.7842 193.43 30.5542 195.31 32.2642 194.18V194.19Z" fill="#FF924E"/>
<path d="M35.4443 158.49L36.6943 150.82C36.6943 150.82 23.8843 149.04 18.6343 154.23C13.3843 159.43 9.95432 165.03 8.64432 195.31C7.93432 216.46 15.9443 222.51 27.2543 222.61L28.5243 214.99C28.5243 214.99 14.5443 214.79 15.2043 202.93C15.8643 191.07 17.4243 172.4 19.2443 166.39C21.0643 160.38 25.7543 158.3 35.4443 158.48V158.49Z" fill="#7F847E"/>
<path d="M36.7039 150.2L36.6639 151.07C36.6639 151.07 22.1639 149.93 16.2039 159.27C10.2539 168.61 10.0439 191.52 9.24393 198.58C8.44393 205.64 10.4539 216.77 17.4239 220.29C7.88393 214.68 5.46393 208.58 6.32393 196.41C7.18393 184.25 8.24393 172.23 9.65393 165.32C11.0639 158.41 15.5239 147.13 36.7139 150.2H36.7039Z" fill="#D2C5B1"/>
<path d="M62.634 236.99C75.934 238.9 92.924 238.2 99.504 234.72C100.484 234.27 101.384 236.39 100.834 238.56C100.284 240.73 93.824 245.12 68.084 243.71C50.774 242.7 37.044 236.75 36.144 234.27C35.234 231.8 36.444 230.03 37.554 230.23C38.664 230.43 46.484 234.67 62.634 236.99Z" fill="#828681"/>
<path d="M304.794 336.81L307.824 335.05C307.824 335.05 316.874 343.33 331.674 343.06C346.474 342.79 355.424 331.08 359.064 322.6C362.704 314.12 361.624 300.73 361.214 292.12C360.814 283.51 362.624 273.75 366.054 268.64L369.354 270.05C369.354 270.05 365.044 279.94 365.244 295.08C365.444 310.22 365.914 323 358.784 333.23C351.654 343.46 341.354 348.71 328.974 347.76C316.594 346.82 306.834 339.11 304.784 336.81H304.794Z" fill="#2A393A"/>
<path d="M366.664 262.78C366.664 262.78 372.824 267.62 376.524 266.89C377.134 266.45 384.634 248.96 384.964 247.34C380.764 245.76 375.714 243.2 375.104 235.26C369.184 240.37 366.664 262.78 366.664 262.78Z" fill="#2C3A3A"/>
<path d="M371.804 230.311L376.754 233.511L368.524 264.091L364.234 261.401L371.804 230.311Z" fill="#55605C"/>
<path d="M404.334 204.44L393.834 227.38C393.834 227.38 391.614 217.83 387.244 215.2C382.874 212.58 379.214 211.18 379.214 211.18L382.444 198.92C382.444 198.92 393.114 202.55 394.784 202.88C400.334 204.42 404.334 204.44 404.334 204.44Z" fill="#2C3A3A"/>
<path d="M380.204 197.51L384.444 199.35L382.014 212.41L377.884 210.94C377.884 210.94 379.424 203.45 380.204 197.52V197.51Z" fill="#55605C"/>
<path d="M412.904 189.77L407.174 200.22C407.174 200.22 395.184 199.71 383.904 192.68C382.864 185.46 386.024 183.7 386.024 183.7C386.024 183.7 395.534 190.92 412.894 189.78L412.904 189.77Z" fill="#2C3A3A"/>
<path d="M381.614 180.84L386.184 183.69L385.464 193.6C385.464 193.6 382.044 192.22 381.514 190.66L381.614 180.85V180.84Z" fill="#55605C"/>
<path d="M378.704 157.71C378.704 157.71 404.514 170.92 430.484 173.94C423.144 184.17 417.834 189.55 395.634 183.16C385.134 179.32 378.614 175.86 378.714 157.71H378.704Z" fill="url(#paint0_linear_492_10007)"/>
<path d="M384.524 169.741C385.805 169.741 386.844 168.702 386.844 167.421C386.844 166.139 385.805 165.101 384.524 165.101C383.243 165.101 382.204 166.139 382.204 167.421C382.204 168.702 383.243 169.741 384.524 169.741Z" fill="#2E3D3E"/>
<path d="M391.114 170.08C392.246 170.08 393.164 169.163 393.164 168.03C393.164 166.898 392.246 165.98 391.114 165.98C389.982 165.98 389.064 166.898 389.064 168.03C389.064 169.163 389.982 170.08 391.114 170.08Z" fill="#2E3D3E"/>
<path d="M396.834 171.18C397.872 171.18 398.714 170.338 398.714 169.3C398.714 168.262 397.872 167.42 396.834 167.42C395.796 167.42 394.954 168.262 394.954 169.3C394.954 170.338 395.796 171.18 396.834 171.18Z" fill="#2E3D3E"/>
<path d="M391.114 179.19C392.71 179.19 394.004 177.896 394.004 176.3C394.004 174.704 392.71 173.41 391.114 173.41C389.518 173.41 388.224 174.704 388.224 176.3C388.224 177.896 389.518 179.19 391.114 179.19Z" fill="#2E3D3E"/>
<path d="M397.374 179.191C398.711 179.191 399.794 178.107 399.794 176.771C399.794 175.434 398.711 174.351 397.374 174.351C396.038 174.351 394.954 175.434 394.954 176.771C394.954 178.107 396.038 179.191 397.374 179.191Z" fill="#2E3D3E"/>
<path d="M404.594 178.86C406.008 178.86 407.154 177.714 407.154 176.3C407.154 174.886 406.008 173.74 404.594 173.74C403.18 173.74 402.034 174.886 402.034 176.3C402.034 177.714 403.18 178.86 404.594 178.86Z" fill="#2E3D3E"/>
<path d="M384.124 175.77C385.24 175.77 386.144 174.866 386.144 173.75C386.144 172.635 385.24 171.73 384.124 171.73C383.008 171.73 382.104 172.635 382.104 173.75C382.104 174.866 383.008 175.77 384.124 175.77Z" fill="#2E3D3E"/>
<path d="M378.404 147.84L377.264 152.08C377.264 152.08 389.044 159.01 406.464 163.99C423.894 168.97 432.434 170.45 435.194 168.97V166.68C435.194 166.68 424.024 164.26 404.984 158.34C385.944 152.42 378.404 147.84 378.404 147.84Z" fill="#55605C"/>
<path d="M381.834 144.07C381.834 144.07 403.634 156.52 435.194 161.03C436.544 150.94 435.064 136.13 419.184 130.48C404.984 125.57 391.864 127.72 381.844 144.07H381.834Z" fill="url(#paint1_linear_492_10007)"/>
<path d="M396.634 150.26C397.86 150.26 398.854 149.266 398.854 148.04C398.854 146.814 397.86 145.82 396.634 145.82C395.408 145.82 394.414 146.814 394.414 148.04C394.414 149.266 395.408 150.26 396.634 150.26Z" fill="#2E3D3E"/>
<path d="M402.824 147.57C404.161 147.57 405.244 146.487 405.244 145.15C405.244 143.814 404.161 142.73 402.824 142.73C401.488 142.73 400.404 143.814 400.404 145.15C400.404 146.487 401.488 147.57 402.824 147.57Z" fill="#2E3D3E"/>
<path d="M409.284 143.4C410.549 143.4 411.574 142.375 411.574 141.11C411.574 139.846 410.549 138.82 409.284 138.82C408.019 138.82 406.994 139.846 406.994 141.11C406.994 142.375 408.019 143.4 409.284 143.4Z" fill="#2E3D3E"/>
<path d="M415.944 139.77C417.209 139.77 418.234 138.745 418.234 137.48C418.234 136.216 417.209 135.19 415.944 135.19C414.68 135.19 413.654 136.216 413.654 137.48C413.654 138.745 414.68 139.77 415.944 139.77Z" fill="#2E3D3E"/>
<path d="M418.704 145.55C419.892 145.55 420.854 144.587 420.854 143.4C420.854 142.213 419.892 141.25 418.704 141.25C417.517 141.25 416.554 142.213 416.554 143.4C416.554 144.587 417.517 145.55 418.704 145.55Z" fill="#2E3D3E"/>
<path d="M425.504 142.191C426.841 142.191 427.924 141.107 427.924 139.771C427.924 138.434 426.841 137.351 425.504 137.351C424.167 137.351 423.084 138.434 423.084 139.771C423.084 141.107 424.167 142.191 425.504 142.191Z" fill="#2E3D3E"/>
<path d="M422.274 136.7C423.445 136.7 424.394 135.751 424.394 134.58C424.394 133.409 423.445 132.46 422.274 132.46C421.103 132.46 420.154 133.409 420.154 134.58C420.154 135.751 421.103 136.7 422.274 136.7Z" fill="#2E3D3E"/>
<path d="M412.384 149.19C413.759 149.19 414.874 148.075 414.874 146.7C414.874 145.325 413.759 144.21 412.384 144.21C411.009 144.21 409.894 145.325 409.894 146.7C409.894 148.075 411.009 149.19 412.384 149.19Z" fill="#2E3D3E"/>
<path d="M406.224 152.79C407.434 152.79 408.414 151.81 408.414 150.6C408.414 149.391 407.434 148.41 406.224 148.41C405.015 148.41 404.034 149.391 404.034 150.6C404.034 151.81 405.015 152.79 406.224 152.79Z" fill="#2E3D3E"/>
<path d="M415.944 156.05C417.209 156.05 418.234 155.024 418.234 153.76C418.234 152.495 417.209 151.47 415.944 151.47C414.68 151.47 413.654 152.495 413.654 153.76C413.654 155.024 414.68 156.05 415.944 156.05Z" fill="#2E3D3E"/>
<path d="M422.744 152.78C424.136 152.78 425.264 151.652 425.264 150.26C425.264 148.868 424.136 147.74 422.744 147.74C421.352 147.74 420.224 148.868 420.224 150.26C420.224 151.652 421.352 152.78 422.744 152.78Z" fill="#2E3D3E"/>
<path d="M428.864 149.02C430.145 149.02 431.184 147.981 431.184 146.7C431.184 145.419 430.145 144.38 428.864 144.38C427.583 144.38 426.544 145.419 426.544 146.7C426.544 147.981 427.583 149.02 428.864 149.02Z" fill="#2E3D3E"/>
<path d="M431.674 156.11C432.834 156.11 433.774 155.17 433.774 154.01C433.774 152.85 432.834 151.91 431.674 151.91C430.514 151.91 429.574 152.85 429.574 154.01C429.574 155.17 430.514 156.11 431.674 156.11Z" fill="#2E3D3E"/>
<path d="M425.834 159.35C426.988 159.35 427.924 158.414 427.924 157.26C427.924 156.106 426.988 155.17 425.834 155.17C424.68 155.17 423.744 156.106 423.744 157.26C423.744 158.414 424.68 159.35 425.834 159.35Z" fill="#2E3D3E"/>
<path d="M406.284 137.611C407.621 137.611 408.704 136.527 408.704 135.191C408.704 133.854 407.621 132.771 406.284 132.771C404.948 132.771 403.864 133.854 403.864 135.191C403.864 136.527 404.948 137.611 406.284 137.611Z" fill="#2E3D3E"/>
<path d="M412.714 133.571C413.901 133.571 414.864 132.608 414.864 131.421C414.864 130.233 413.901 129.271 412.714 129.271C411.527 129.271 410.564 130.233 410.564 131.421C410.564 132.608 411.527 133.571 412.714 133.571Z" fill="#2E3D3E"/>
<path d="M399.794 141.6C401.031 141.6 402.034 140.597 402.034 139.36C402.034 138.123 401.031 137.12 399.794 137.12C398.557 137.12 397.554 138.123 397.554 139.36C397.554 140.597 398.557 141.6 399.794 141.6Z" fill="#2E3D3E"/>
<path d="M392.534 144.071C393.573 144.071 394.414 143.229 394.414 142.191C394.414 141.152 393.573 140.311 392.534 140.311C391.496 140.311 390.654 141.152 390.654 142.191C390.654 143.229 391.496 144.071 392.534 144.071Z" fill="#2E3D3E"/>
<path d="M396.634 135.79C397.523 135.79 398.244 135.069 398.244 134.18C398.244 133.291 397.523 132.57 396.634 132.57C395.745 132.57 395.024 133.291 395.024 134.18C395.024 135.069 395.745 135.79 396.634 135.79Z" fill="#2E3D3E"/>
<path d="M402.424 132.86C403.219 132.86 403.864 132.216 403.864 131.42C403.864 130.625 403.219 129.98 402.424 129.98C401.629 129.98 400.984 130.625 400.984 131.42C400.984 132.216 401.629 132.86 402.424 132.86Z" fill="#2E3D3E"/>
<path d="M161.134 183.301C161.134 183.301 165.044 180.661 163.224 159.011C162.654 143.091 161.844 136.151 161.944 135.701C162.044 135.251 196.154 132.341 196.154 132.341L252.374 132.191C252.374 132.191 284.824 122.951 285.374 122.751C285.924 122.551 295.564 122.041 296.524 122.351C297.484 122.661 304.494 128.401 304.954 128.761C305.414 129.121 308.734 134.971 308.734 134.971C308.734 134.971 309.994 153.991 310.064 158.911C310.134 163.831 294.794 192.221 294.794 192.221C294.794 192.221 281.334 202.311 280.124 216.981C278.914 231.651 287.994 246.791 291.634 249.281C295.264 251.771 309.264 257.151 322.044 256.951C334.824 256.751 354.144 248.811 363.764 226.471L367.664 228.761C367.664 228.761 363.764 258.991 352.724 266.991C341.694 274.991 299.834 282.791 283.554 270.821C278.714 265.711 277.434 264.501 275.344 265.301C273.254 266.111 290.144 292.281 312.954 298.471C335.764 304.661 347.134 303.581 356.354 299.211C357.364 307.081 356.424 315.361 355.214 318.121C354.004 320.881 333.344 324.711 333.344 324.711L308.784 322.221C308.784 322.221 290.214 315.021 289.474 314.281C288.734 313.541 274.804 306.001 274.134 305.331C273.464 304.661 263.974 297.661 263.974 297.661L259.334 291.401C259.334 291.401 253.014 274.581 251.054 274.651C249.094 274.721 252.874 287.701 253.674 291.541C254.484 295.381 253.674 306.281 251.584 312.941C249.494 319.601 245.194 332.381 245.194 336.421C245.194 340.461 241.834 354.791 254.544 358.291C267.254 361.791 273.384 350.821 273.784 342.341C273.914 340.791 279.774 339.851 279.304 346.451C278.834 353.041 269.484 369.601 253.734 370.001C237.984 370.401 225.134 358.701 225.204 340.261C225.204 331.511 229.444 323.571 229.314 310.661C229.184 297.741 222.514 272.851 215.254 274.531C207.914 276.351 197.694 293.241 196.144 301.111C194.594 308.981 189.214 325.331 186.794 328.631C184.374 331.931 173.004 342.631 165.534 346.591C158.064 350.551 144.614 353.791 137.814 349.081C131.014 344.371 129.944 340.201 131.824 337.301C133.704 334.401 137.944 336.961 140.304 338.111C142.664 339.261 156.584 341.411 165.204 325.261C173.814 309.111 173.754 299.091 175.364 291.411C176.974 283.741 182.964 267.861 184.044 266.241C178.794 268.861 177.384 273.041 176.514 273.911C175.644 274.781 162.854 286.221 161.104 288.171C159.354 290.121 136.344 302.971 133.454 303.581C130.564 304.191 113.204 308.291 108.824 308.221C104.444 308.151 94.5643 307.881 91.6643 306.471C88.7743 305.061 76.5243 307.141 68.0443 296.581C59.5643 286.021 55.1943 276.931 55.7943 265.501C59.1543 260.121 65.1443 268.931 65.1443 268.931C65.1443 268.931 69.5843 272.701 72.2743 277.541C74.9643 282.381 84.6543 293.491 105.374 291.601C126.104 289.721 139.014 275.721 145.074 271.011C151.124 266.301 161.154 257.891 164.314 252.031C165.394 250.081 164.314 248.871 164.314 248.871C164.314 248.871 154.424 257.891 149.574 259.971C144.724 262.051 126.024 260.441 119.364 253.311C112.704 246.181 116.404 237.101 116.604 236.221C116.804 235.351 121.514 229.761 121.514 229.761C121.514 229.761 131.944 240.261 147.824 240.321C163.704 240.391 169.764 236.081 170.764 229.551C171.774 223.021 155.154 222.481 154.144 201.561C154.144 194.221 157.504 188.511 164.304 185.881C164.304 185.881 165.314 183.421 161.104 183.311L161.134 183.301Z" fill="#F17E3C"/>
<path d="M161.944 135.69C161.094 130.29 162.534 121.5 162.534 121.5C162.534 121.5 182.014 128.67 228.844 129.07C275.674 129.47 287.974 115.63 287.974 115.63C287.974 115.63 291.174 119.03 295.144 117.95C301.904 121.38 314.624 128.45 315.634 131.42C319.164 141.66 317.554 159.43 309.884 177.6C302.214 195.77 287.374 198.49 284.344 216.36C281.214 237.86 294.844 250.27 304.804 254.5C271.064 253.08 269.614 216.77 284.954 195.77C300.294 174.78 304.334 167.71 306.954 150.35C309.574 132.99 302.004 130.57 287.474 125.02C281.524 132.59 265.164 136.83 231.564 138.54C197.954 140.26 180.884 133.41 180.884 133.41L161.964 135.69H161.944Z" fill="#BF622C"/>
<path d="M357.674 261.351C357.674 261.351 357.864 263.401 359.954 266.031C353.964 272.151 333.374 289.181 293.204 280.031C287.684 277.001 283.564 270.791 283.564 270.791C283.564 270.791 307.334 277.401 323.284 274.841C342.794 272.011 353.114 264.071 357.674 261.351Z" fill="#BD5B28"/>
<path d="M355.944 315.62C355.944 315.62 355.244 321.2 353.084 324.7C329.664 330.42 292.624 332.08 260.024 298.03C259.294 292.32 256.744 284.88 256.744 284.88C256.744 284.88 267.244 297.42 279.514 306.4C291.774 315.37 326.514 329.43 355.954 315.63L355.944 315.62Z" fill="#B95C2D"/>
<path d="M253.944 293.65C253.944 293.65 251.044 308.38 247.114 321.5C243.174 334.62 231.264 354.02 256.044 358.6C246.914 354.6 243.074 347.03 249.234 330.99C255.394 314.94 256.064 303.5 253.944 293.65Z" fill="#B65B2E"/>
<path d="M216.764 279.96C216.764 279.96 217.304 279.14 216.894 275.25C216.864 274.97 216.894 274.44 216.384 274.24C213.624 273.34 204.274 273.82 198.254 289.1C191.894 305.25 190.434 317.5 180.694 330.28C170.954 343.06 156.954 350.69 134.164 346.04C139.834 350.88 153.054 358.64 174.744 345.02C196.444 331.39 196.844 309.59 201.994 296.68C207.144 283.76 209.094 281.07 216.764 279.96Z" fill="#C05C26"/>
<path d="M190.994 266.3C190.994 266.3 183.124 294.96 176.664 306.37C176.154 291.63 177.674 274.27 190.994 266.3Z" fill="#FF944C"/>
<path d="M176.584 273.09C176.584 273.09 176.564 277.5 172.524 283.46C159.004 294.86 140.424 311.93 111.364 312.88C90.6742 313.63 74.5442 303.96 70.3442 299.05C85.0242 303.24 98.2442 309.2 126.194 302.74C154.154 296.28 176.574 273.1 176.574 273.1L176.584 273.09Z" fill="#BF602A"/>
<path d="M171.214 256.51C171.214 256.51 147.094 286.49 120.854 291.33C137.104 279.52 141.344 275.38 148.104 270.24C154.864 265.09 163.444 255.5 171.214 256.51Z" fill="#FF944C"/>
<path d="M70.8841 255.6C70.8841 255.6 64.2941 271.08 76.6241 282.97C64.0241 276.69 60.0841 275.25 55.7441 267.71C56.0541 257.61 57.3641 254.66 57.3641 254.66C57.3641 254.66 66.0241 255.42 70.8841 255.59V255.6Z" fill="#C0632C"/>
<path d="M122.194 230.35C122.194 230.35 115.304 224.6 112.134 217.93C110.584 227.08 110.254 229.84 111.594 231.93C112.934 234.02 112.534 244.85 108.634 249.16C117.314 257.37 126.224 265.47 144.764 265.31L158.004 254.25C158.004 254.25 151.834 256.96 141.064 257.64C130.294 258.31 122.564 255.08 120.204 249.16C117.844 243.24 122.184 230.35 122.184 230.35H122.194Z" fill="#C1622B"/>
<path d="M239.404 208.181C239.404 208.181 236.444 208.111 236.344 206.531C236.244 204.951 241.594 203.131 246.234 205.661C250.874 208.181 251.454 211.111 249.564 212.391C248.254 211.651 247.814 210.841 247.004 210.941C246.194 211.041 243.704 214.541 240.984 220.491C238.264 226.441 228.164 240.411 214.444 240.201C204.824 240.071 194.514 232.281 191.084 215.421C185.034 211.791 180.414 208.311 180.524 206.251C180.634 204.191 183.284 204.301 184.094 204.941C184.904 205.581 197.484 216.281 215.344 215.501C233.204 214.721 239.414 208.161 239.414 208.161L239.404 208.181Z" fill="black"/>
<path d="M202.484 228.63C202.484 228.63 207.844 223.82 215.544 223.75C223.244 223.68 230.174 226.19 230.174 226.19C230.174 226.19 225.334 234.01 214.424 234.55C208.504 234.85 203.694 231.83 202.484 228.63Z" fill="#C1642D"/>
<path d="M262.774 140.42C266.674 141.92 268.824 145.6 270.044 147.72C271.254 149.84 272.804 148.46 272.734 146.78C272.664 145.1 270.854 139.68 265.094 137.16C259.344 134.64 250.354 135.75 249.344 138.27C248.804 139.75 250.824 139.92 253.514 139.72C256.204 139.52 259.434 139.15 262.764 140.43L262.774 140.42Z" fill="black"/>
<path d="M167.274 139.261C167.274 139.261 168.144 140.541 169.324 140.401C170.504 140.261 172.854 136.831 177.124 135.391C181.394 133.941 185.064 134.921 189.404 137.751C190.514 138.361 191.424 136.471 189.804 134.591C188.184 132.711 184.754 130.651 179.814 130.751C174.874 130.851 169.044 134.991 167.264 139.261H167.274Z" fill="black"/>
<path d="M187.514 187.24C187.514 187.24 190.544 189.73 191.654 191.81C190.744 192.65 189.534 193.42 188.124 192.55C186.714 191.68 177.624 185.72 169.854 185.82C169.344 185.79 166.014 178.18 166.324 170.71C166.634 163.24 170.864 147.46 182.944 147.7C191.084 148.21 195.454 157.88 195.454 167.62C195.454 177.36 190.954 184.29 187.514 187.23V187.24Z" fill="black"/>
<path d="M177.734 182.96L172.334 182.45C172.334 182.45 169.664 178.06 169.664 171.05C169.664 164.04 173.954 151.57 181.974 151.57C189.994 151.57 192.774 163.43 191.254 172.76C190.444 165.49 188.934 160.95 182.574 160.95C176.214 160.95 173.394 172.71 177.734 182.95V182.96Z" fill="#EEDFC5"/>
<path d="M259.944 190.08C259.944 190.08 264.584 192.5 263.834 194.12C263.074 195.73 260.204 195.28 258.034 194.37C255.864 193.46 251.124 192.52 246.634 192.64C242.144 192.76 237.354 194.93 235.634 194.27C233.914 193.61 235.634 192.3 235.634 192.3C235.634 192.3 231.544 185.03 232.154 177.56C232.764 170.09 237.654 152.33 252.134 152.13C260.964 152.08 267.024 162.83 265.964 174.44C264.704 184.74 259.954 190.09 259.954 190.09L259.944 190.08Z" fill="black"/>
<path d="M260.654 181.04C260.654 181.04 261.004 166.35 251.874 166.35C242.744 166.35 240.724 183.61 244.054 189.01L239.104 190.32C239.104 190.32 235.414 184.99 235.774 177C236.144 168.84 241.024 156.81 250.814 155.81C256.614 155.46 265.654 162.88 260.654 181.04Z" fill="#EEDFC5"/>
<path d="M374.324 203.31L373.244 209.5L369.734 210.51C369.734 210.51 371.234 213.2 374.324 215.69C377.414 218.18 387.104 219.8 388.054 232.11C388.324 237.43 386.224 242.41 384.444 242.2C382.664 241.99 381.304 240.05 381.514 238.57C381.724 237.09 382.804 230.83 377.414 227.67C372.024 224.51 361.154 220.03 361.754 212.21C362.364 204.39 368.804 201.37 374.324 203.32V203.31Z" fill="#F9833F"/>
<path d="M369.734 295.04C369.734 295.04 387.494 286.9 394.664 269.54C401.834 252.18 398.304 238.66 398.304 238.66L405.154 226.85L406.564 226.14L408.884 227.86C408.884 227.86 415.044 239.77 412.214 258.14C409.384 276.51 396.874 301.94 369.724 313.85C369.724 313.85 370.734 306.72 369.724 295.04H369.734Z" fill="#F37E39"/>
<path d="M368.724 319.6C368.724 319.6 369.794 314.22 369.944 311.79C381.244 305.27 391.674 297.36 401.424 281.4C411.174 265.44 411.274 249.72 411.534 235.73C411.534 235.73 414.814 247.18 414.014 261.35C413.214 275.52 402.574 305.33 368.734 319.59L368.724 319.6Z" fill="#BF5C26"/>
<path d="M409.144 228.38C409.144 228.38 406.414 221.11 403.544 216.78C398.704 227.21 396.204 232.99 396.204 232.99C396.204 232.99 398.224 238.24 398.964 242.95C404.484 233.4 408.144 228.8 409.144 228.37V228.38Z" fill="#BC612D"/>
<path d="M302.984 285.88C302.984 285.88 311.764 287.02 314.724 287.06C315.594 287.06 316.914 291.7 310.154 291.6C306.014 291.33 302.284 287.46 302.984 285.88Z" fill="#B05C2D"/>
<path d="M324.714 286.42C326.274 285.75 334.334 284.47 334.904 284.37C335.274 285.88 334.834 288.54 331.374 289.65C327.904 290.76 322.454 287.39 324.714 286.42Z" fill="#B05C2D"/>
<path d="M342.114 281.95C342.114 281.83 351.094 277.64 351.604 277.48C352.114 277.31 352.744 280.78 350.024 282.53C347.304 284.28 342.054 284.21 342.114 281.96V281.95Z" fill="#B05C2D"/>
<path d="M417.534 268.96C417.534 268.96 416.154 275.01 414.574 278.14C415.384 279.15 417.734 276.9 418.204 274.3C418.674 271.71 417.934 268.71 417.534 268.95V268.96Z" fill="#B75D2F"/>
<path d="M409.694 287.97C409.694 287.97 403.164 298.5 402.934 299.48C403.844 299.88 408.414 298.47 410.044 295.29C411.444 292.54 411.924 289.39 409.704 287.97H409.694Z" fill="#B75D2F"/>
<path d="M387.024 313.6C387.024 313.6 394.524 307.17 395.464 306.77C396.404 306.37 398.324 308.76 396.174 311.04C394.024 313.33 390.384 316.12 387.024 313.6Z" fill="#B75D2F"/>
<path d="M379.354 318.95C380.094 318.79 380.964 322.04 378.384 324.4C375.794 326.76 370.714 327.26 368.294 326.96C368.224 325.58 368.564 324.24 370.684 323.43C372.804 322.62 378.154 319.23 379.364 318.96L379.354 318.95Z" fill="#B75D2F"/>
<path d="M317.934 332.19C321.704 332.59 325.504 332.56 326.614 332.83C327.724 333.1 327.694 334.51 326.344 335.4C324.994 336.29 320.594 337.16 318.574 336.59C316.554 336.02 312.984 332.96 313.834 331.66C314.504 331.17 316.424 332.02 317.944 332.18L317.934 332.19Z" fill="#B75D2F"/>
<path d="M306.344 330.48C306.344 330.48 304.614 329.44 299.904 328.36C295.194 327.28 294.484 326.64 293.954 327.05C293.424 327.46 294.084 330.89 298.394 332.27C302.704 333.65 304.204 333.01 306.344 330.49V330.48Z" fill="#B75D2F"/>
<path d="M284.164 322.3C284.164 322.3 276.524 317.73 274.444 316.51C273.604 318.77 274.514 321.32 276.634 322.8C278.754 324.28 282.114 325.52 284.164 322.29V322.3Z" fill="#B75D2F"/>
<path d="M196.554 327.5C196.554 327.5 194.094 334.33 190.434 338.23C192.994 338.4 195.274 337.12 196.554 335.44C197.834 333.76 199.314 329.55 196.554 327.5Z" fill="#BE5D2A"/>
<path d="M185.214 343.11C185.704 342.67 186.864 344.62 186.254 346.74C185.644 348.86 182.754 352.53 180.094 353.33C177.434 354.13 174.474 352.22 174.714 350.87C177.744 348.25 184.264 343.94 185.214 343.1V343.11Z" fill="#BE5D2A"/>
<path d="M160.704 298.06C161.314 297.71 162.154 298.73 162.724 299.84C163.294 300.95 162.554 302.97 159.634 304.79C156.714 306.61 153.344 307.05 151.564 304.79C154.694 301.76 160.244 298.33 160.714 298.06H160.704Z" fill="#B55E2E"/>
<path d="M142.974 308.59C143.534 308.27 144.214 311.28 142.104 312.73C139.984 314.18 136.414 315.39 134.334 312.6C137.194 310.11 142.204 309.03 142.984 308.6L142.974 308.59Z" fill="#B55E2E"/>
<path d="M114.884 317C114.874 316.89 119.624 316.26 122.794 315.55C125.954 314.84 126.324 315.15 126.194 316.86C126.064 318.57 123.634 319.72 121.084 319.89C118.524 320.06 115.064 318.65 114.894 317H114.884Z" fill="#B55E2E"/>
<path d="M95.874 316.57C95.874 316.57 105.264 317.08 106.134 317.18C106.334 319.23 104.924 321.12 102.194 321.22C99.464 321.32 95.934 318.76 95.874 316.58V316.57Z" fill="#B55E2E"/>
<path d="M87.6643 314.551C87.6643 314.551 78.4843 309.981 76.7643 309.101C76.6943 310.311 76.2243 312.061 77.2743 313.001C78.3243 313.941 83.6643 317.781 87.6743 314.551H87.6643Z" fill="#B55E2E"/>
<path d="M70.5142 304.89C70.5142 304.89 66.4042 301.36 63.7542 298.09C61.8742 299.54 63.5142 303.04 64.7642 304.21C66.0142 305.38 68.2342 306.03 70.5142 304.88V304.89Z" fill="#B55E2E"/>
<path d="M58.134 291.231C58.134 291.231 54.164 284.571 52.814 280.561C51.364 281.301 51.094 284.971 52.104 286.881C53.114 288.791 55.194 291.791 58.124 291.221L58.134 291.231Z" fill="#B55E2E"/>
<path d="M114.564 260.67C114.964 260.34 108.944 256.8 106.154 253.74C105.144 253.37 105.144 257.31 107.024 259.12C108.904 260.93 112.844 262.08 114.554 260.67H114.564Z" fill="#B55E2E"/>
<path d="M129.804 267.53C128.974 267.39 123.374 266.18 121.254 264.94C120.144 265.07 120.064 266.72 120.844 267.73C121.624 268.74 123.404 270.22 126.844 270.12C130.284 270.02 130.944 267.72 129.804 267.53Z" fill="#B55E2E"/>
<path d="M205.954 38.2697V40.8897C205.954 40.8897 212.614 41.4997 214.234 41.2297C213.624 43.8497 212.484 44.9997 210.804 45.0697C209.124 45.1397 205.964 44.7997 205.964 44.7997C205.964 44.7997 204.734 51.6997 204.334 59.7097C209.714 57.6197 211.434 56.4297 213.834 53.7497C216.324 50.5197 217.064 49.6397 218.074 50.1197C219.084 50.5897 218.204 55.4197 212.524 60.4197C208.464 63.5897 205.424 64.7197 203.874 64.9297L203.744 66.7497C203.744 66.7497 200.654 68.0297 198.094 66.3497L197.964 64.7997C197.964 64.7997 194.194 62.9797 191.374 59.6897C188.554 56.3997 187.794 54.1197 187.454 51.8597C187.144 49.7897 186.924 47.9197 188.674 47.7797C190.424 47.6497 191.904 57.5397 199.104 59.4897L200.714 44.1497C200.714 44.1497 196.604 43.8797 194.994 43.4797C193.384 43.0797 192.974 40.1197 193.444 39.4397C194.924 40.0497 200.244 40.7897 201.314 40.5197L201.584 37.9597C201.584 37.9597 198.374 37.3197 198.324 33.6897C198.274 30.0597 202.104 30.8097 202.104 30.8097C202.104 30.8097 201.444 27.6797 204.724 27.6797C207.144 27.6797 207.344 29.8497 207.194 30.9097C207.194 30.9097 210.374 30.6597 210.374 33.9897C210.324 38.3297 205.954 38.2897 205.954 38.2897V38.2697Z" fill="#C09861"/>
<path d="M204.284 36.0099C205.483 36.0099 206.454 35.0384 206.454 33.8399C206.454 32.6415 205.483 31.6699 204.284 31.6699C203.086 31.6699 202.114 32.6415 202.114 33.8399C202.114 35.0384 203.086 36.0099 204.284 36.0099Z" fill="black"/>
<path d="M276.494 341.25C276.494 341.25 279.304 347.07 274.734 354.89C270.164 362.71 258.994 367.61 251.184 369.93C261.004 370.23 268.594 368.35 274.114 362.77C279.634 357.18 279.654 348.67 279.314 345.02C278.964 341.37 276.484 341.26 276.484 341.26L276.494 341.25Z" fill="#C56032"/>
<path d="M288.054 181C288.054 182.22 288.554 183.13 289.604 183.13C290.654 183.13 291.194 181.74 291.194 180.52C291.194 179.3 290.654 178.72 289.604 178.72C288.554 178.72 288.054 179.78 288.054 181Z" fill="#BF622C"/>
<path d="M297.134 166.08C297.134 167.75 297.724 168.99 298.974 168.99C300.224 168.99 300.864 167.08 300.864 165.42C300.864 163.76 300.214 162.96 298.974 162.96C297.734 162.96 297.134 164.42 297.134 166.08Z" fill="#BF622C"/>
<path d="M299.484 152.18C299.934 153.31 300.744 153.97 301.714 153.58C302.684 153.19 302.674 151.7 302.224 150.57C301.774 149.44 301.054 149.11 300.074 149.49C299.104 149.88 299.034 151.05 299.484 152.18Z" fill="#BF622C"/>
<path d="M292.234 105.671C291.954 107.371 292.504 109.361 294.284 109.651C296.064 109.941 297.124 108.701 297.404 107C297.684 105.3 297.084 103.781 295.304 103.491C293.524 103.201 292.514 103.971 292.244 105.671H292.234Z" fill="#E3B269"/>
<path d="M408.004 184.31C409.418 184.31 410.564 183.164 410.564 181.75C410.564 180.337 409.418 179.19 408.004 179.19C406.59 179.19 405.444 180.337 405.444 181.75C405.444 183.164 406.59 184.31 408.004 184.31Z" fill="#2E3D3E"/>
<path d="M410.564 176.901C411.751 176.901 412.714 175.938 412.714 174.751C412.714 173.563 411.751 172.601 410.564 172.601C409.377 172.601 408.414 173.563 408.414 174.751C408.414 175.938 409.377 176.901 410.564 176.901Z" fill="#2E3D3E"/>
<path d="M415.944 181.01C417.131 181.01 418.094 180.047 418.094 178.86C418.094 177.673 417.131 176.71 415.944 176.71C414.757 176.71 413.794 177.673 413.794 178.86C413.794 180.047 414.757 181.01 415.944 181.01Z" fill="#2E3D3E"/>
<path d="M422.744 177.91C423.932 177.91 424.894 176.948 424.894 175.76C424.894 174.573 423.932 173.61 422.744 173.61C421.557 173.61 420.594 174.573 420.594 175.76C420.594 176.948 421.557 177.91 422.744 177.91Z" fill="#2E3D3E"/>
<path d="M382.104 164.8C383.12 164.8 383.944 163.976 383.944 162.96C383.944 161.944 383.12 161.12 382.104 161.12C381.088 161.12 380.264 161.944 380.264 162.96C380.264 163.976 381.088 164.8 382.104 164.8Z" fill="#2E3D3E"/>
<path d="M390.164 139.36C391.053 139.36 391.774 138.639 391.774 137.75C391.774 136.86 391.053 136.14 390.164 136.14C389.275 136.14 388.554 136.86 388.554 137.75C388.554 138.639 389.275 139.36 390.164 139.36Z" fill="#2E3D3E"/>
<path d="M386.844 145.56C387.59 145.56 388.194 144.956 388.194 144.21C388.194 143.465 387.59 142.86 386.844 142.86C386.099 142.86 385.494 143.465 385.494 144.21C385.494 144.956 386.099 145.56 386.844 145.56Z" fill="#2E3D3E"/>
<defs>
<linearGradient id="paint0_linear_492_10007" x1="378.704" y1="171.82" x2="430.484" y2="171.82" gradientUnits="userSpaceOnUse">
<stop stop-color="#424D4C"/>
<stop offset="1" stop-color="#3E4845"/>
</linearGradient>
<linearGradient id="paint1_linear_492_10007" x1="391.564" y1="132.3" x2="437.334" y2="156.82" gradientUnits="userSpaceOnUse">
<stop stop-color="#424D4C"/>
<stop offset="1" stop-color="#3E4845"/>
</linearGradient>
</defs>
</svg>
