<svg width="874" height="191" viewBox="0 0 874 191" fill="none" xmlns="http://www.w3.org/2000/svg">
<g filter="url(#filter0_d_141_16)">
<rect x="22" y="22" width="810" height="127" rx="20" fill="#083242" shape-rendering="crispEdges"/>
<rect x="16" y="16" width="822" height="139" rx="26" stroke="#1A5C74" stroke-width="12" shape-rendering="crispEdges"/>
<g filter="url(#filter1_d_141_16)">
<path d="M93.5312 114.859C93.875 115.734 94.2344 116.578 94.6094 117.391C94.9844 118.172 95.4062 118.875 95.875 119.5C96.3438 120.125 96.875 120.625 97.4688 121C98.0625 121.375 98.7344 121.562 99.4844 121.562C99.9844 121.562 100.516 121.453 101.078 121.234C101.672 121.047 102.312 120.703 103 120.203L103.234 120.344L99.8594 128.312C97.8594 128.312 96.125 128 94.6562 127.375C93.2188 126.75 91.9844 125.906 90.9531 124.844C89.9219 123.781 89.0625 122.531 88.375 121.094C87.7188 119.656 87.1719 118.109 86.7344 116.453L79.6562 90.4375C79.5625 90.5 79.3438 90.5625 79 90.625C78.6562 90.6562 78.2812 90.7031 77.875 90.7656C77.5 90.7969 77.125 90.8438 76.75 90.9062C76.4062 90.9375 76.1719 90.9531 76.0469 90.9531C76.0781 92.5156 76.0938 94.1562 76.0938 95.875C76.125 97.5625 76.1562 99.2812 76.1875 101.031C76.2188 102.75 76.25 104.453 76.2812 106.141C76.3125 107.828 76.3438 109.453 76.375 111.016C76.5 112.703 76.9375 114.125 77.6875 115.281C78.4375 116.406 79.6094 117.234 81.2031 117.766V118H64.2812V117.766C65.875 117.234 67.0156 116.359 67.7031 115.141C68.3906 113.922 68.7969 112.484 68.9219 110.828C69.1406 105.797 69.3125 101.125 69.4375 96.8125C69.5938 92.5 69.6719 88.2969 69.6719 84.2031C69.6719 80.5469 69.6406 76.9219 69.5781 73.3281C69.5469 69.7344 69.3438 65.9688 68.9688 62.0312C68.8125 60.5625 68.3438 59.3125 67.5625 58.2812C66.8125 57.2188 65.7188 56.4688 64.2812 56.0312V55.7969H80.9219C82.8594 55.7969 84.6719 56.1094 86.3594 56.7344C88.0469 57.3281 89.5 58.2188 90.7188 59.4062C91.9688 60.5938 92.9531 62.0625 93.6719 63.8125C94.3906 65.5625 94.75 67.5781 94.75 69.8594C94.75 74.4844 93.9062 78.3594 92.2188 81.4844C90.5312 84.6094 88.2969 86.9062 85.5156 88.375C86.7031 92.6875 87.9062 97.0156 89.125 101.359C90.3438 105.703 91.8125 110.203 93.5312 114.859ZM75.9531 81.7188C75.9531 82.3438 75.9375 82.9688 75.9062 83.5938C75.9062 84.1875 75.9219 84.8438 75.9531 85.5625C79.8594 85.5625 82.6719 84.25 84.3906 81.625C86.1406 79 87.0156 75.0781 87.0156 69.8594C87.0156 66.9219 86.4375 64.6875 85.2812 63.1562C84.1562 61.5938 82.4531 60.8125 80.1719 60.8125C79.6094 60.8125 78.9688 60.8281 78.25 60.8594C77.5312 60.8594 76.9062 60.8906 76.375 60.9531V62.8281C76.2812 65.1094 76.2031 67.375 76.1406 69.625C76.0781 71.5625 76.0312 73.625 76 75.8125C75.9688 77.9688 75.9531 79.9375 75.9531 81.7188ZM116.688 102.016L126.953 102.953C126.953 105.766 126.547 108.203 125.734 110.266C124.953 112.297 123.938 114 122.688 115.375C121.469 116.719 120.109 117.719 118.609 118.375C117.109 119.031 115.641 119.359 114.203 119.359C112.141 119.359 110.219 118.828 108.438 117.766C106.656 116.703 105.109 115.156 103.797 113.125C102.484 111.094 101.453 108.594 100.703 105.625C99.9531 102.656 99.5781 99.25 99.5781 95.4062C99.5781 91.5625 99.9531 88.1562 100.703 85.1875C101.453 82.2188 102.484 79.7188 103.797 77.6875C105.109 75.6562 106.656 74.1094 108.438 73.0469C110.219 71.9844 112.141 71.4531 114.203 71.4531C115.922 71.4531 117.5 71.9219 118.938 72.8594C120.406 73.7656 121.688 75.125 122.781 76.9375C123.875 78.7188 124.75 80.9531 125.406 83.6406C126.094 86.2969 126.516 89.3594 126.672 92.8281L106.844 99.7656C107.25 104.891 108.156 108.625 109.562 110.969C110.969 113.281 112.75 114.438 114.906 114.438C115.938 114.438 116.797 114.25 117.484 113.875C118.203 113.469 118.781 112.953 119.219 112.328C119.688 111.672 120.016 110.953 120.203 110.172C120.422 109.359 120.531 108.531 120.531 107.688C120.531 106.688 120.203 105.703 119.547 104.734C118.922 103.766 117.953 102.938 116.641 102.25L116.688 102.016ZM106.609 95.5938C107.516 95.25 108.641 94.8125 109.984 94.2812C111.328 93.75 113.016 93.0156 115.047 92.0781C116.203 91.5469 117.203 91.0156 118.047 90.4844C118.891 89.9531 119.641 89.5 120.297 89.125C119.984 84.7812 119.312 81.5781 118.281 79.5156C117.281 77.4531 115.922 76.4219 114.203 76.4219C111.797 76.4219 109.922 78.0156 108.578 81.2031C107.266 84.3906 106.609 89.125 106.609 95.4062V95.5938ZM160.609 88.75C160.578 92.4375 160.578 96.0156 160.609 99.4844C160.672 102.953 160.812 106.484 161.031 110.078C161.156 111.984 161.641 113.609 162.484 114.953C163.328 116.266 164.609 117.203 166.328 117.766V118H157.656C156.656 117.562 155.891 116.969 155.359 116.219C154.859 115.469 154.484 114.641 154.234 113.734C154.047 114.078 153.75 114.531 153.344 115.094C152.969 115.656 152.469 116.203 151.844 116.734C151.25 117.234 150.516 117.672 149.641 118.047C148.797 118.453 147.797 118.672 146.641 118.703C144.297 118.734 142.25 118.141 140.5 116.922C138.75 115.672 137.281 113.953 136.094 111.766C134.906 109.547 134.016 106.922 133.422 103.891C132.828 100.859 132.531 97.5625 132.531 94C132.531 90.4688 132.891 87.3125 133.609 84.5312C134.328 81.75 135.328 79.3906 136.609 77.4531C137.922 75.5156 139.469 74.0469 141.25 73.0469C143.062 72.0156 145.047 71.5 147.203 71.5C147.766 71.5 148.375 71.5781 149.031 71.7344C149.688 71.8594 150.344 72.0938 151 72.4375C151.656 72.75 152.266 73.1719 152.828 73.7031C153.422 74.2031 153.906 74.8125 154.281 75.5312C154.281 72.625 154.266 70.125 154.234 68.0312C154.203 65.9375 153.984 64.2188 153.578 62.875C153.203 61.5 152.547 60.4844 151.609 59.8281C150.703 59.1719 149.359 58.8438 147.578 58.8438V58.6094L161.219 54.8594C161.094 55.9844 161 57.5 160.938 59.4062C160.875 61.3125 160.812 63.375 160.75 65.5938C160.719 67.8125 160.688 70.0625 160.656 72.3438C160.656 74.625 160.656 76.7188 160.656 78.625L160.609 88.75ZM147.438 114.438C149.094 114.438 150.562 113.578 151.844 111.859C153.125 110.141 153.844 107.562 154 104.125C154.094 102.562 154.156 101.094 154.188 99.7188C154.25 98.3125 154.281 96.9531 154.281 95.6406C154.312 94.2969 154.328 92.9688 154.328 91.6562C154.359 90.3438 154.375 88.9844 154.375 87.5781C154.375 84.7656 154.141 82.5781 153.672 81.0156C153.203 79.4531 152.641 78.3125 151.984 77.5938C151.359 76.8438 150.703 76.3906 150.016 76.2344C149.359 76.0781 148.828 76 148.422 76C142.516 76 139.562 82 139.562 94C139.562 97.3125 139.75 100.25 140.125 102.812C140.5 105.344 141.031 107.469 141.719 109.188C142.438 110.906 143.266 112.219 144.203 113.125C145.172 114 146.25 114.438 147.438 114.438ZM174.531 93.7656C174.531 90.8594 174.516 88.3906 174.484 86.3594C174.484 84.3281 174.422 82.6406 174.297 81.2969C174.172 79.9219 173.969 78.8438 173.688 78.0625C173.438 77.2812 173.047 76.7031 172.516 76.3281C172.016 75.9219 171.375 75.6719 170.594 75.5781C169.812 75.4844 168.859 75.4375 167.734 75.4375V75.2031L181.375 71.4531C181.031 74.8594 180.844 78.625 180.812 82.75C180.812 86.8438 180.812 91.0938 180.812 95.5C180.812 97.25 180.812 98.7188 180.812 99.9062C180.812 101.094 180.812 102.219 180.812 103.281C180.844 104.344 180.891 105.469 180.953 106.656C181.016 107.812 181.109 109.266 181.234 111.016C181.359 112.703 181.797 114.125 182.547 115.281C183.297 116.406 184.469 117.234 186.062 117.766V118H169.141V117.766C170.734 117.234 171.875 116.359 172.562 115.141C173.25 113.922 173.656 112.484 173.781 110.828C173.844 109.391 173.906 108.141 173.969 107.078C174.062 105.984 174.125 105 174.156 104.125C174.219 103.25 174.266 102.438 174.297 101.688C174.359 100.938 174.406 100.172 174.438 99.3906C174.469 98.6094 174.484 97.7812 174.484 96.9062C174.516 96 174.531 94.9531 174.531 93.7656ZM172.703 60.1094C172.703 58.9219 173.109 57.9219 173.922 57.1094C174.734 56.2656 175.734 55.8438 176.922 55.8438C178.109 55.8438 179.109 56.2656 179.922 57.1094C180.766 57.9219 181.188 58.9219 181.188 60.1094C181.188 61.2969 180.766 62.2969 179.922 63.1094C179.109 63.9219 178.109 64.3281 176.922 64.3281C175.734 64.3281 174.734 63.9219 173.922 63.1094C173.109 62.2969 172.703 61.2969 172.703 60.1094ZM200.219 77.875C201.125 75.875 202.344 74.3125 203.875 73.1875C205.406 72.0625 207.016 71.5 208.703 71.5C209.984 71.5 211.25 71.8594 212.5 72.5781C213.75 73.2656 214.906 74.3594 215.969 75.8594L210.953 84.0625L210.812 83.9688C211 83.4688 211.094 82.7969 211.094 81.9531C211.094 81.3594 211.031 80.7344 210.906 80.0781C210.781 79.4219 210.578 78.8281 210.297 78.2969C210.047 77.7344 209.719 77.2812 209.312 76.9375C208.906 76.5938 208.406 76.4219 207.812 76.4219C207.062 76.4219 206.281 76.7188 205.469 77.3125C204.688 77.875 203.969 78.6875 203.312 79.75C202.656 80.8125 202.109 82.1094 201.672 83.6406C201.234 85.1406 201.016 86.8438 201.016 88.75C201.016 92.8438 201.016 96.8906 201.016 100.891C201.047 104.859 201.188 108.859 201.438 112.891C201.594 115.359 202.734 116.984 204.859 117.766V118H189.625V117.766C191.219 117.422 192.359 116.797 193.047 115.891C193.766 114.953 194.172 113.891 194.266 112.703C194.422 109.609 194.547 106.703 194.641 103.984C194.734 101.234 194.781 98.5469 194.781 95.9219C194.781 91.9531 194.75 88.6562 194.688 86.0312C194.625 83.4062 194.375 81.3125 193.938 79.75C193.531 78.1875 192.859 77.0938 191.922 76.4688C191.016 75.8125 189.703 75.4844 187.984 75.4844V75.25L200.688 71.5C200.438 72.3438 200.297 73.3281 200.266 74.4531C200.234 75.5469 200.219 76.6875 200.219 77.875ZM235.094 102.016L245.359 102.953C245.359 105.766 244.953 108.203 244.141 110.266C243.359 112.297 242.344 114 241.094 115.375C239.875 116.719 238.516 117.719 237.016 118.375C235.516 119.031 234.047 119.359 232.609 119.359C230.547 119.359 228.625 118.828 226.844 117.766C225.062 116.703 223.516 115.156 222.203 113.125C220.891 111.094 219.859 108.594 219.109 105.625C218.359 102.656 217.984 99.25 217.984 95.4062C217.984 91.5625 218.359 88.1562 219.109 85.1875C219.859 82.2188 220.891 79.7188 222.203 77.6875C223.516 75.6562 225.062 74.1094 226.844 73.0469C228.625 71.9844 230.547 71.4531 232.609 71.4531C234.328 71.4531 235.906 71.9219 237.344 72.8594C238.812 73.7656 240.094 75.125 241.188 76.9375C242.281 78.7188 243.156 80.9531 243.812 83.6406C244.5 86.2969 244.922 89.3594 245.078 92.8281L225.25 99.7656C225.656 104.891 226.562 108.625 227.969 110.969C229.375 113.281 231.156 114.438 233.312 114.438C234.344 114.438 235.203 114.25 235.891 113.875C236.609 113.469 237.188 112.953 237.625 112.328C238.094 111.672 238.422 110.953 238.609 110.172C238.828 109.359 238.938 108.531 238.938 107.688C238.938 106.688 238.609 105.703 237.953 104.734C237.328 103.766 236.359 102.938 235.047 102.25L235.094 102.016ZM225.016 95.5938C225.922 95.25 227.047 94.8125 228.391 94.2812C229.734 93.75 231.422 93.0156 233.453 92.0781C234.609 91.5469 235.609 91.0156 236.453 90.4844C237.297 89.9531 238.047 89.5 238.703 89.125C238.391 84.7812 237.719 81.5781 236.688 79.5156C235.688 77.4531 234.328 76.4219 232.609 76.4219C230.203 76.4219 228.328 78.0156 226.984 81.2031C225.672 84.3906 225.016 89.125 225.016 95.4062V95.5938ZM277.188 104.781L279.484 111.156C278.016 113.875 276.25 115.922 274.188 117.297C272.156 118.672 269.875 119.359 267.344 119.359C265 119.359 262.812 118.844 260.781 117.812C258.781 116.75 257.031 115.203 255.531 113.172C254.062 111.141 252.906 108.641 252.062 105.672C251.219 102.703 250.797 99.2969 250.797 95.4531C250.797 91.6094 251.188 88.2031 251.969 85.2344C252.781 82.2656 253.875 79.7656 255.25 77.7344C256.656 75.7031 258.297 74.1562 260.172 73.0938C262.078 72.0312 264.141 71.5 266.359 71.5C268.641 71.5 270.594 71.8594 272.219 72.5781C273.875 73.2656 275.281 74.25 276.438 75.5312C277.594 76.7812 278.547 78.2812 279.297 80.0312C280.078 81.7812 280.75 83.7031 281.312 85.7969L272.172 90.5781L272.031 90.3438C272.656 89.5625 273.109 88.7969 273.391 88.0469C273.672 87.2656 273.812 86.5 273.812 85.75C273.812 84.7812 273.719 83.75 273.531 82.6562C273.344 81.5312 272.984 80.5156 272.453 79.6094C271.953 78.7031 271.266 77.9531 270.391 77.3594C269.516 76.7344 268.391 76.4219 267.016 76.4219C265.703 76.4219 264.484 76.8125 263.359 77.5938C262.234 78.3438 261.25 79.5 260.406 81.0625C259.594 82.625 258.953 84.6094 258.484 87.0156C258.047 89.3906 257.828 92.2031 257.828 95.4531C257.828 101.734 258.703 106.469 260.453 109.656C262.203 112.844 264.641 114.438 267.766 114.438C268.922 114.438 269.984 114.188 270.953 113.688C271.953 113.188 272.844 112.516 273.625 111.672C274.406 110.797 275.078 109.781 275.641 108.625C276.203 107.438 276.656 106.172 277 104.828L277.188 104.781ZM297.953 72.625C299.672 72.625 301.125 72.6094 302.312 72.5781C303.531 72.5156 304.531 72.4531 305.312 72.3906C306.219 72.3281 306.953 72.25 307.516 72.1562L305.641 78.25C305.297 77.9062 304.797 77.5781 304.141 77.2656C303.578 77.0156 302.797 76.7812 301.797 76.5625C300.797 76.3438 299.5 76.2344 297.906 76.2344H294.531C294.5 77.3281 294.484 78.4531 294.484 79.6094C294.484 80.7344 294.484 81.8906 294.484 83.0781C294.484 85.7969 294.484 88.2344 294.484 90.3906C294.516 92.5156 294.531 94.5312 294.531 96.4375C294.562 98.3125 294.578 100.188 294.578 102.062C294.609 103.906 294.625 105.922 294.625 108.109C294.625 110.297 294.984 111.859 295.703 112.797C296.422 113.734 297.234 114.203 298.141 114.203C298.641 114.203 299.141 114.047 299.641 113.734C300.141 113.391 300.594 112.922 301 112.328C301.406 111.703 301.734 110.984 301.984 110.172C302.234 109.328 302.359 108.406 302.359 107.406C302.359 106.594 302.266 105.922 302.078 105.391L302.219 105.297L308.172 115.375C306.141 116.781 304.25 117.781 302.5 118.375C300.781 119 299.172 119.312 297.672 119.312C296.141 119.312 294.766 118.922 293.547 118.141C292.359 117.391 291.344 116.391 290.5 115.141C289.688 113.891 289.062 112.469 288.625 110.875C288.188 109.25 287.969 107.594 287.969 105.906C287.969 104 287.984 102.328 288.016 100.891C288.047 99.4219 288.062 98.0469 288.062 96.7656C288.094 95.4844 288.125 94.2344 288.156 93.0156C288.188 91.7656 288.203 90.3906 288.203 88.8906C288.203 86.1406 288.203 83.7188 288.203 81.625C288.203 79.5 288.188 77.625 288.156 76C287.25 75.9375 286.5 75.875 285.906 75.8125C285.312 75.75 284.844 75.6875 284.5 75.625C284.094 75.5625 283.766 75.5 283.516 75.4375V72.625H288.109C288.047 70.8125 287.969 69.4062 287.875 68.4062C287.781 67.375 287.641 66.6094 287.453 66.1094C287.266 65.5781 287.016 65.25 286.703 65.125C286.422 65 286.062 64.9375 285.625 64.9375V64.7031L296.453 59.5469C295.922 61.5781 295.516 63.6875 295.234 65.875C294.984 68.0312 294.797 70.2812 294.672 72.625H297.953ZM315.344 93.7656C315.344 90.8594 315.328 88.3906 315.297 86.3594C315.297 84.3281 315.234 82.6406 315.109 81.2969C314.984 79.9219 314.781 78.8438 314.5 78.0625C314.25 77.2812 313.859 76.7031 313.328 76.3281C312.828 75.9219 312.188 75.6719 311.406 75.5781C310.625 75.4844 309.672 75.4375 308.547 75.4375V75.2031L322.188 71.4531C321.844 74.8594 321.656 78.625 321.625 82.75C321.625 86.8438 321.625 91.0938 321.625 95.5C321.625 97.25 321.625 98.7188 321.625 99.9062C321.625 101.094 321.625 102.219 321.625 103.281C321.656 104.344 321.703 105.469 321.766 106.656C321.828 107.812 321.922 109.266 322.047 111.016C322.172 112.703 322.609 114.125 323.359 115.281C324.109 116.406 325.281 117.234 326.875 117.766V118H309.953V117.766C311.547 117.234 312.688 116.359 313.375 115.141C314.062 113.922 314.469 112.484 314.594 110.828C314.656 109.391 314.719 108.141 314.781 107.078C314.875 105.984 314.938 105 314.969 104.125C315.031 103.25 315.078 102.438 315.109 101.688C315.172 100.938 315.219 100.172 315.25 99.3906C315.281 98.6094 315.297 97.7812 315.297 96.9062C315.328 96 315.344 94.9531 315.344 93.7656ZM313.516 60.1094C313.516 58.9219 313.922 57.9219 314.734 57.1094C315.547 56.2656 316.547 55.8438 317.734 55.8438C318.922 55.8438 319.922 56.2656 320.734 57.1094C321.578 57.9219 322 58.9219 322 60.1094C322 61.2969 321.578 62.2969 320.734 63.1094C319.922 63.9219 318.922 64.3281 317.734 64.3281C316.547 64.3281 315.547 63.9219 314.734 63.1094C313.922 62.2969 313.516 61.2969 313.516 60.1094ZM360.391 90.25C360.391 92.4375 360.391 94.4531 360.391 96.2969C360.391 98.1094 360.406 99.8906 360.438 101.641C360.469 103.391 360.516 105.172 360.578 106.984C360.641 108.797 360.719 110.766 360.812 112.891C360.906 114.078 361.297 115.094 361.984 115.938C362.672 116.75 363.734 117.359 365.172 117.766V118H350.547V117.766C351.641 117.422 352.422 116.797 352.891 115.891C353.391 114.953 353.688 113.891 353.781 112.703C353.875 109.766 353.938 107.141 353.969 104.828C354.031 102.484 354.062 100.484 354.062 98.8281C354.062 95.5156 354.031 92.4844 353.969 89.7344C353.906 86.9844 353.719 84.6406 353.406 82.7031C353.094 80.7344 352.625 79.2188 352 78.1562C351.406 77.0625 350.547 76.5156 349.422 76.5156C348.391 76.5156 347.422 76.8125 346.516 77.4062C345.609 78 344.812 78.8438 344.125 79.9375C343.469 81 342.938 82.2812 342.531 83.7812C342.125 85.2812 341.922 86.9375 341.922 88.75V94.8438C341.922 97.875 341.953 100.891 342.016 103.891C342.078 106.859 342.188 109.859 342.344 112.891C342.438 114.078 342.75 115.094 343.281 115.938C343.844 116.75 344.672 117.359 345.766 117.766V118H330.531V117.766C332.125 117.422 333.266 116.797 333.953 115.891C334.672 114.953 335.078 113.891 335.172 112.703C335.328 109.609 335.453 106.703 335.547 103.984C335.641 101.234 335.688 98.5469 335.688 95.9219C335.688 92.3281 335.656 89.3438 335.594 86.9688C335.531 84.5938 335.281 82.7031 334.844 81.2969C334.438 79.8594 333.766 78.8438 332.828 78.25C331.922 77.6562 330.609 77.3594 328.891 77.3594V77.125L341.594 71.5C341.344 72.3438 341.203 73.3281 341.172 74.4531C341.141 75.5469 341.125 76.6875 341.125 77.875C341.75 76.5625 342.438 75.5 343.188 74.6875C343.938 73.8438 344.703 73.1875 345.484 72.7188C346.266 72.25 347.031 71.9375 347.781 71.7812C348.562 71.5938 349.281 71.5 349.938 71.5C353.188 71.5 355.734 73.0938 357.578 76.2812C359.453 79.4375 360.391 84.0938 360.391 90.25ZM396.438 117.953C396.438 122.266 396.078 125.859 395.359 128.734C394.672 131.609 393.703 133.922 392.453 135.672C391.234 137.422 389.781 138.656 388.094 139.375C386.438 140.125 384.656 140.5 382.75 140.5C381.625 140.5 380.406 140.266 379.094 139.797C377.812 139.359 376.609 138.625 375.484 137.594C374.391 136.594 373.469 135.281 372.719 133.656C372 132.031 371.641 130.062 371.641 127.75C371.641 127.312 371.656 126.875 371.688 126.438C371.75 126 371.812 125.531 371.875 125.031L382.609 122.688L382.656 122.922C381.156 123.828 380.047 124.875 379.328 126.062C378.641 127.25 378.297 128.484 378.297 129.766C378.297 130.359 378.375 130.969 378.531 131.594C378.688 132.25 378.938 132.844 379.281 133.375C379.625 133.906 380.062 134.344 380.594 134.688C381.125 135.031 381.781 135.203 382.562 135.203C383.125 135.203 383.672 135.156 384.203 135.062C384.766 134.969 385.297 134.734 385.797 134.359C386.297 133.984 386.75 133.391 387.156 132.578C387.562 131.797 387.906 130.703 388.188 129.297C388.5 127.922 388.734 126.172 388.891 124.047C389.078 121.922 389.172 119.344 389.172 116.312C386.922 117.969 384.734 118.797 382.609 118.797C380.609 118.797 378.766 118.297 377.078 117.297C375.391 116.266 373.938 114.781 372.719 112.844C371.5 110.906 370.547 108.547 369.859 105.766C369.203 102.984 368.875 99.8281 368.875 96.2969C368.875 92.7344 369.234 89.4531 369.953 86.4531C370.672 83.4219 371.75 80.8125 373.188 78.625C374.656 76.4062 376.469 74.6875 378.625 73.4688C380.812 72.2188 383.359 71.5938 386.266 71.5938C387.172 71.5938 388.297 71.7031 389.641 71.9219C390.984 72.1094 392.359 72.2344 393.766 72.2969H402.062V72.5312C400.281 73.125 398.984 74.125 398.172 75.5312C397.359 76.9062 396.953 78.5312 396.953 80.4062C396.953 82.0625 396.938 83.9531 396.906 86.0781C396.875 88.2031 396.844 90.4375 396.812 92.7812C396.781 95.125 396.734 97.5 396.672 99.9062C396.641 102.312 396.609 104.625 396.578 106.844C396.547 109.062 396.516 111.141 396.484 113.078C396.453 114.984 396.438 116.609 396.438 117.953ZM389.266 101.547C389.297 97.4844 389.25 93.2969 389.125 88.9844C389.031 84.6406 388.891 80.4531 388.703 76.4219C388.328 76.2656 387.938 76.1406 387.531 76.0469C387.156 75.9219 386.844 75.8594 386.594 75.8594C385 75.8594 383.547 76.3125 382.234 77.2188C380.922 78.0938 379.797 79.3906 378.859 81.1094C377.922 82.8281 377.188 84.9688 376.656 87.5312C376.156 90.0625 375.906 92.9844 375.906 96.2969C375.906 108.297 378.547 114.297 383.828 114.297C384.547 114.297 385.359 114.156 386.266 113.875C387.203 113.562 388.188 113.047 389.219 112.328V111.672L389.266 101.547ZM433.047 72.625C434.766 72.625 436.219 72.6094 437.406 72.5781C438.625 72.5156 439.625 72.4531 440.406 72.3906C441.312 72.3281 442.047 72.25 442.609 72.1562L440.734 78.25C440.391 77.9062 439.891 77.5781 439.234 77.2656C438.672 77.0156 437.891 76.7812 436.891 76.5625C435.891 76.3438 434.594 76.2344 433 76.2344H429.625C429.594 77.3281 429.578 78.4531 429.578 79.6094C429.578 80.7344 429.578 81.8906 429.578 83.0781C429.578 85.7969 429.578 88.2344 429.578 90.3906C429.609 92.5156 429.625 94.5312 429.625 96.4375C429.656 98.3125 429.672 100.188 429.672 102.062C429.703 103.906 429.719 105.922 429.719 108.109C429.719 110.297 430.078 111.859 430.797 112.797C431.516 113.734 432.328 114.203 433.234 114.203C433.734 114.203 434.234 114.047 434.734 113.734C435.234 113.391 435.688 112.922 436.094 112.328C436.5 111.703 436.828 110.984 437.078 110.172C437.328 109.328 437.453 108.406 437.453 107.406C437.453 106.594 437.359 105.922 437.172 105.391L437.312 105.297L443.266 115.375C441.234 116.781 439.344 117.781 437.594 118.375C435.875 119 434.266 119.312 432.766 119.312C431.234 119.312 429.859 118.922 428.641 118.141C427.453 117.391 426.438 116.391 425.594 115.141C424.781 113.891 424.156 112.469 423.719 110.875C423.281 109.25 423.062 107.594 423.062 105.906C423.062 104 423.078 102.328 423.109 100.891C423.141 99.4219 423.156 98.0469 423.156 96.7656C423.188 95.4844 423.219 94.2344 423.25 93.0156C423.281 91.7656 423.297 90.3906 423.297 88.8906C423.297 86.1406 423.297 83.7188 423.297 81.625C423.297 79.5 423.281 77.625 423.25 76C422.344 75.9375 421.594 75.875 421 75.8125C420.406 75.75 419.938 75.6875 419.594 75.625C419.188 75.5625 418.859 75.5 418.609 75.4375V72.625H423.203C423.141 70.8125 423.062 69.4062 422.969 68.4062C422.875 67.375 422.734 66.6094 422.547 66.1094C422.359 65.5781 422.109 65.25 421.797 65.125C421.516 65 421.156 64.9375 420.719 64.9375V64.7031L431.547 59.5469C431.016 61.5781 430.609 63.6875 430.328 65.875C430.078 68.0312 429.891 70.2812 429.766 72.625H433.047ZM452.828 95.4062C452.828 101.688 453.453 106.422 454.703 109.609C455.953 112.797 457.703 114.391 459.953 114.391C462.234 114.391 463.938 112.797 465.062 109.609C466.219 106.422 466.797 101.688 466.797 95.4062C466.797 89.125 466.219 84.4062 465.062 81.25C463.938 78.0938 462.234 76.5156 459.953 76.5156C457.703 76.5156 455.953 78.0938 454.703 81.25C453.453 84.4062 452.828 89.125 452.828 95.4062ZM445.797 95.4062C445.797 91.5625 446.156 88.1562 446.875 85.1875C447.625 82.2188 448.625 79.7188 449.875 77.6875C451.156 75.6562 452.656 74.125 454.375 73.0938C456.094 72.0312 457.953 71.5 459.953 71.5C461.859 71.5 463.656 72.0312 465.344 73.0938C467.031 74.125 468.5 75.6562 469.75 77.6875C471 79.7188 471.984 82.2188 472.703 85.1875C473.453 88.1562 473.828 91.5625 473.828 95.4062C473.828 99.25 473.453 102.656 472.703 105.625C471.984 108.594 471 111.094 469.75 113.125C468.5 115.156 467.031 116.703 465.344 117.766C463.656 118.828 461.859 119.359 459.953 119.359C457.953 119.359 456.094 118.828 454.375 117.766C452.656 116.703 451.156 115.156 449.875 113.125C448.625 111.094 447.625 108.594 446.875 105.625C446.156 102.656 445.797 99.25 445.797 95.4062ZM505.891 114.531C507.672 114.469 509.297 114.344 510.766 114.156C512.266 113.938 513.672 113.516 514.984 112.891C515.891 112.453 516.547 111.797 516.953 110.922C517.391 110.016 517.578 109.016 517.516 107.922H517.656C518.062 109.703 518.406 111.234 518.688 112.516C518.969 113.766 519.203 114.797 519.391 115.609C519.609 116.578 519.781 117.375 519.906 118H493.141V117.766C494.734 117.234 495.953 116.375 496.797 115.188C497.641 113.969 498.141 112.516 498.297 110.828C498.609 105.953 498.797 101.297 498.859 96.8594C498.953 92.3906 499 88.1719 499 84.2031C499 80.7031 498.969 77.2344 498.906 73.7969C498.875 70.3281 498.672 66.7188 498.297 62.9688C498.141 61.2812 497.641 59.8438 496.797 58.6562C495.953 57.4375 494.734 56.5625 493.141 56.0312V55.7969H519.906C519.781 56.4219 519.609 57.2188 519.391 58.1875C519.203 59 518.969 60.0469 518.688 61.3281C518.406 62.5781 518.062 64.0938 517.656 65.875H517.516C517.578 64.7812 517.391 63.7969 516.953 62.9219C516.547 62.0156 515.891 61.3438 514.984 60.9062C513.672 60.2812 512.266 59.875 510.766 59.6875C509.297 59.4688 507.672 59.3281 505.891 59.2656C505.703 63.1406 505.562 66.9844 505.469 70.7969C505.375 74.5781 505.312 78.3594 505.281 82.1406C506.312 82.1406 507.297 82.1406 508.234 82.1406C509.203 82.1406 510.109 82.0938 510.953 82C512.578 81.8438 513.828 81.3594 514.703 80.5469C515.578 79.7344 516.141 78.7344 516.391 77.5469H516.531V90.3906H516.391C516.141 89.2031 515.562 88.2031 514.656 87.3906C513.75 86.5781 512.484 86.0938 510.859 85.9375C510.047 85.8438 509.188 85.7969 508.281 85.7969C507.375 85.7969 506.375 85.7812 505.281 85.75V85.9375C505.281 90.5938 505.328 95.3906 505.422 100.328C505.547 105.234 505.703 109.969 505.891 114.531ZM528.062 117.812L528.625 117.578C529.594 117.141 530.281 116.5 530.688 115.656C531.094 114.781 531.266 113.781 531.203 112.656C530.922 110 530.531 107.484 530.031 105.109C529.531 102.703 529.016 100.25 528.484 97.75C527.922 94.8438 527.297 91.875 526.609 88.8438C525.953 85.7812 525.188 82.5 524.312 79C523.969 77.5938 523.406 76.3594 522.625 75.2969C521.875 74.2344 520.781 73.4844 519.344 73.0469L519.297 72.8594H534.062L534.109 73.0469C532.828 73.4844 531.938 74.2031 531.438 75.2031C530.969 76.2031 530.812 77.4062 530.969 78.8125C531.406 81.9688 531.969 85.1094 532.656 88.2344C533.344 91.3281 534 94.4844 534.625 97.7031C534.875 99.1094 535.141 100.609 535.422 102.203C535.734 103.766 536.047 105.422 536.359 107.172C536.672 105.453 536.969 103.797 537.25 102.203C537.562 100.609 537.844 99.1094 538.094 97.7031C538.719 94.4844 539.281 91.3281 539.781 88.2344C540.312 85.1094 540.797 81.9688 541.234 78.8125C541.391 77.4062 541.219 76.2031 540.719 75.2031C540.25 74.2031 539.375 73.4844 538.094 73.0469L538.141 72.8594H553.141V73.0469C551.672 73.5156 550.562 74.2812 549.812 75.3438C549.062 76.375 548.516 77.5938 548.172 79C547.297 82.5 546.516 85.7812 545.828 88.8438C545.141 91.875 544.531 94.8438 544 97.75C543.438 100.25 542.906 102.703 542.406 105.109C541.906 107.484 541.516 110 541.234 112.656C541.141 113.781 541.297 114.781 541.703 115.656C542.109 116.5 542.797 117.141 543.766 117.578L544.422 117.812L544.469 118H528.016L528.062 117.812ZM571.375 102.016L581.641 102.953C581.641 105.766 581.234 108.203 580.422 110.266C579.641 112.297 578.625 114 577.375 115.375C576.156 116.719 574.797 117.719 573.297 118.375C571.797 119.031 570.328 119.359 568.891 119.359C566.828 119.359 564.906 118.828 563.125 117.766C561.344 116.703 559.797 115.156 558.484 113.125C557.172 111.094 556.141 108.594 555.391 105.625C554.641 102.656 554.266 99.25 554.266 95.4062C554.266 91.5625 554.641 88.1562 555.391 85.1875C556.141 82.2188 557.172 79.7188 558.484 77.6875C559.797 75.6562 561.344 74.1094 563.125 73.0469C564.906 71.9844 566.828 71.4531 568.891 71.4531C570.609 71.4531 572.188 71.9219 573.625 72.8594C575.094 73.7656 576.375 75.125 577.469 76.9375C578.562 78.7188 579.438 80.9531 580.094 83.6406C580.781 86.2969 581.203 89.3594 581.359 92.8281L561.531 99.7656C561.938 104.891 562.844 108.625 564.25 110.969C565.656 113.281 567.438 114.438 569.594 114.438C570.625 114.438 571.484 114.25 572.172 113.875C572.891 113.469 573.469 112.953 573.906 112.328C574.375 111.672 574.703 110.953 574.891 110.172C575.109 109.359 575.219 108.531 575.219 107.688C575.219 106.688 574.891 105.703 574.234 104.734C573.609 103.766 572.641 102.938 571.328 102.25L571.375 102.016ZM561.297 95.5938C562.203 95.25 563.328 94.8125 564.672 94.2812C566.016 93.75 567.703 93.0156 569.734 92.0781C570.891 91.5469 571.891 91.0156 572.734 90.4844C573.578 89.9531 574.328 89.5 574.984 89.125C574.672 84.7812 574 81.5781 572.969 79.5156C571.969 77.4531 570.609 76.4219 568.891 76.4219C566.484 76.4219 564.609 78.0156 563.266 81.2031C561.953 84.3906 561.297 89.125 561.297 95.4062V95.5938ZM616.516 90.25C616.516 92.4375 616.516 94.4531 616.516 96.2969C616.516 98.1094 616.531 99.8906 616.562 101.641C616.594 103.391 616.641 105.172 616.703 106.984C616.766 108.797 616.844 110.766 616.938 112.891C617.031 114.078 617.422 115.094 618.109 115.938C618.797 116.75 619.859 117.359 621.297 117.766V118H606.672V117.766C607.766 117.422 608.547 116.797 609.016 115.891C609.516 114.953 609.812 113.891 609.906 112.703C610 109.766 610.062 107.141 610.094 104.828C610.156 102.484 610.188 100.484 610.188 98.8281C610.188 95.5156 610.156 92.4844 610.094 89.7344C610.031 86.9844 609.844 84.6406 609.531 82.7031C609.219 80.7344 608.75 79.2188 608.125 78.1562C607.531 77.0625 606.672 76.5156 605.547 76.5156C604.516 76.5156 603.547 76.8125 602.641 77.4062C601.734 78 600.938 78.8438 600.25 79.9375C599.594 81 599.062 82.2812 598.656 83.7812C598.25 85.2812 598.047 86.9375 598.047 88.75V94.8438C598.047 97.875 598.078 100.891 598.141 103.891C598.203 106.859 598.312 109.859 598.469 112.891C598.562 114.078 598.875 115.094 599.406 115.938C599.969 116.75 600.797 117.359 601.891 117.766V118H586.656V117.766C588.25 117.422 589.391 116.797 590.078 115.891C590.797 114.953 591.203 113.891 591.297 112.703C591.453 109.609 591.578 106.703 591.672 103.984C591.766 101.234 591.812 98.5469 591.812 95.9219C591.812 92.3281 591.781 89.3438 591.719 86.9688C591.656 84.5938 591.406 82.7031 590.969 81.2969C590.562 79.8594 589.891 78.8438 588.953 78.25C588.047 77.6562 586.734 77.3594 585.016 77.3594V77.125L597.719 71.5C597.469 72.3438 597.328 73.3281 597.297 74.4531C597.266 75.5469 597.25 76.6875 597.25 77.875C597.875 76.5625 598.562 75.5 599.312 74.6875C600.062 73.8438 600.828 73.1875 601.609 72.7188C602.391 72.25 603.156 71.9375 603.906 71.7812C604.688 71.5938 605.406 71.5 606.062 71.5C609.312 71.5 611.859 73.0938 613.703 76.2812C615.578 79.4375 616.516 84.0938 616.516 90.25ZM636.766 72.625C638.484 72.625 639.938 72.6094 641.125 72.5781C642.344 72.5156 643.344 72.4531 644.125 72.3906C645.031 72.3281 645.766 72.25 646.328 72.1562L644.453 78.25C644.109 77.9062 643.609 77.5781 642.953 77.2656C642.391 77.0156 641.609 76.7812 640.609 76.5625C639.609 76.3438 638.312 76.2344 636.719 76.2344H633.344C633.312 77.3281 633.297 78.4531 633.297 79.6094C633.297 80.7344 633.297 81.8906 633.297 83.0781C633.297 85.7969 633.297 88.2344 633.297 90.3906C633.328 92.5156 633.344 94.5312 633.344 96.4375C633.375 98.3125 633.391 100.188 633.391 102.062C633.422 103.906 633.438 105.922 633.438 108.109C633.438 110.297 633.797 111.859 634.516 112.797C635.234 113.734 636.047 114.203 636.953 114.203C637.453 114.203 637.953 114.047 638.453 113.734C638.953 113.391 639.406 112.922 639.812 112.328C640.219 111.703 640.547 110.984 640.797 110.172C641.047 109.328 641.172 108.406 641.172 107.406C641.172 106.594 641.078 105.922 640.891 105.391L641.031 105.297L646.984 115.375C644.953 116.781 643.062 117.781 641.312 118.375C639.594 119 637.984 119.312 636.484 119.312C634.953 119.312 633.578 118.922 632.359 118.141C631.172 117.391 630.156 116.391 629.312 115.141C628.5 113.891 627.875 112.469 627.438 110.875C627 109.25 626.781 107.594 626.781 105.906C626.781 104 626.797 102.328 626.828 100.891C626.859 99.4219 626.875 98.0469 626.875 96.7656C626.906 95.4844 626.938 94.2344 626.969 93.0156C627 91.7656 627.016 90.3906 627.016 88.8906C627.016 86.1406 627.016 83.7188 627.016 81.625C627.016 79.5 627 77.625 626.969 76C626.062 75.9375 625.312 75.875 624.719 75.8125C624.125 75.75 623.656 75.6875 623.312 75.625C622.906 75.5625 622.578 75.5 622.328 75.4375V72.625H626.922C626.859 70.8125 626.781 69.4062 626.688 68.4062C626.594 67.375 626.453 66.6094 626.266 66.1094C626.078 65.5781 625.828 65.25 625.516 65.125C625.234 65 624.875 64.9375 624.438 64.9375V64.7031L635.266 59.5469C634.734 61.5781 634.328 63.6875 634.047 65.875C633.797 68.0312 633.609 70.2812 633.484 72.625H636.766ZM647.406 118V117.766C649.188 117.172 650.438 116.188 651.156 114.812C651.906 113.406 652.359 111.766 652.516 109.891C652.547 105.047 652.641 100.547 652.797 96.3906C652.953 92.2031 653.031 88.1406 653.031 84.2031C653.031 80.2031 653.016 76.8125 652.984 74.0312C652.984 71.2188 652.922 68.875 652.797 67C652.672 65.125 652.469 63.6406 652.188 62.5469C651.938 61.4531 651.547 60.6406 651.016 60.1094C650.516 59.5469 649.875 59.2031 649.094 59.0781C648.312 58.9219 647.359 58.8438 646.234 58.8438V58.6094L659.875 54.8594C659.781 55.7656 659.703 56.9531 659.641 58.4219C659.578 59.8594 659.516 61.4375 659.453 63.1562C659.422 64.875 659.391 66.6719 659.359 68.5469C659.328 70.4219 659.312 72.25 659.312 74.0312C661.938 72.3438 664.453 71.5 666.859 71.5C669.203 71.5 671.359 72.0156 673.328 73.0469C675.297 74.0469 676.984 75.5156 678.391 77.4531C679.828 79.3906 680.938 81.75 681.719 84.5312C682.531 87.3125 682.938 90.4688 682.938 94C682.938 97.5625 682.609 100.859 681.953 103.891C681.297 106.891 680.328 109.5 679.047 111.719C677.766 113.906 676.141 115.625 674.172 116.875C672.234 118.094 669.984 118.703 667.422 118.703C666.672 118.703 665.781 118.656 664.75 118.562C663.75 118.5 662.656 118.422 661.469 118.328C660.312 118.266 659.094 118.188 657.812 118.094C656.562 118.031 655.328 118 654.109 118H647.406ZM659.266 88.75C659.234 92.7812 659.266 96.9688 659.359 101.312C659.453 105.656 659.594 109.859 659.781 113.922C661.094 114.078 662.312 114.203 663.438 114.297C664.562 114.391 665.625 114.438 666.625 114.438C668 114.438 669.25 114 670.375 113.125C671.531 112.219 672.516 110.906 673.328 109.188C674.141 107.469 674.766 105.344 675.203 102.812C675.672 100.25 675.906 97.3125 675.906 94C675.906 88 675.062 83.5 673.375 80.5C671.719 77.5 669.141 76 665.641 76C664.734 76 663.75 76.1562 662.688 76.4688C661.656 76.7812 660.531 77.2969 659.312 78.0156V78.625L659.266 88.75ZM698.219 77.875C699.125 75.875 700.344 74.3125 701.875 73.1875C703.406 72.0625 705.016 71.5 706.703 71.5C707.984 71.5 709.25 71.8594 710.5 72.5781C711.75 73.2656 712.906 74.3594 713.969 75.8594L708.953 84.0625L708.812 83.9688C709 83.4688 709.094 82.7969 709.094 81.9531C709.094 81.3594 709.031 80.7344 708.906 80.0781C708.781 79.4219 708.578 78.8281 708.297 78.2969C708.047 77.7344 707.719 77.2812 707.312 76.9375C706.906 76.5938 706.406 76.4219 705.812 76.4219C705.062 76.4219 704.281 76.7188 703.469 77.3125C702.688 77.875 701.969 78.6875 701.312 79.75C700.656 80.8125 700.109 82.1094 699.672 83.6406C699.234 85.1406 699.016 86.8438 699.016 88.75C699.016 92.8438 699.016 96.8906 699.016 100.891C699.047 104.859 699.188 108.859 699.438 112.891C699.594 115.359 700.734 116.984 702.859 117.766V118H687.625V117.766C689.219 117.422 690.359 116.797 691.047 115.891C691.766 114.953 692.172 113.891 692.266 112.703C692.422 109.609 692.547 106.703 692.641 103.984C692.734 101.234 692.781 98.5469 692.781 95.9219C692.781 91.9531 692.75 88.6562 692.688 86.0312C692.625 83.4062 692.375 81.3125 691.938 79.75C691.531 78.1875 690.859 77.0938 689.922 76.4688C689.016 75.8125 687.703 75.4844 685.984 75.4844V75.25L698.688 71.5C698.438 72.3438 698.297 73.3281 698.266 74.4531C698.234 75.5469 698.219 76.6875 698.219 77.875ZM721.469 93.7656C721.469 90.8594 721.453 88.3906 721.422 86.3594C721.422 84.3281 721.359 82.6406 721.234 81.2969C721.109 79.9219 720.906 78.8438 720.625 78.0625C720.375 77.2812 719.984 76.7031 719.453 76.3281C718.953 75.9219 718.312 75.6719 717.531 75.5781C716.75 75.4844 715.797 75.4375 714.672 75.4375V75.2031L728.312 71.4531C727.969 74.8594 727.781 78.625 727.75 82.75C727.75 86.8438 727.75 91.0938 727.75 95.5C727.75 97.25 727.75 98.7188 727.75 99.9062C727.75 101.094 727.75 102.219 727.75 103.281C727.781 104.344 727.828 105.469 727.891 106.656C727.953 107.812 728.047 109.266 728.172 111.016C728.297 112.703 728.734 114.125 729.484 115.281C730.234 116.406 731.406 117.234 733 117.766V118H716.078V117.766C717.672 117.234 718.812 116.359 719.5 115.141C720.188 113.922 720.594 112.484 720.719 110.828C720.781 109.391 720.844 108.141 720.906 107.078C721 105.984 721.062 105 721.094 104.125C721.156 103.25 721.203 102.438 721.234 101.688C721.297 100.938 721.344 100.172 721.375 99.3906C721.406 98.6094 721.422 97.7812 721.422 96.9062C721.453 96 721.469 94.9531 721.469 93.7656ZM719.641 60.1094C719.641 58.9219 720.047 57.9219 720.859 57.1094C721.672 56.2656 722.672 55.8438 723.859 55.8438C725.047 55.8438 726.047 56.2656 726.859 57.1094C727.703 57.9219 728.125 58.9219 728.125 60.1094C728.125 61.2969 727.703 62.2969 726.859 63.1094C726.047 63.9219 725.047 64.3281 723.859 64.3281C722.672 64.3281 721.672 63.9219 720.859 63.1094C720.047 62.2969 719.641 61.2969 719.641 60.1094ZM749.266 72.625C750.984 72.625 752.438 72.6094 753.625 72.5781C754.844 72.5156 755.844 72.4531 756.625 72.3906C757.531 72.3281 758.266 72.25 758.828 72.1562L756.953 78.25C756.609 77.9062 756.109 77.5781 755.453 77.2656C754.891 77.0156 754.109 76.7812 753.109 76.5625C752.109 76.3438 750.812 76.2344 749.219 76.2344H745.844C745.812 77.3281 745.797 78.4531 745.797 79.6094C745.797 80.7344 745.797 81.8906 745.797 83.0781C745.797 85.7969 745.797 88.2344 745.797 90.3906C745.828 92.5156 745.844 94.5312 745.844 96.4375C745.875 98.3125 745.891 100.188 745.891 102.062C745.922 103.906 745.938 105.922 745.938 108.109C745.938 110.297 746.297 111.859 747.016 112.797C747.734 113.734 748.547 114.203 749.453 114.203C749.953 114.203 750.453 114.047 750.953 113.734C751.453 113.391 751.906 112.922 752.312 112.328C752.719 111.703 753.047 110.984 753.297 110.172C753.547 109.328 753.672 108.406 753.672 107.406C753.672 106.594 753.578 105.922 753.391 105.391L753.531 105.297L759.484 115.375C757.453 116.781 755.562 117.781 753.812 118.375C752.094 119 750.484 119.312 748.984 119.312C747.453 119.312 746.078 118.922 744.859 118.141C743.672 117.391 742.656 116.391 741.812 115.141C741 113.891 740.375 112.469 739.938 110.875C739.5 109.25 739.281 107.594 739.281 105.906C739.281 104 739.297 102.328 739.328 100.891C739.359 99.4219 739.375 98.0469 739.375 96.7656C739.406 95.4844 739.438 94.2344 739.469 93.0156C739.5 91.7656 739.516 90.3906 739.516 88.8906C739.516 86.1406 739.516 83.7188 739.516 81.625C739.516 79.5 739.5 77.625 739.469 76C738.562 75.9375 737.812 75.875 737.219 75.8125C736.625 75.75 736.156 75.6875 735.812 75.625C735.406 75.5625 735.078 75.5 734.828 75.4375V72.625H739.422C739.359 70.8125 739.281 69.4062 739.188 68.4062C739.094 67.375 738.953 66.6094 738.766 66.1094C738.578 65.5781 738.328 65.25 738.016 65.125C737.734 65 737.375 64.9375 736.938 64.9375V64.7031L747.766 59.5469C747.234 61.5781 746.828 63.6875 746.547 65.875C746.297 68.0312 746.109 70.2812 745.984 72.625H749.266ZM779.125 102.016L789.391 102.953C789.391 105.766 788.984 108.203 788.172 110.266C787.391 112.297 786.375 114 785.125 115.375C783.906 116.719 782.547 117.719 781.047 118.375C779.547 119.031 778.078 119.359 776.641 119.359C774.578 119.359 772.656 118.828 770.875 117.766C769.094 116.703 767.547 115.156 766.234 113.125C764.922 111.094 763.891 108.594 763.141 105.625C762.391 102.656 762.016 99.25 762.016 95.4062C762.016 91.5625 762.391 88.1562 763.141 85.1875C763.891 82.2188 764.922 79.7188 766.234 77.6875C767.547 75.6562 769.094 74.1094 770.875 73.0469C772.656 71.9844 774.578 71.4531 776.641 71.4531C778.359 71.4531 779.938 71.9219 781.375 72.8594C782.844 73.7656 784.125 75.125 785.219 76.9375C786.312 78.7188 787.188 80.9531 787.844 83.6406C788.531 86.2969 788.953 89.3594 789.109 92.8281L769.281 99.7656C769.688 104.891 770.594 108.625 772 110.969C773.406 113.281 775.188 114.438 777.344 114.438C778.375 114.438 779.234 114.25 779.922 113.875C780.641 113.469 781.219 112.953 781.656 112.328C782.125 111.672 782.453 110.953 782.641 110.172C782.859 109.359 782.969 108.531 782.969 107.688C782.969 106.688 782.641 105.703 781.984 104.734C781.359 103.766 780.391 102.938 779.078 102.25L779.125 102.016ZM769.047 95.5938C769.953 95.25 771.078 94.8125 772.422 94.2812C773.766 93.75 775.453 93.0156 777.484 92.0781C778.641 91.5469 779.641 91.0156 780.484 90.4844C781.328 89.9531 782.078 89.5 782.734 89.125C782.422 84.7812 781.75 81.5781 780.719 79.5156C779.719 77.4531 778.359 76.4219 776.641 76.4219C774.234 76.4219 772.359 78.0156 771.016 81.2031C769.703 84.3906 769.047 89.125 769.047 95.4062V95.5938Z" fill="#EEDFC5"/>
</g>
</g>
<defs>
<filter id="filter0_d_141_16" x="0" y="0" width="874" height="191" filterUnits="userSpaceOnUse" color-interpolation-filters="sRGB">
<feFlood flood-opacity="0" result="BackgroundImageFix"/>
<feColorMatrix in="SourceAlpha" type="matrix" values="0 0 0 0 0 0 0 0 0 0 0 0 0 0 0 0 0 0 127 0" result="hardAlpha"/>
<feOffset dx="10" dy="10"/>
<feGaussianBlur stdDeviation="10"/>
<feComposite in2="hardAlpha" operator="out"/>
<feColorMatrix type="matrix" values="0 0 0 0 0 0 0 0 0 0 0 0 0 0 0 0 0 0 0.3 0"/>
<feBlend mode="normal" in2="BackgroundImageFix" result="effect1_dropShadow_141_16"/>
<feBlend mode="normal" in="SourceGraphic" in2="effect1_dropShadow_141_16" result="shape"/>
</filter>
<filter id="filter1_d_141_16" x="24.2812" y="14.8594" width="805.109" height="165.641" filterUnits="userSpaceOnUse" color-interpolation-filters="sRGB">
<feFlood flood-opacity="0" result="BackgroundImageFix"/>
<feColorMatrix in="SourceAlpha" type="matrix" values="0 0 0 0 0 0 0 0 0 0 0 0 0 0 0 0 0 0 127 0" result="hardAlpha"/>
<feOffset/>
<feGaussianBlur stdDeviation="20"/>
<feComposite in2="hardAlpha" operator="out"/>
<feColorMatrix type="matrix" values="0 0 0 0 0 0 0 0 0 0 0 0 0 0 0 0 0 0 1 0"/>
<feBlend mode="normal" in2="BackgroundImageFix" result="effect1_dropShadow_141_16"/>
<feBlend mode="normal" in="SourceGraphic" in2="effect1_dropShadow_141_16" result="shape"/>
</filter>
</defs>
</svg>
