<svg width="1440" height="681" viewBox="0 0 1440 681" fill="none" xmlns="http://www.w3.org/2000/svg">
<g clip-path="url(#clip0_62_3443)">
<rect width="1440" height="680" transform="translate(0 0.600098)" fill="url(#paint0_linear_62_3443)"/>
<g opacity="0.1" clip-path="url(#clip1_62_3443)">
<mask id="mask0_62_3443" style="mask-type:luminance" maskUnits="userSpaceOnUse" x="87" y="-421" width="1588" height="2068">
<path d="M833.076 1646.21L87 1276.37L928.096 -420.337L1674.17 -50.4897L833.076 1646.21Z" fill="white"/>
</mask>
<g mask="url(#mask0_62_3443)">
<path d="M1512.9 -130.436C1489.13 -104.477 1463.48 -80.2098 1436.14 -57.8083C1232.18 109.5 946.41 166.803 809.137 194.323C747.35 206.715 713.295 213.531 720.008 222.152C731.699 237.117 852.985 235.909 993.35 234.483C1163.28 232.773 1355.9 230.84 1380.18 258.786C1403.67 285.821 1256.8 327.286 1070.85 379.782C911.378 424.826 712.912 480.838 571.264 543.298C493.619 577.495 440.603 609.928 409.142 642.412C391.806 660.303 381.248 678.326 377.77 695.907C374.036 714.581 378.212 733.404 390.146 751.849C401.864 769.915 421.17 787.829 447.622 805.146C471.417 820.696 500.847 835.942 537.731 851.758C605.886 880.973 687.577 906.951 766.486 932.028C907.178 976.751 1040.07 1019 1068.77 1071.55C1076.9 1086.38 1075.95 1100.95 1065.98 1114.8C1056.47 1128.03 1038.47 1140.95 1012.47 1153.24C964.556 1175.96 887.593 1197.3 783.76 1216.72C627.52 1245.94 404.987 1271.76 121.622 1293.53L122.562 1294C405.674 1272.22 628.05 1246.42 784.24 1217.2C888.116 1197.77 965.109 1176.41 1013.11 1153.7C1039.12 1141.39 1057.14 1128.42 1066.67 1115.15C1076.71 1101.22 1077.64 1086.55 1069.45 1071.56C1040.54 1018.67 907.443 976.357 766.471 931.542C687.558 906.453 605.954 880.519 537.839 851.342C460.875 818.351 412.743 785.782 390.763 751.836C367.737 716.226 374.115 679.548 409.717 642.781C441.163 610.327 494.164 577.925 571.735 543.718C713.396 481.312 911.841 425.262 1071.31 380.252C1166.24 353.45 1248.26 330.32 1305.12 310.013C1367.71 287.673 1391.72 271.365 1380.7 258.703C1369.68 246.041 1324.14 238.256 1241.51 235.035C1169.08 232.209 1079.56 233.118 992.96 233.98C858.75 235.36 731.898 236.615 720.637 222.116C714.246 213.937 750.147 206.713 809.597 194.823C879.954 180.691 986.386 159.403 1099.9 120.82C1159.34 100.856 1217.07 76.7333 1272.66 48.6373C1334.03 17.2786 1389.24 -18.3922 1436.78 -57.3886C1464.14 -79.8037 1489.8 -104.084 1513.59 -130.057L1512.9 -130.436ZM1498.47 -137.589C1474.58 -111.855 1448.9 -87.7483 1421.61 -65.4265C1347.36 -4.46626 1255.48 48.8697 1148.51 93.1175C1049.16 134.238 955.402 160.083 893.464 175.92C863.728 183.534 837.305 189.61 813.988 194.963C760.423 207.274 728.089 214.689 735.25 223.439C749.236 240.545 877.413 241.702 1013.12 242.93C1082.9 243.558 1155.05 244.215 1216.71 247.011C1264.58 249.154 1298.83 251.982 1324.57 255.826C1355.16 260.374 1372.88 266.379 1378.76 274.175C1388.42 286.978 1365.59 302.868 1306.91 324.123C1253.47 343.507 1176.37 365.445 1087.12 390.851C951.662 429.414 798.096 473.098 668.248 524.346C444.757 611.696 360.133 692.222 409.507 770.485C430.928 804.388 477.381 837.045 551.524 870.327C617.074 899.753 695.372 925.962 771.099 951.301C839.779 974.292 904.653 996.006 956.479 1018.8C984.301 1031.03 1005.9 1042.49 1022.53 1053.85C1041.12 1066.55 1053.16 1078.85 1059.33 1091.45C1066.58 1106.2 1064.97 1120.53 1054.58 1134.15C1044.74 1147.1 1026.65 1159.72 1000.88 1171.67C953.362 1193.69 877.8 1214.27 776.326 1232.83C687.122 1249.13 575.558 1264.31 444.753 1277.91C354.973 1287.29 253.844 1296.14 143.315 1304.28L142.248 1303.75C412.618 1283.79 625.535 1259.8 775.877 1232.31C877.312 1213.77 952.788 1193.18 1000.31 1171.2C1026.03 1159.29 1044.06 1146.7 1053.9 1133.78C1064.2 1120.26 1065.8 1106.01 1058.64 1091.41C1033.24 1039.56 905.932 996.94 771.134 951.845C695.376 926.49 617.046 900.265 551.409 870.796C515.909 854.868 487.501 839.528 464.549 823.908C438.93 806.516 420.221 788.531 408.835 770.508C394.945 748.503 391.665 725.986 399.033 703.557C405.905 682.703 422.177 661.318 447.442 639.981C492.045 602.336 564.088 564.348 667.674 523.836C797.617 472.617 951.119 428.882 1086.63 390.342C1260.97 340.685 1398.61 301.503 1378.08 274.233C1364.72 256.517 1285.01 250.695 1217.03 247.593C1155.41 244.798 1083.24 244.148 1013.47 243.508C944.236 242.862 878.779 242.323 828.123 239.689C770.933 236.735 741.223 231.608 734.623 223.531C727.044 214.274 757.75 207.225 813.487 194.424C836.805 189.09 863.224 183.003 892.952 175.384C1039.04 137.995 1252.68 72.2193 1420.92 -65.9344C1448.16 -88.2498 1473.8 -112.336 1497.66 -138.038L1498.47 -137.589ZM1483.29 -145.115C1459.32 -119.636 1433.68 -95.6857 1406.54 -73.4021C1243.2 60.7089 1037.42 131.92 896.861 173.774C868.135 182.331 842.679 189.017 820.21 194.903C771.45 207.71 742.018 215.447 749.94 224.827C757.391 233.626 788.663 240.052 845.334 244.373C896.468 248.285 961.51 250.177 1030.37 252.188C1096.37 254.094 1164.65 256.088 1222.4 260.016C1269.88 263.253 1301.79 266.524 1325.87 270.63C1355.07 275.601 1371.75 281.848 1376.82 289.711C1385.26 302.796 1363.11 318.506 1307.1 339.149C1256.05 358.016 1182.53 379.106 1097.31 403.541C960.943 442.705 806.377 487.077 676.351 540.77C576.314 582.065 506.978 620.57 464.354 658.473C414.406 702.871 402.287 746.84 428.359 789.234C449.219 823.037 493.979 855.813 565.221 889.346C628.174 918.986 703.122 945.44 775.604 971.029C841.431 994.275 903.614 1016.21 952.918 1039.07C979.337 1051.31 999.824 1062.79 1015.43 1074.1C1032.89 1086.75 1043.99 1098.96 1049.37 1111.42C1055.61 1125.89 1053.34 1139.97 1042.62 1153.27C1032.42 1165.89 1014.31 1178.18 988.787 1189.75C941.719 1211.1 867.615 1230.85 768.551 1248.53C681.482 1264.05 572.84 1278.36 445.636 1291.06C361.521 1299.47 267.149 1307.37 164.202 1314.64L163.048 1314.07C422.921 1295.8 621.372 1274.05 767.962 1247.91C866.996 1230.25 941.076 1210.49 988.067 1189.18C1013.54 1177.63 1031.62 1165.39 1041.77 1152.79C1052.42 1139.6 1054.68 1125.65 1048.49 1111.32C1038.4 1087.99 1008 1065.2 952.703 1039.56C903.47 1016.74 841.342 994.813 775.535 971.586C703.028 945.966 628.022 919.511 565.01 889.851C530.905 873.789 503.57 858.371 481.452 842.695C456.777 825.227 438.657 807.225 427.542 789.233C413.962 767.137 410.578 744.512 417.455 721.98C423.9 701.036 439.378 679.484 463.538 657.974C506.215 620.004 575.575 581.53 675.65 540.197C805.691 486.474 960.313 442.111 1096.7 402.91C1262.8 355.216 1394 317.537 1376.03 289.668C1364.99 272.565 1295.85 265.593 1222.76 260.617C1165.02 256.686 1096.74 254.688 1030.74 252.767C961.847 250.748 896.817 248.872 845.608 244.931C787.673 240.5 757.02 234.118 749.222 224.884C740.815 214.973 768.795 207.623 819.597 194.271C842.043 188.374 867.511 181.684 896.225 173.131C1036.74 131.29 1242.45 60.1468 1405.72 -73.9766C1432.83 -96.2336 1458.43 -120.151 1482.38 -145.592L1483.29 -145.115ZM1468.17 -152.609C1444.07 -127.409 1418.45 -103.639 1391.41 -81.4166C1236.08 46.2931 1047.34 120.902 900.292 171.599C873.073 180.987 847.872 188.551 827.63 194.631C782.924 208.057 755.922 216.155 764.667 226.158C773.412 236.162 805.174 243.742 862.119 249.597C913.315 254.854 977.461 258.075 1045.42 261.495C1108.44 264.665 1173.62 267.929 1228.19 272.991C1312.21 280.793 1366.07 288.9 1374.93 305.21C1382.18 318.554 1360.69 334.069 1307.32 354.047C1258.62 372.263 1188.59 392.507 1107.5 415.959C976.942 453.705 814.458 500.684 684.42 557.14C587.964 599.037 521.261 638.03 480.472 676.383C432.917 721.095 421.719 765.351 447.174 807.918C467.446 841.656 510.493 874.473 578.775 908.237C639.083 938.068 710.645 964.759 779.859 990.566C842.887 1014.08 902.416 1036.3 949.257 1059.22C974.373 1071.53 993.687 1082.99 1008.29 1094.28C1024.6 1106.88 1034.76 1119 1039.34 1131.32C1044.63 1145.54 1041.73 1159.34 1030.63 1172.29C1020.09 1184.6 1001.92 1196.54 976.642 1207.72C930.053 1228.36 857.4 1247.34 760.719 1264.13C620.257 1288.55 431.362 1308.56 185.255 1325.07L183.959 1324.43C430.39 1307.92 619.499 1287.88 760.075 1263.49C856.698 1246.69 929.32 1227.73 975.827 1207.14C1001.06 1195.97 1019.16 1184.07 1029.62 1171.8C1040.6 1158.92 1043.52 1145.28 1038.3 1131.23C1029.71 1108.2 1001.32 1085.47 948.899 1059.79C902.164 1036.89 842.667 1014.7 779.667 991.212C710.436 965.34 638.78 938.659 578.409 908.816C509.835 874.907 466.581 841.912 446.171 807.956C432.901 785.77 429.402 763.041 435.78 740.384C441.716 719.272 456.426 697.564 479.488 675.886C520.315 637.495 587.064 598.469 683.564 556.565C813.616 500.079 976.12 453.119 1106.72 415.328C1264.59 369.705 1389.4 333.639 1373.96 305.206C1369.82 297.657 1354.6 291.445 1327.3 286.131C1304.98 281.805 1275.42 278.096 1228.44 273.728C1173.88 268.612 1108.75 265.364 1045.75 262.226C910.993 255.486 783.724 249.082 763.914 226.348C754.619 215.725 780.329 208.029 826.956 194.024C847.198 187.944 872.388 180.385 899.602 171.004C1046.58 120.252 1235.29 45.6736 1390.56 -81.9915C1417.55 -104.183 1443.15 -127.92 1467.21 -153.083L1468.17 -152.609ZM1453.01 -160.123C1428.81 -135.192 1403.2 -111.59 1376.29 -89.4197C1306.32 -31.8894 1221.71 22.2647 1124.84 71.4852C1043.03 113.077 967.755 143.842 903.614 169.426C878.263 179.534 854.688 187.631 835.721 194.137C794.555 208.267 769.708 216.785 779.262 227.499C789.12 238.534 821.449 247.474 878.119 254.816C928.99 261.423 994.805 266.184 1058.45 270.798C1119.1 275.188 1181.83 279.735 1233.77 285.933C1267.73 289.983 1302.73 294.531 1328.32 300.191C1355.11 306.104 1369.25 312.615 1372.87 320.695C1378.92 334.301 1357.99 349.696 1306.93 369.094C1260.3 386.781 1193.49 406.236 1116.07 428.738C985.021 466.879 821.856 514.318 692.376 573.462C599.483 615.878 535.44 655.402 496.467 694.223C451.275 739.252 440.954 783.765 465.855 826.536C485.55 860.166 526.844 893.024 592.107 927C649.743 956.979 717.88 983.906 783.774 1009.92C844.073 1033.71 901.015 1056.21 945.401 1079.24C969.233 1091.61 987.411 1103.08 1001.02 1114.32C1016.17 1126.94 1025.37 1139.01 1029.17 1151.22C1033.49 1165.17 1029.9 1178.65 1018.5 1191.29C1007.63 1203.28 989.471 1214.89 964.426 1225.71C918.306 1245.66 847.084 1263.82 752.817 1279.78C618.528 1302.49 439.068 1320.82 206.474 1335.59L205.059 1334.89C438.064 1320.12 617.734 1301.77 752.164 1279.05C846.4 1263.14 917.54 1244.96 963.617 1225.04C988.592 1214.24 1006.73 1202.69 1017.53 1190.71C1028.87 1178.18 1032.41 1164.82 1028.15 1151.03C1021.08 1128.22 994.688 1105.6 945.074 1079.82C900.779 1056.83 843.885 1034.35 783.637 1010.59C717.688 984.552 649.5 957.629 591.776 927.587C526.209 893.451 484.677 860.418 464.867 826.543C451.931 804.279 448.308 781.423 454.211 758.671C459.672 737.427 473.615 715.555 495.532 693.665C534.54 654.814 598.66 615.273 691.568 572.808C821.082 513.596 984.262 466.146 1115.37 428.014C1192.74 405.469 1259.56 386.037 1306.14 368.384C1356.93 349.107 1377.81 333.931 1371.88 320.593C1364.29 303.596 1302.39 294.864 1234.12 286.705C1182.2 280.488 1119.47 275.945 1058.88 271.538C926.255 261.935 801.027 252.883 778.417 227.615C768.289 216.269 792.001 208.156 834.938 193.373C853.905 186.886 877.445 178.781 902.784 168.677C1009.91 125.957 1209.3 46.438 1375.31 -90.1294C1402.17 -112.271 1427.74 -135.833 1451.91 -160.717L1453.01 -160.123ZM1437.9 -167.618C1416.42 -145.884 1391.03 -122.01 1361.16 -97.4381C1293.62 -41.7606 1216.02 9.8713 1123.96 60.4716C1046.17 103.241 974.493 136.248 916.904 162.753L907.038 167.304C883.8 178.018 862.032 186.598 844.523 193.479C806.525 208.429 783.584 217.469 793.991 228.907C818.611 255.959 946.487 268.229 1070.15 280.092C1128.99 285.748 1189.79 291.537 1239.53 298.962C1296.87 307.491 1345.8 315.556 1363.81 328.029C1365.5 329.147 1367.03 330.478 1368.36 331.986C1369.5 333.249 1370.38 334.703 1370.96 336.27C1375.89 350.17 1355.34 365.438 1306.28 384.324C1261.5 401.545 1197.57 420.259 1123.54 441.911C992.281 480.295 828.948 528.073 700.417 589.931C611.189 632.896 549.708 672.892 512.535 712.212C469.707 757.559 460.314 802.344 484.626 845.329C503.724 878.794 543.212 911.64 605.448 945.824C660.337 975.962 725.025 1003.05 787.567 1029.25C845.167 1053.39 899.568 1076.17 941.57 1099.36C964.103 1111.79 981.188 1123.3 993.797 1134.55C1007.89 1147.11 1016.18 1159.09 1019.15 1171.19C1022.5 1184.87 1018.25 1198.05 1006.52 1210.37C995.358 1222.06 977.109 1233.33 952.34 1243.75C906.65 1263 836.938 1280.4 745.026 1295.45C616.881 1316.43 446.975 1333.13 227.883 1346.21L226.302 1345.42C445.84 1332.36 616 1315.63 744.3 1294.63C836.146 1279.59 905.827 1262.22 951.412 1242.97C1002.05 1221.61 1024.44 1197.37 1017.95 1170.91C1012.4 1148.33 987.999 1125.77 941.126 1099.9C899.23 1076.77 844.876 1053.99 787.336 1029.9C724.73 1003.67 659.995 976.553 604.988 946.356C542.479 912.028 502.739 878.954 483.51 845.236C470.857 822.859 467.161 799.91 472.503 777.021C477.514 755.592 490.618 733.566 511.43 711.523C548.66 672.166 610.128 632.117 699.445 589.13C828.023 527.258 991.403 479.466 1122.67 441.077C1196.68 419.425 1260.61 400.727 1305.36 383.513C1354.14 364.748 1374.61 349.668 1369.78 336.039C1369.25 334.591 1368.43 333.249 1367.38 332.089C1366.14 330.697 1364.72 329.469 1363.16 328.44C1345.57 316.251 1296.85 308.223 1239.77 299.747C1190.06 292.353 1129.26 286.523 1070.47 280.879C1008.37 274.907 944.213 268.763 893.917 260.817C836.572 251.761 804.513 241.66 793.033 229.052C782.001 216.929 803.873 208.316 843.559 192.663C861.045 185.77 882.804 177.205 906.039 166.499L915.891 161.997C1031.77 108.698 1206.89 28.0296 1360.09 -98.1074C1389.89 -122.639 1415.24 -146.468 1436.69 -168.168L1437.9 -167.618ZM1422.77 -175.116C1400.73 -153.194 1375.42 -129.671 1346.05 -105.441C1207.79 8.42715 1051.03 90.9727 947.285 145.595C934.206 152.476 921.899 158.979 910.363 165.104C889.406 176.301 869.561 185.234 853.612 192.503C818.486 208.408 797.305 218.011 808.601 230.256C835.727 259.582 960.161 274.623 1080.49 289.168C1137.88 296.107 1197.23 303.285 1245.17 311.931C1303.26 322.415 1345.65 330.77 1362.05 342.946C1363.76 344.169 1365.29 345.616 1366.6 347.244C1367.69 348.586 1368.49 350.127 1368.94 351.767C1372.73 365.968 1352.49 381.154 1305.23 399.563C1262.08 416.361 1200.83 434.376 1129.89 455.233C998.777 493.783 835.578 541.768 708.373 606.272C622.644 649.705 563.812 690.217 528.452 730.05C487.92 775.71 479.482 820.752 503.327 864.004C521.715 897.314 559.383 930.177 618.489 964.48C670.626 994.746 731.861 1022.01 791.086 1048.39C846.053 1072.87 897.985 1095.98 937.627 1119.32C958.896 1131.85 974.9 1143.43 986.525 1154.64C999.52 1167.19 1006.87 1179.12 1009.01 1191.12C1011.42 1204.52 1006.51 1217.42 994.435 1229.4C982.983 1240.8 964.69 1251.67 940.18 1261.77C895.009 1280.35 826.689 1296.94 737.171 1311.12C615.321 1330.39 455 1345.48 249.513 1356.93L247.845 1356.1C453.785 1344.63 614.434 1329.55 736.451 1310.19C825.895 1296.02 894.118 1279.48 939.257 1260.89C989.387 1240.3 1012.46 1216.71 1007.82 1190.79C1003.82 1168.42 981.379 1145.89 937.195 1119.88C897.663 1096.61 845.802 1073.51 790.891 1049.06C731.614 1022.67 670.316 995.371 618.064 965.039C558.677 930.588 520.742 897.489 502.213 863.949C489.804 841.477 485.965 818.419 490.811 795.416C495.339 773.831 507.606 751.607 527.351 729.411C562.754 689.532 621.663 649.003 707.433 605.506C834.708 540.961 997.935 492.98 1129.05 454.404C1199.97 433.547 1261.22 415.54 1304.32 398.737C1351.31 380.433 1371.47 365.391 1367.74 351.502C1367.34 349.993 1366.6 348.573 1365.6 347.339C1364.39 345.834 1362.97 344.5 1361.39 343.376C1345.4 331.511 1303.26 323.216 1245.47 312.794C1197.58 304.152 1138.27 296.975 1080.89 290.043C1020.66 282.764 958.382 275.214 908.927 265.968C882.299 260.98 861.387 255.879 845.073 250.419C826.621 244.229 814.393 237.697 807.7 230.485C795.72 217.535 815.958 208.366 852.691 191.719C868.626 184.498 888.454 175.52 909.408 164.349C920.905 158.223 933.214 151.718 946.334 144.832C1050.07 90.2024 1206.81 7.68705 1344.98 -106.16C1374.31 -130.334 1399.53 -153.797 1421.56 -175.704L1422.77 -175.116ZM1407.69 -182.591C1386.51 -161.923 1360.55 -137.853 1330.94 -113.44C1209.48 -13.3225 1077.71 65.0115 981.516 122.179C956.891 136.823 933.626 150.648 913.756 162.948C895.149 174.446 878.074 183.391 863.007 191.286C830.61 208.28 810.99 218.507 823.322 231.622C852.86 263.111 973.36 280.866 1089.88 298.066C1146.23 306.374 1204.49 314.955 1250.91 324.959C1309.05 337.467 1345.43 345.931 1360.39 357.833C1362.14 359.177 1363.68 360.762 1364.95 362.535C1366.01 363.969 1366.72 365.607 1367.04 367.323C1369.71 381.788 1349.67 396.938 1304.06 414.936C1262.38 431.359 1203.62 448.748 1135.57 468.841C1004.73 507.421 841.994 555.516 716.395 622.638C541.851 715.97 478.317 801.038 522.091 882.672C561.866 956.824 685.48 1015.48 794.529 1067.26C846.931 1092.15 896.394 1115.64 933.76 1139.18C953.785 1151.81 968.704 1163.42 979.356 1174.68C991.254 1187.24 997.671 1199.14 998.997 1211.04C1001.83 1236.69 977.975 1259.8 928.128 1279.75C883.375 1297.6 816.557 1313.43 729.405 1326.71C613.866 1344.36 463.213 1357.88 271.387 1367.77L269.554 1366.86C461.9 1357 612.92 1343.47 728.595 1325.78C815.664 1312.49 882.436 1296.69 927.096 1278.85C976.722 1258.99 1000.47 1236.09 997.636 1210.65C995.196 1188.46 974.711 1165.94 933.167 1139.74C895.995 1116.3 846.548 1092.82 794.214 1067.98C738.328 1041.44 680.547 1013.98 631.082 983.58C574.817 948.969 538.767 915.941 520.879 882.597C508.772 860.03 504.817 836.85 509.133 813.725C513.188 791.981 524.675 769.604 543.267 747.211C576.875 706.763 633.163 665.741 715.349 621.791C840.973 554.616 1003.76 506.511 1134.56 467.868C1202.6 447.768 1261.35 430.394 1303.02 414.002C1348.39 396.137 1368.32 381.17 1365.72 366.968C1365.44 365.385 1364.8 363.871 1363.82 362.547C1362.65 360.919 1361.24 359.463 1359.64 358.228C1344.06 345.815 1298.93 336.123 1251.18 325.833C1204.82 315.853 1146.59 307.268 1090.25 298.96C1032.01 290.371 971.797 281.536 923.441 270.948C897.355 265.262 876.762 259.558 860.481 253.515C842.07 246.687 829.575 239.602 822.295 231.826C809.329 218.003 829.15 207.631 861.964 190.431C877.012 182.536 894.091 173.602 912.689 162.081C932.567 149.786 955.824 135.956 980.457 121.316C1076.64 64.1373 1208.39 -14.1669 1329.78 -114.278C1359.31 -138.623 1385.26 -162.645 1406.39 -183.294L1407.69 -182.591ZM1392.57 -190.085C1370.77 -169.188 1344.99 -145.566 1315.79 -121.466C1213.12 -36.7277 1106.25 33.9816 1020.39 90.7961C980.146 117.417 945.389 140.403 917.14 160.768C900.944 172.448 885.863 181.64 872.547 189.755C842.694 207.973 824.678 218.976 837.947 232.959C869.79 266.492 985.959 286.867 1098.3 306.596C1153.94 316.343 1211.45 326.45 1256.57 337.891C1305.46 350.302 1344.07 360.094 1358.67 372.549C1362.49 375.823 1364.63 379.257 1364.99 382.778C1366.53 397.536 1346.64 412.602 1302.44 430.212C1262.1 446.283 1205.68 463.063 1140.28 482.456C1010.06 521.142 848.042 569.232 724.395 639.011C557.823 732.982 497.775 818.803 540.778 901.358C579.054 974.879 695.21 1033.87 797.698 1085.91C847.586 1111.24 894.695 1135.17 929.754 1158.94C969.185 1185.69 987.947 1208.57 988.822 1230.97C989.79 1256.09 965.245 1278.53 915.923 1297.7C871.788 1314.92 806.409 1329.95 721.641 1342.37C612.541 1358.36 471.608 1370.36 293.539 1378.75L291.618 1377.8C470.235 1369.4 611.479 1357.38 720.766 1341.35C805.437 1328.93 870.753 1313.89 914.941 1296.78C964.042 1277.7 988.442 1255.41 987.491 1230.52C986.598 1208.49 968.096 1185.92 929.165 1159.51C894.254 1135.84 847.215 1111.95 797.395 1086.68C744.91 1060.04 690.65 1032.48 644.036 1002.01C590.973 967.339 556.81 934.374 539.57 901.313C521.707 867.024 521.509 832.192 539.216 796.474C564.328 745.817 625.441 693.354 723.305 638.151C847.029 568.336 1009.12 520.205 1139.36 481.531C1204.72 462.088 1261.15 445.358 1301.44 429.32C1345.36 411.816 1365.11 396.915 1363.62 382.426C1363.28 379.134 1361.37 376.049 1357.82 372.98C1343.69 360.92 1305.34 351.192 1256.8 338.859C1211.73 327.414 1154.25 317.335 1098.66 307.58C1042.61 297.747 984.651 287.58 937.541 275.789C884.392 262.477 851.469 248.559 836.906 233.213C822.9 218.471 841.175 207.342 871.402 188.887C884.707 180.776 899.772 171.576 915.953 159.926C944.217 139.55 978.969 116.553 1019.22 89.9278C1105.07 33.1245 1211.92 -37.566 1314.57 -122.286C1343.7 -146.326 1369.43 -169.9 1391.19 -190.759L1392.57 -190.085ZM1377.52 -197.548C1355.24 -176.571 1329.83 -153.551 1300.68 -129.48C1219.1 -62.0971 1137.33 -2.85094 1065.2 49.4156C1007.15 91.4536 957.008 127.768 920.497 158.603C906.703 170.263 893.626 179.623 882.107 187.887C854.735 207.495 838.254 219.353 852.593 234.316C886.629 269.8 998.132 292.658 1105.97 314.799C1161.15 326.122 1218.27 337.851 1262.37 350.932L1264.63 351.57C1308.86 364.687 1343.81 375.038 1357.1 387.287C1361.03 390.904 1362.99 394.513 1363.09 398.337C1363.53 413.352 1343.71 428.362 1300.85 445.621C1261.72 461.373 1207.43 477.567 1144.59 496.305C1015.12 534.899 853.981 582.969 732.504 655.4C657.548 700.081 606.523 742.023 576.603 783.652C543.125 830.153 537.426 876.046 559.667 920.051C596.475 992.9 705.075 1052.08 800.903 1104.29C848.318 1130.14 893.142 1154.55 925.932 1178.58C962.815 1205.62 979.634 1228.59 978.883 1250.82C978.019 1275.42 952.819 1297.22 903.995 1315.62C860.215 1332.12 796.268 1346.41 713.871 1357.94C611.381 1372.39 480.317 1382.9 316.014 1389.89L313.952 1388.87C478.814 1381.88 610.224 1371.35 712.957 1356.93C795.245 1345.38 859.119 1331.18 902.83 1314.71C951.413 1296.41 976.484 1274.77 977.339 1250.4C978.104 1228.48 961.503 1205.85 925.094 1179.16C892.45 1155.23 847.733 1130.87 800.373 1105.06C751.324 1078.33 700.614 1050.71 656.867 1020.24C607.054 985.54 574.755 952.729 558.224 919.964C546.714 897.187 542.579 873.814 545.83 850.414C548.916 828.302 558.805 805.593 575.151 782.866C605.16 741.178 656.218 699.169 731.268 654.459C852.845 581.984 1014.03 533.9 1143.55 495.264C1206.38 476.518 1260.66 460.32 1299.73 444.605C1342.34 427.457 1361.99 412.592 1361.6 397.851C1361.5 394.301 1359.71 390.971 1356.1 387.617C1343.26 375.796 1308.61 365.526 1264.72 352.517L1262.47 351.871C1218.44 338.818 1161.43 327.125 1106.32 315.757C998.07 293.537 886.123 270.562 851.582 234.528C836.463 218.775 853.207 206.784 880.928 186.908C892.452 178.656 905.509 169.296 919.284 157.654C955.775 126.781 1005.88 90.4585 1064 48.4368C1136.16 -3.79509 1217.87 -63.0346 1299.44 -130.407C1328.5 -154.433 1353.88 -177.404 1376.11 -198.329L1377.52 -197.548ZM1362.5 -204.991C1340.02 -184.226 1314.4 -161.263 1285.6 -137.456C1227.89 -89.7612 1169.4 -44.2836 1117.8 -4.1769C1037.62 58.1683 968.365 112.009 923.98 156.444C912.514 167.916 901.466 177.334 891.717 185.64C866.823 206.842 851.793 219.645 867.349 235.709C903.326 272.858 1009.88 298.096 1112.91 322.508C1170.48 336.154 1224.87 349.036 1268.15 363.911L1271.95 365.222C1324.21 383.17 1361.96 396.141 1361.15 413.862C1360.43 429.106 1340.7 444.079 1299.05 460.973C1261.04 476.416 1208.82 492.057 1148.33 510.145C1019.73 548.692 859.681 596.634 740.573 671.733C670.056 716.136 620.289 759.79 592.535 801.498C561.42 848.26 556.637 894.448 578.338 938.748C613.619 1010.78 714.647 1070.06 803.773 1122.37C848.771 1148.77 891.314 1173.75 921.925 1198.13C956.303 1225.49 971.164 1248.62 968.694 1270.82C966.005 1294.89 940.141 1316.05 891.816 1333.69C848.54 1349.5 786.042 1362.91 706.035 1373.59C610.33 1386.43 489.279 1395.52 338.838 1401.21L336.641 1400.12C487.679 1394.44 609.148 1385.32 705.163 1372.51C785.08 1361.83 847.499 1348.42 890.71 1332.65C938.788 1315.1 964.48 1294.14 967.162 1270.26C969.589 1248.42 954.917 1225.71 921.034 1198.65C890.59 1174.39 848.154 1149.5 803.235 1123.14C713.793 1070.65 612.417 1011.16 576.891 938.669C565.68 915.786 561.373 892.262 564.162 868.802C566.791 846.52 575.843 823.613 591.025 800.712C618.824 758.932 668.656 715.227 739.11 670.791C858.299 595.668 1018.45 547.663 1147.09 509.116C1207.55 490.99 1259.78 475.349 1297.73 459.909C1339.15 443.08 1358.8 428.242 1359.46 413.278C1359.83 405.476 1352.56 398.425 1335.93 390.35C1320.38 382.841 1297.89 375.108 1271.83 366.158L1268.04 364.851C1224.87 350.023 1170.52 337.156 1113.07 323.524C1009.63 299.026 902.649 273.649 866.069 235.929C849.796 219.106 864.99 206.112 890.213 184.622C899.962 176.316 910.983 166.913 922.398 155.444C966.841 110.991 1036.1 57.1429 1116.31 -5.20567C1167.88 -45.3395 1226.37 -90.8058 1284.08 -138.489C1312.82 -162.251 1338.38 -185.155 1360.8 -205.864L1362.5 -204.991ZM1347.49 -212.435C1324.88 -191.994 1299 -169.05 1270.51 -145.482C1240.02 -120.24 1209.78 -95.6165 1180.56 -71.8163C1072.39 16.2762 978.968 92.3474 927.352 154.268C918.123 165.338 909.066 174.672 901.066 182.907C878.683 205.936 865.178 219.832 882.015 237.066C919.793 275.765 1021.11 303.203 1119.12 329.679C1176.8 345.274 1231.27 360.01 1273.89 376.924L1278.01 378.559C1302.25 388.164 1323.18 396.465 1337.52 404.441C1353.28 413.19 1360.17 421.127 1359.19 429.409C1357.38 444.86 1337.64 459.788 1297.08 476.414C1260.11 491.554 1209.8 506.69 1151.54 524.22C1023.82 562.556 864.998 610.335 748.48 688.134C681.586 732.795 634.55 776.958 608.553 819.331C579.787 866.318 575.921 912.782 597.103 957.435C630.791 1028.49 724.252 1087.79 806.649 1140.06C849.339 1167.15 889.625 1192.7 918.077 1217.51C950.017 1245.36 962.898 1268.63 958.68 1290.78C954.178 1314.34 927.651 1334.85 879.852 1351.73C837.059 1366.84 775.99 1379.48 698.365 1389.28C609.518 1400.5 498.582 1408.25 362.08 1412.73L359.748 1411.57C496.884 1407.11 608.261 1399.34 697.365 1388.08C774.904 1378.29 835.861 1365.7 878.607 1350.59C926.151 1333.8 952.525 1313.45 956.985 1290.11C966.065 1242.42 891.87 1195.35 805.924 1140.81C723.21 1088.34 629.428 1028.84 595.549 957.313C584.64 934.317 580.261 910.701 582.496 887.107C584.639 864.632 592.864 841.567 606.972 818.528C632.958 776.037 680.111 731.839 747.082 687.141C863.708 609.283 1022.6 561.471 1150.33 523.085C1263.9 488.918 1353.58 461.917 1357.48 428.799C1359.46 411.946 1326.94 399.063 1277.79 379.58L1273.68 377.946C1231.22 361.102 1176.84 346.371 1119.24 330.809C1020.84 304.186 919.086 276.635 880.737 237.4C863.097 219.364 876.832 205.3 899.512 181.949C907.528 173.722 916.567 164.407 925.78 153.348C977.43 91.3786 1070.88 15.2926 1179.07 -72.8111C1208.27 -96.6001 1238.48 -121.178 1269.01 -146.476C1297.41 -170.004 1323.25 -192.877 1345.79 -213.284L1347.49 -212.435ZM1332.47 -219.878C1309.38 -199.415 1283.83 -177.019 1255.38 -153.469C1117.98 -39.6677 988.17 67.8059 930.755 152.05C923.602 162.507 916.469 171.594 910.198 179.617C890.422 204.716 878.489 219.871 896.726 238.409C936.086 278.427 1032.01 307.782 1124.78 336.17C1182.8 353.925 1237.61 370.705 1279.71 389.923L1282.99 391.42C1305.62 401.698 1325.13 410.638 1338.31 419.059C1352.77 428.293 1358.78 436.497 1357.24 444.885C1354.34 460.52 1334.57 475.413 1295 491.751C1258.98 506.613 1210.48 521.246 1154.36 538.22C1027.79 576.468 870.315 624.017 756.589 704.505C693.147 749.432 648.754 794.06 624.647 837.229C598.234 884.435 595.316 931.191 615.974 976.185C648.082 1046.12 733.846 1105.23 809.514 1157.38C849.868 1185.2 888.031 1211.49 914.313 1236.76C943.784 1265.11 954.689 1288.61 948.635 1310.75C942.344 1333.79 915.165 1353.64 867.872 1369.76C825.564 1384.19 765.952 1396.03 690.675 1404.95C608.934 1414.62 508.263 1421.1 385.788 1424.48L383.354 1423.28C506.509 1419.91 607.66 1413.4 689.678 1403.69C764.845 1394.77 824.367 1382.95 866.586 1368.54C913.616 1352.53 940.61 1332.81 946.856 1309.99C959.859 1262.33 889.748 1214 808.596 1158.08C732.635 1105.73 646.521 1046.39 614.235 975.999C603.621 952.905 599.125 929.147 600.854 905.462C602.494 882.811 609.936 859.518 622.908 836.329C647.099 793.108 691.549 748.405 755.049 703.46C868.902 622.876 1026.48 575.229 1153.05 537.027C1262.63 503.933 1349.22 477.791 1355.41 444.204C1358.58 427.081 1328.34 413.292 1282.58 392.408L1279.3 390.911C1237.41 371.791 1182.69 355.043 1124.77 337.331C1031.6 308.808 935.27 279.337 895.352 238.76C876.37 219.458 888.454 204.098 908.496 178.641C914.803 170.646 921.94 161.571 929.034 151.113C986.577 66.8096 1116.36 -40.7252 1253.83 -154.549C1282.2 -178.024 1307.68 -200.379 1330.71 -220.778L1332.47 -219.878ZM1317.46 -227.322C1294.4 -207.34 1268.41 -184.853 1240.24 -161.492C1110.76 -54.142 984.083 57.8399 934.104 149.882C928.878 159.491 923.543 168.109 918.825 175.719C901.787 203.199 891.535 219.787 911.314 239.765C951.982 280.855 1042.38 311.916 1129.76 341.956C1188.35 362.073 1243.69 381.089 1285.42 402.966L1287 403.749C1308.24 414.879 1326.59 424.5 1338.8 433.471C1352.15 443.273 1357.37 451.841 1355.23 460.39C1346.63 494.733 1262.82 520.144 1156.74 552.312C1031.3 590.32 875.316 637.6 764.53 720.896C704.518 765.974 662.848 811.089 640.543 855.01C616.482 902.416 614.477 949.455 634.614 994.866C665.093 1063.46 743.252 1122.26 812.236 1174.13C889.33 1232.12 955.906 1282.22 938.548 1330.6C930.428 1353.12 902.637 1372.34 855.87 1387.7C813.993 1401.5 755.883 1412.55 682.97 1420.62C608.617 1428.79 518.419 1434.07 410.034 1436.5L407.418 1435.21C516.511 1432.8 607.213 1427.51 681.896 1419.29C754.69 1411.26 812.78 1400.23 854.526 1386.5C901.037 1371.22 928.659 1352.14 936.706 1329.83C953.853 1282.11 887.749 1232.35 811.204 1174.78C742.032 1122.74 663.555 1063.7 632.941 994.666C612.949 949.599 614.604 902.986 637.897 855.998L638.835 854.107C661.18 810.103 702.962 764.903 763.016 719.76C873.918 636.39 1029.99 589.077 1155.4 551.069C1261.25 518.988 1344.82 493.624 1353.38 459.632C1357.79 442.107 1329.4 427.2 1286.44 404.693L1284.88 403.872C1243.43 382.14 1188.18 363.152 1129.72 343.071C1041.95 312.915 951.179 281.78 909.966 240.101C900.269 230.311 897.035 220.965 899.487 209.783C901.726 199.508 908.501 188.582 917.072 174.746C921.771 167.155 927.078 158.534 932.321 148.951C982.287 56.8556 1109.06 -55.2007 1238.6 -162.595C1266.68 -185.885 1292.6 -208.317 1315.59 -228.239L1317.46 -227.322ZM1302.48 -234.746L1287.52 -221.965C1267.75 -205.177 1247.32 -187.827 1225.19 -169.467C1060.56 -32.8443 971.861 64.9581 937.567 147.703C934.012 156.265 930.351 164.126 927.103 171.075C913.494 200.255 904.535 219.54 926.054 241.15C967.816 283.073 1052.53 315.515 1134.45 346.89C1193.83 369.631 1249.91 391.107 1291.3 416.015C1330.72 439.754 1359.25 456.918 1353.28 475.967C1342.38 510.678 1261.36 535.315 1158.81 566.506C1034.68 604.241 880.276 651.227 772.636 737.293C655.234 831.134 615.133 924.121 653.457 1013.57C682.149 1080.55 752.734 1138.88 814.965 1190.29C887.537 1250.26 950.209 1302.03 928.449 1350.61C918.528 1372.61 890.113 1391.21 843.864 1405.8C802.532 1418.86 745.795 1429.11 675.193 1436.25C608.614 1443.03 529.087 1447.2 434.888 1448.82L432.138 1447.46C527.076 1445.86 607.146 1441.69 674.162 1434.89C744.643 1427.76 801.224 1417.5 842.47 1404.48C888.444 1389.97 916.745 1371.52 926.525 1349.69C948.004 1301.79 885.786 1250.4 813.748 1190.88C751.274 1139.27 680.451 1080.78 651.58 1013.35C630.831 964.883 632.945 915.438 657.755 865.41C678.95 822.653 716.674 779.555 770.925 736.116C878.704 649.95 1033.23 602.94 1157.38 565.163C1259.71 534.041 1340.54 509.466 1351.31 475.094C1357.01 456.925 1329.1 440.131 1290.47 416.871C1249.37 392.146 1193.49 370.738 1134.23 348.048C1051.94 316.527 966.859 283.95 924.585 241.511C902.316 219.209 911.418 199.658 925.167 170.134C928.407 163.181 932.083 155.309 935.62 146.785C954.27 101.775 989.643 51.8867 1043.73 -5.77469C1088.78 -53.7674 1147.56 -107.697 1223.41 -170.648C1245.53 -189.013 1265.95 -206.37 1285.73 -223.142L1300.52 -235.717L1302.48 -234.746ZM1287.53 -242.158C1274.65 -231.539 1261.25 -220.347 1247.56 -208.84C1235.45 -198.713 1222.93 -188.267 1210 -177.501C1055.01 -48.7997 966.996 56.8589 940.848 145.454C938.741 152.584 936.644 159.118 934.576 165.413C924.065 197.678 917.129 218.998 940.624 242.461C983.149 284.911 1062.19 318.443 1138.67 350.884C1199.02 376.483 1256.01 400.664 1297 429.023C1315.59 441.881 1330.63 452.529 1340.36 462.43C1351.1 473.33 1354.55 482.546 1351.21 491.441C1338.12 526.49 1259.69 550.396 1160.44 580.689C1037.75 618.158 884.985 664.767 780.67 753.636C670.944 847.106 634.471 940.859 672.217 1032.27C699.113 1097.41 762.152 1154.94 817.727 1205.71C885.932 1267.91 944.806 1321.69 918.356 1370.56C906.705 1392.07 877.62 1410.02 831.884 1423.85C791.04 1436.22 735.769 1445.66 667.558 1451.94C608.995 1457.34 540.381 1460.51 460.437 1461.49L457.545 1460.05C538.262 1459.1 607.451 1455.93 666.427 1450.49C734.506 1444.23 789.691 1434.79 830.438 1422.46C875.929 1408.7 904.873 1390.86 916.376 1369.55C942.477 1321.34 884.019 1268 816.352 1206.22C760.547 1155.29 697.296 1097.56 670.251 1032.03C651.013 985.436 651.12 937.559 670.592 889.718C672.743 884.44 675.132 879.152 677.758 873.853C697.832 833.359 731.737 792.588 778.869 752.462C883.326 663.466 1036.14 616.763 1159.06 579.328C1258.07 549.115 1336.27 525.235 1349.27 490.553C1356.04 472.51 1333.45 455.73 1296.05 429.848C1255.4 401.713 1198.57 377.615 1138.42 352.095C1061.62 319.523 982.24 285.85 939.213 242.906C915.009 218.707 922.015 197.187 932.635 164.563C934.686 158.26 936.803 151.745 938.907 144.623C953.165 96.3183 984.606 44.4909 1035.14 -13.8744C1078.56 -64.071 1135.18 -117.981 1208.22 -178.656C1221.14 -189.384 1233.66 -199.826 1245.79 -209.984C1259.43 -221.407 1272.72 -232.54 1285.51 -243.103L1287.53 -242.158ZM1272.59 -249.562C1247.5 -229.266 1220.92 -207.156 1194.89 -185.508C1043.82 -59.7711 961.839 47.7798 944.338 143.298C943.394 148.658 942.356 153.691 941.397 158.584C934.31 194.488 929.61 218.249 955.4 243.873C998.364 286.55 1071.87 320.858 1142.96 354.07C1204.45 382.788 1262.52 409.908 1302.92 442.145C1336.38 468.84 1357.69 487.772 1349.34 507.012C1334 542.357 1258.08 565.585 1161.92 594.964C1040.51 632.059 889.516 678.266 788.658 770.012C686.606 862.875 653.725 957.405 690.928 1050.99C715.977 1113.95 771.593 1170.45 820.642 1220.27C884.501 1285.16 939.681 1341.22 908.248 1390.51C894.867 1411.55 865.114 1428.83 819.908 1441.91C779.564 1453.57 725.721 1462.23 659.904 1467.64C609.843 1471.73 552.429 1474.04 486.777 1474.55L483.719 1473.03C550.164 1472.55 608.168 1470.23 658.665 1466.09C797.725 1454.71 880.996 1428.9 906.21 1389.38C937.231 1340.7 882.475 1285.07 819.056 1220.63C769.851 1170.64 714.079 1113.99 688.901 1050.67C670.144 1003.54 669.317 955.364 686.453 907.492C689.686 898.459 693.45 889.631 697.729 881.05C716.455 843.276 746.303 805.646 786.77 768.776C887.753 676.876 1038.91 630.645 1160.37 593.494C1256.24 564.156 1332 540.997 1347.19 505.985C1355.23 487.445 1334.35 468.919 1301.58 442.774C1261.53 410.834 1203.66 383.808 1142.41 355.196C1071.02 321.862 997.199 287.39 953.788 244.265C927.295 217.993 932.048 193.986 939.217 157.7C940.18 152.818 941.186 147.77 942.15 142.429C959.69 46.7332 1041.75 -60.9493 1193.02 -186.774C1218.95 -208.344 1245.45 -230.376 1270.47 -250.616L1272.59 -249.562ZM1257.69 -256.95C1235.22 -239.275 1209.7 -218.431 1179.78 -193.515C1031.5 -70.0537 955.597 39.4013 947.662 141.061L947.016 149.872C943.715 190.291 941.547 217.006 970.081 245.219C1013.17 287.818 1081.26 322.612 1147.13 356.279C1209.93 388.349 1269.22 418.681 1308.78 455.183C1336.7 480.999 1357.27 502.337 1347.4 522.492L1347.31 522.657C1329.71 558.172 1256.16 580.708 1163.09 609.239C1043.19 645.981 893.983 691.695 796.802 786.372C703.702 877.085 673.618 975.047 709.813 1069.67C732.808 1130.07 781.121 1185.13 823.73 1233.7C883.447 1301.78 935.024 1360.55 898.163 1410.44C883.004 1430.95 852.643 1447.63 807.944 1459.97C768.046 1470.95 715.685 1478.82 652.195 1483.33C611.241 1486.23 565.319 1487.79 514.006 1488.03L510.845 1486.47C563.022 1486.27 609.6 1484.7 651.069 1481.77C785.194 1472.24 867.642 1447.86 896.159 1409.28C932.577 1359.98 881.356 1301.61 822.049 1234.01C779.312 1185.3 730.871 1130.1 707.63 1069.36C689.362 1021.59 687.595 973.088 702.352 925.265C717.062 877.72 748.137 830.544 794.765 785.118C892.095 690.3 1041.46 644.516 1161.48 607.738C1254.34 579.29 1327.65 556.842 1345.12 521.599L1345.2 521.441C1354.77 501.942 1334.58 481.027 1307.22 455.686C1268.06 419.502 1209.04 389.334 1146.51 357.382C1080.36 323.574 1011.95 288.612 968.466 245.657C939.265 216.785 941.466 189.842 944.798 149.063C945.025 146.201 945.267 143.271 945.495 140.268C949.693 86.4605 973.831 29.0318 1017.29 -30.3801C1055.22 -82.3049 1109.27 -137.621 1177.92 -194.77C1207.72 -219.582 1233.19 -240.339 1255.53 -258.001L1257.69 -256.95ZM1242.79 -264.335C1218.69 -245.789 1192.56 -224.776 1164.66 -201.518C1018.63 -79.7036 948.762 31.6399 951.125 138.882C952.126 184.784 952.783 215.114 984.767 246.596C1027.61 288.781 1090.55 323.784 1151.44 357.647C1215.7 393.388 1276.41 427.104 1314.57 468.322C1342.03 497.946 1355.89 518.838 1345.41 538.042C1325.86 573.906 1254.4 595.844 1163.93 623.585C1045.51 659.913 898.138 705.139 804.817 802.734C719.294 892.143 692.92 990.903 728.528 1088.41C749.713 1145.67 790.823 1198.76 827.115 1245.6C854.889 1281.44 881.15 1315.33 894.701 1346.09C909.841 1380.37 907.745 1407.15 888.117 1430.4C871.187 1450.46 840.209 1466.48 796.039 1478.05C756.68 1488.37 705.711 1495.43 644.572 1499.05C613.332 1500.87 579.168 1501.84 542.081 1501.96L538.77 1500.32C576.769 1500.24 611.626 1499.26 643.339 1497.39C772.53 1489.74 854.162 1466.75 885.9 1429.1C928.263 1378.91 880.454 1317.19 825.102 1245.73C788.742 1198.79 747.515 1145.56 726.234 1088.04C708.523 1039.5 705.827 990.723 718.225 943.054C730.875 894.478 759.287 846.817 802.643 801.478C896.14 703.708 1043.67 658.427 1162.2 622.047C1252.44 594.349 1323.7 572.473 1343.1 536.906L1343.62 535.844C1352.74 517.454 1339.15 497.195 1312.67 468.649C1274.91 427.901 1214.49 394.299 1150.57 358.746C1089.45 324.758 1026.24 289.603 983.035 247.051C967.972 232.216 958.788 216.524 954.052 197.62C949.657 180.013 949.237 160.603 948.752 138.128C947.836 96.1451 958.448 52.715 980.37 8.49154C988.51 -7.8095 997.691 -23.5714 1007.86 -38.7053C1043.09 -91.3853 1095.17 -146.618 1162.66 -202.87C1190.41 -226.058 1216.48 -246.981 1240.51 -265.467L1242.79 -264.335ZM1227.93 -271.7C1202.59 -252.684 1176.06 -231.654 1149.55 -209.524C1005.14 -89.0061 941.315 24.2412 954.421 136.622C959.595 180.997 965.843 214.963 999.361 247.918C1041.6 289.251 1099.53 324.132 1155.63 357.913C1221.59 397.624 1283.92 435.126 1320.27 481.368C1342.86 510.078 1355.41 533.346 1343.33 553.539C1333.4 570.109 1312.67 584.676 1278.06 599.382C1246.87 612.657 1206.79 624.952 1164.41 637.993C1047.48 673.862 902.038 718.541 812.73 819.101C733.557 908.252 711.501 1005.14 747.191 1107.07C766.214 1160.7 800.498 1211.34 830.755 1255.99C856.661 1294.17 881.075 1330.2 892.516 1362.63C905.248 1398.73 900.621 1426.59 877.965 1450.31C859.308 1469.87 827.726 1485.26 784.059 1496.1C745.197 1505.74 695.694 1512.02 636.875 1514.73C616.197 1515.7 594.264 1516.23 571.076 1516.33L567.638 1514.63C591.654 1514.54 614.324 1514 635.648 1513.02C759.936 1507.26 840.707 1485.71 875.79 1448.98C924.68 1397.74 880.208 1332.09 828.722 1256.08C798.396 1211.33 764.039 1160.56 744.929 1106.73C727.635 1057.33 723.971 1008.24 734.086 960.827C744.657 911.183 770.401 863.063 810.606 817.805C900.101 717.027 1045.72 672.294 1162.72 636.35C1250.39 609.42 1319.65 588.143 1341.09 552.335C1352.9 532.624 1340.51 509.814 1318.33 481.577C1282.4 435.835 1220.36 398.516 1154.71 359.015C1098.45 325.147 1040.3 290.097 997.665 248.438C963.596 214.928 957.275 180.692 952.059 135.985C948.463 105.109 950.826 73.6105 959.12 42.3024C964.625 21.7775 972.175 1.89178 981.666 -17.0791C986.618 -27.0689 992.14 -37.0576 998.233 -47.045C1030.79 -100.358 1080.96 -155.476 1147.42 -210.958C1173.81 -233.003 1200.23 -253.946 1225.5 -272.907L1227.93 -271.7ZM1213.09 -279.057C1186.76 -259.824 1160.12 -238.995 1134.44 -217.531C991.344 -97.9491 933.541 17.2055 957.788 134.396C967.62 181.907 979.964 215.928 1014.05 249.294C1055.36 289.589 1108.66 324.109 1160.25 357.517C1228.16 401.509 1292.26 443.017 1326.22 494.536C1337.21 511.247 1343.61 524.324 1346.34 535.719C1349.42 548.508 1347.82 559.415 1341.5 569.134C1330.67 585.8 1309.73 600.307 1275.58 614.838C1244.82 627.907 1205.97 639.845 1164.84 652.48C1049.53 687.896 906.045 731.987 820.927 835.553C749.219 922.811 730.763 1020.47 766.122 1125.86C782.851 1175.2 809.467 1220.55 835.231 1264.48C859.242 1305.41 881.86 1344.03 891.082 1378.51C901.356 1416.85 894.033 1446.04 868.004 1470.36C847.613 1489.45 815.376 1504.22 772.246 1514.29C733.869 1523.25 685.777 1528.73 629.317 1530.54C620.017 1530.79 610.511 1530.97 600.798 1531.07L597.266 1529.32C607.812 1529.23 618.057 1529.02 628.001 1528.68C747.367 1524.82 827.357 1504.69 865.637 1468.84C921.88 1416.25 880.619 1345.82 832.817 1264.34C808.225 1222.42 780.407 1174.93 763.591 1125.4C746.653 1074.95 742.029 1025.55 749.892 978.611C758.305 927.878 781.409 879.285 818.547 834.158C903.855 730.366 1047.54 686.214 1162.98 650.744C1244.85 625.577 1315.57 603.821 1339.05 567.813C1350.74 549.819 1346.36 528.583 1323.91 494.512C1290.35 443.587 1226.6 402.271 1159.1 358.544C1107.37 325.046 1053.88 290.431 1012.29 249.821C995.569 233.462 983.528 216.484 974.31 196.354C966.617 179.561 960.959 160.867 955.365 133.842C948.656 101.398 948.345 68.2417 954.448 36.1572C959.181 10.7231 968.004 -15.02 980.68 -40.5897C983.122 -45.5168 985.707 -50.4392 988.433 -55.3568C1018.32 -109.155 1066.71 -164.217 1132.27 -219.011C1157.85 -240.381 1184.38 -261.136 1210.6 -280.31L1213.09 -279.057ZM1198.27 -286.407C1171.1 -267.122 1144.67 -246.745 1119.3 -225.553C1053.27 -170.289 1006.76 -115.46 979.451 -60.3728C947.975 3.1221 942.009 66.9687 961.124 132.155C976.457 184.457 996.023 218.783 1028.67 250.62C1068.64 289.498 1117.47 323.342 1164.68 356.064C1234.72 404.609 1300.88 450.468 1331.85 507.559C1350.4 541.775 1352.72 565.526 1339.39 584.568C1313.88 621.145 1244.79 642.353 1164.8 666.953C1051.1 701.839 909.618 745.293 828.851 851.879C764.516 936.757 749.707 1035.21 784.777 1144.57C799.084 1188.77 819.868 1230.17 839.964 1270.22C862.163 1314.45 883.139 1356.24 890.127 1393.18C897.887 1434.31 887.613 1465.14 857.765 1490.24C835.621 1508.86 802.774 1523.05 760.172 1532.33C724.483 1540.1 681.016 1544.69 630.868 1545.98L627.281 1544.2C737.995 1541.6 814.761 1522.94 855.519 1488.7C920.095 1434.41 881.816 1358.2 837.567 1269.97C817.431 1229.87 796.618 1188.38 782.288 1144.03C765.653 1091.99 760.071 1042.2 765.703 996.304C771.982 944.456 792.419 895.404 826.482 850.442C907.45 743.589 1049.13 700.074 1162.99 665.107C1242.76 640.617 1311.64 619.444 1337.01 583.218C1350.11 564.503 1347.79 541.12 1329.51 507.394C1298.91 450.927 1233.11 405.332 1163.48 357.062C1116.13 324.205 1067.14 290.283 1026.94 251.182C1010 234.826 995.655 216.129 984.407 195.747C974.353 177.52 966.184 157.159 958.715 131.674C948.839 98.4688 945.733 63.9458 949.575 30.081C953.106 -0.575554 962.534 -31.4903 977.603 -61.8892L978.455 -63.607C1005.75 -117.912 1052.41 -172.914 1117.12 -227.105C1142.35 -248.223 1168.68 -268.518 1195.73 -287.729L1198.27 -286.407ZM1183.47 -293.74C1155.42 -274.375 1128.89 -254.223 1104.21 -233.548C964.764 -116.738 917.797 5.57174 964.441 129.932C982.768 178.736 1007.83 217.523 1043.3 252C1081.51 289.062 1125.96 321.852 1168.97 353.575C1241.57 407.121 1310.15 457.702 1337.55 520.67C1352.4 554.81 1352.34 580.062 1337.33 600.122C1309.85 636.847 1242.49 657.504 1164.49 681.44C1052.43 715.797 913.031 758.566 836.795 868.225C779.038 951.333 768.126 1047.82 803.463 1163.21C815.166 1201.17 830.593 1237.43 845.512 1272.5C866.138 1320.87 885.553 1366.49 890.223 1406.6C895.496 1451.23 881.937 1484.14 847.657 1510.18C823.787 1528.32 790.319 1541.88 748.217 1550.43C722.579 1555.61 693.252 1559.07 660.662 1560.74L657.224 1559.04C744.112 1554.93 806.411 1538.11 845.365 1508.54C919.597 1452.14 884.143 1368.75 843 1272.16C828.108 1237.06 812.64 1200.74 800.896 1162.71C784.311 1108.59 777.979 1059.99 781.42 1014.09C785.418 961.122 803.234 911.578 834.353 866.817C868.376 817.883 917.5 778.05 984.523 745.063C1042.82 716.374 1106.49 696.837 1162.68 679.601C1240.46 655.749 1307.62 635.135 1334.9 598.707C1349.67 578.946 1349.73 554.055 1335.06 520.347C1307.93 458.096 1239.75 407.761 1167.56 354.518C1124.44 322.717 1079.87 289.826 1041.47 252.583C1005.65 217.774 980.392 178.684 961.944 129.548C948.679 94.226 942.767 58.7475 944.383 24.11C945.877 -7.99756 953.876 -40.2591 968.157 -71.7899C969.603 -74.9839 971.119 -78.1805 972.705 -81.3799C998.299 -133.009 1041.7 -184.679 1101.87 -235.088C1126.43 -255.672 1152.85 -275.754 1180.8 -295.027L1183.47 -293.74ZM1168.74 -301.047C1141.13 -282.578 1114.58 -262.705 1089.18 -241.508C950.363 -125.003 909.573 -0.776215 967.954 127.732C988.866 173.762 1018.35 214.884 1058.12 253.398C1094.12 288.228 1134.26 319.547 1173.1 349.813C1248.72 408.818 1320.14 464.551 1343.47 533.75C1349.34 551.141 1351.52 566.225 1350.15 579.857C1348.89 593.013 1343.83 605.417 1335.53 615.641C1306.16 652.542 1240.41 672.666 1164.24 696C1053.79 729.828 916.452 771.862 844.924 884.596C793.08 966.299 786.102 1058.01 822.29 1181.93C831.179 1212.26 841.784 1241.81 852.07 1270.39C890.649 1377.87 923.947 1470.71 837.575 1530.08C812.051 1547.81 777.983 1560.74 736.399 1568.57C721.792 1571.33 706.129 1573.47 689.412 1575L686.354 1573.48C750.715 1567.77 800.116 1552.76 835.232 1528.41C921.017 1469.47 887.824 1377 849.38 1269.94C839.102 1241.38 828.499 1211.77 819.598 1181.4C803.15 1125.06 795.826 1076.14 797.245 1031.87C798.972 976.935 813.727 928.304 842.388 883.217C874.324 832.873 921.619 792.321 986.964 759.243C1043.88 730.431 1106.79 711.166 1162.33 694.134C1238.26 670.875 1303.84 650.802 1332.98 614.152C1349.79 593.007 1352.27 567.299 1340.81 533.284C1317.71 464.802 1246.68 409.375 1171.5 350.718C1132.58 320.348 1092.34 288.952 1056.19 253.968C1016.12 215.157 986.373 173.747 965.345 127.415C948.669 90.711 939.885 53.9774 939.213 18.2343C938.593 -14.7523 944.875 -47.7616 957.882 -79.8776C960.549 -86.4764 963.515 -93.0618 966.78 -99.6336C990.917 -148.325 1031.19 -196.516 1086.77 -243.162C1112.07 -264.269 1138.52 -284.047 1166.03 -302.417L1168.74 -301.047ZM1154.01 -308.345C950.503 -175.689 888.98 -29.8956 971.211 125.452C1018.75 215.251 1098.87 281.002 1176.39 344.592C1216.82 377.775 1255.01 409.094 1285.8 441.908C1320.48 478.806 1340.57 512.161 1349.13 546.807C1360.42 592.534 1347.66 626.225 1308.96 652.824C1274.01 676.855 1220.34 693.244 1163.51 710.602C1049.15 745.497 919.547 785.081 852.902 900.911C785.122 1018.66 824.328 1147.65 858.936 1261.38C877.199 1321.28 894.387 1377.82 894.494 1427.01C894.564 1482.12 873.317 1521.21 827.514 1550.06C798.181 1568.48 760.767 1581.15 715.602 1587.98L712.172 1586.28C757.8 1579.57 795.451 1566.9 825.125 1548.28C924.542 1485.64 892.876 1381.48 856.209 1260.89C823.035 1151.75 785.628 1028.7 842.119 914.74C844.636 909.662 847.352 904.588 850.265 899.519C880.051 847.753 925.442 806.473 989.056 773.335C1044.53 744.42 1106.69 725.437 1161.51 708.662C1278.39 672.986 1370.69 644.784 1346.34 546.221C1327.81 471.13 1253.43 410.064 1174.66 345.468C1136.54 314.196 1097.14 281.86 1061.1 245.921C1020.27 205.163 989.983 165.691 968.594 125.29C942.015 75.0612 930.234 25.1672 933.596 -23.0016C935.811 -54.8172 944.696 -86.4236 960.034 -117.365C965.434 -128.222 971.459 -138.758 978.081 -148.925C1000.93 -184.1 1032.9 -218.945 1073.1 -252.528C1097.92 -273.063 1123.98 -292.175 1151.13 -309.775L1154.01 -308.345Z" fill="#E0E0E0"/>
</g>
</g>
</g>
<defs>
<linearGradient id="paint0_linear_62_3443" x1="180" y1="127.5" x2="662.142" y2="1075.58" gradientUnits="userSpaceOnUse">
<stop stop-color="#164398"/>
<stop offset="0.711667"/>
</linearGradient>
<clipPath id="clip0_62_3443">
<rect width="1440" height="680" fill="white" transform="translate(0 0.600098)"/>
</clipPath>
<clipPath id="clip1_62_3443">
<rect width="833.537" height="1894.48" fill="white" transform="matrix(0.895955 0.444146 0.444146 -0.895955 87 1276.37)"/>
</clipPath>
</defs>
</svg>
