<svg width="4014" height="2586" viewBox="0 0 4014 2586" fill="none" xmlns="http://www.w3.org/2000/svg">
<path d="M17.0002 224.393C17.5299 224.2 17.5792 224.112 17.0002 224.095V5.99946L3997 5.99946V224.077C3950.86 223.99 3921.18 252.998 3896.78 266.3C3857.73 287.586 3836.54 266.984 3836.54 253.015C3836.54 227.236 3863.12 224.27 3859.28 224.077H3859.25C3813.53 224.288 3784.03 253.068 3759.75 266.3C3720.71 287.586 3699.52 266.984 3699.52 253.015C3699.52 227.148 3726.28 224.253 3722.22 224.077C3676.08 223.99 3646.4 252.998 3622 266.3C3582.94 287.586 3561.75 266.984 3561.75 253.015C3561.75 227.236 3588.34 224.27 3584.51 224.077H3584.47C3538.75 224.288 3509.24 253.068 3484.97 266.3C3445.92 287.586 3424.73 266.984 3424.73 253.015C3424.73 227.64 3450.46 224.376 3447.63 224.095H3447.62C3401.49 224.007 3371.81 253.015 3347.41 266.317C3308.35 287.586 3287.16 267.001 3287.16 253.033C3287.16 227.236 3313.75 224.27 3309.92 224.095H3309.88C3264.16 224.305 3234.65 253.085 3210.38 266.317C3171.33 287.586 3150.13 267.001 3150.13 253.033C3150.13 227.148 3176.89 224.253 3172.84 224.095C3126.71 224.007 3097.02 253.015 3072.63 266.317C3058.2 274.179 3046.21 276.32 3036.84 275.197C3020.81 273.284 3012.38 261.842 3012.38 253.033C3012.38 227.236 3038.96 224.27 3035.13 224.095H3035.09C3034.68 224.095 3034.29 224.095 3033.89 224.112C2988.86 224.814 2959.66 253.208 2935.59 266.317C2924.26 272.494 2914.43 275.144 2906.18 275.442C2905.94 275.46 2905.7 275.46 2905.47 275.46C2902.82 275.46 2900.36 275.197 2898.06 274.74C2883.85 271.933 2876.38 261.316 2876.38 253.015C2876.38 232.624 2893.01 226.517 2898.06 224.744C2899.39 224.288 2899.92 224.112 2899.12 224.077H2899.09C2898.74 224.077 2898.4 224.077 2898.06 224.095C2852.92 224.727 2823.69 253.173 2799.59 266.3C2760.55 287.586 2739.36 266.984 2739.36 253.015C2739.36 227.148 2766.11 224.253 2762.06 224.077C2715.92 223.99 2686.24 252.998 2661.84 266.3C2622.78 287.586 2601.59 266.984 2601.59 253.015C2601.59 227.236 2628.18 224.27 2624.35 224.077H2624.31C2578.59 224.288 2549.08 253.068 2524.81 266.3C2485.76 287.586 2464.57 266.984 2464.57 253.015C2464.57 227.64 2490.3 224.376 2487.47 224.095H2487.46C2441.33 224.007 2411.65 253.015 2387.24 266.317C2348.19 287.586 2327 267.001 2327 253.033C2327 227.236 2353.59 224.27 2349.75 224.095H2349.72C2304 224.305 2274.49 253.085 2250.22 266.317C2211.16 287.586 2189.97 267.001 2189.97 253.033C2189.97 227.148 2216.73 224.253 2212.68 224.095C2166.55 224.007 2136.86 253.015 2112.47 266.317C2073.41 287.586 2052.22 267.001 2052.22 253.033C2052.22 227.254 2078.77 224.27 2074.96 224.095C2074.24 224.095 2073.51 224.095 2072.8 224.13C2072.33 224.13 2071.86 224.147 2071.39 224.183C2027.69 225.797 1999.08 253.436 1975.43 266.317C1964.86 272.073 1955.58 274.776 1947.7 275.355C1946.72 275.442 1945.77 275.46 1944.84 275.46C1942.37 275.46 1940.06 275.249 1937.9 274.863C1923.3 272.213 1915.64 261.421 1915.64 253.015C1915.64 231.764 1933.71 226.025 1937.9 224.551C1938.79 224.235 1939.06 224.112 1938.38 224.077H1937.9C1892.43 224.481 1863.06 253.103 1838.85 266.3C1799.81 287.586 1778.61 266.984 1778.61 253.015C1778.61 227.148 1805.37 224.253 1801.32 224.077C1755.18 223.99 1725.5 252.998 1701.1 266.3C1662.04 287.586 1640.85 266.984 1640.85 253.015C1640.85 227.236 1667.44 224.27 1663.61 224.077H1663.57C1617.85 224.288 1588.34 253.068 1564.07 266.3C1525.02 287.586 1503.83 266.984 1503.83 253.015C1503.83 227.64 1529.56 224.376 1526.73 224.095H1526.72C1480.59 224.007 1450.91 253.015 1426.5 266.317C1387.45 287.586 1366.26 267.001 1366.26 253.033C1366.26 227.236 1392.84 224.27 1389.01 224.095H1388.98C1343.26 224.305 1313.75 253.085 1289.48 266.317C1250.42 287.586 1229.23 267.001 1229.23 253.033C1229.23 227.148 1255.99 224.253 1251.94 224.095C1205.81 224.007 1176.12 253.015 1151.73 266.317C1137.3 274.179 1125.31 276.32 1115.94 275.197C1099.91 273.284 1091.48 261.842 1091.48 253.033C1091.48 227.236 1118.06 224.27 1114.22 224.095H1114.19C1113.78 224.095 1113.39 224.095 1112.99 224.112C1067.96 224.814 1038.76 253.208 1014.69 266.317C1003.35 272.494 993.523 275.144 985.281 275.442C985.034 275.46 984.8 275.46 984.566 275.46C981.917 275.46 979.453 275.197 977.162 274.74C962.944 271.933 955.478 261.316 955.478 253.015C955.478 232.624 972.111 226.517 977.162 224.744C978.492 224.288 979.022 224.112 978.221 224.077H978.184C977.839 224.077 977.494 224.077 977.162 224.095C932.021 224.727 902.785 253.173 878.686 266.3C839.644 287.586 818.453 266.984 818.453 253.015C818.453 227.148 845.212 224.253 841.159 224.077C795.02 223.99 765.341 252.998 740.934 266.3C701.879 287.586 680.689 266.984 680.689 253.015C680.689 227.236 707.276 224.27 703.444 224.077H703.407C657.687 224.288 628.18 253.068 603.909 266.3C564.854 287.586 543.664 266.984 543.664 253.015C543.664 227.64 569.401 224.376 566.567 224.095C520.44 224.007 490.761 253.015 466.354 266.317C427.299 287.586 406.109 267.001 406.109 253.033C406.109 227.236 432.696 224.27 428.864 224.095H428.827C383.107 224.305 353.6 253.085 329.329 266.317C290.274 287.586 269.083 267.001 269.083 253.033C269.083 227.148 295.843 224.253 291.79 224.095C245.663 224.007 215.971 253.015 191.577 266.317C152.522 287.586 131.332 267.001 131.332 253.033C131.332 227.236 157.906 224.27 154.075 224.095H154.038C108.33 224.305 78.8228 253.085 54.5397 266.317C39.2134 274.67 26.6346 276.566 17.0125 274.951V224.393H17.0002Z" fill="#083242" stroke="#051C25" stroke-width="6" stroke-miterlimit="10"/>
<path d="M3997 266.56C3996.47 266.753 3996.42 266.841 3997 266.858V484.954H17V266.876C63.1391 266.964 92.8184 237.956 117.225 224.654C156.267 203.367 177.458 223.969 177.458 237.938C177.458 263.717 150.883 266.683 154.715 266.876H154.752C200.472 266.665 229.967 237.885 254.25 224.654C293.293 203.367 314.483 223.969 314.483 237.938C314.483 263.805 287.724 266.7 291.777 266.876C337.916 266.964 367.596 237.956 392.002 224.654C431.057 203.367 452.248 223.969 452.248 237.938C452.248 263.717 425.661 266.683 429.492 266.876H429.529C475.249 266.665 504.756 237.885 529.027 224.654C568.082 203.367 589.273 223.969 589.273 237.938C589.273 263.313 563.536 266.577 566.37 266.858H566.382C612.509 266.946 642.188 237.938 666.594 224.636C705.649 203.367 726.84 223.952 726.84 237.92C726.84 263.717 700.253 266.683 704.085 266.858H704.122C749.842 266.648 779.349 237.868 803.619 224.636C842.674 203.367 863.865 223.952 863.865 237.92C863.865 263.805 837.106 266.7 841.159 266.858C887.286 266.946 916.977 237.938 941.371 224.636C955.798 216.774 967.786 214.633 977.162 215.756C993.19 217.669 1001.62 229.111 1001.62 237.92C1001.62 263.717 975.042 266.683 978.874 266.858H978.911C979.318 266.858 979.712 266.858 980.106 266.841C1025.14 266.139 1054.34 237.745 1078.41 224.636C1089.74 218.459 1099.57 215.809 1107.82 215.511C1108.06 215.493 1108.3 215.493 1108.53 215.493C1111.18 215.493 1113.64 215.756 1115.94 216.213C1130.15 219.02 1137.62 229.637 1137.62 237.938C1137.62 258.33 1120.99 264.437 1115.94 266.209C1114.61 266.665 1114.08 266.841 1114.88 266.876H1114.91C1115.26 266.876 1115.6 266.876 1115.94 266.858C1161.08 266.226 1190.31 237.78 1214.41 224.654C1253.45 203.367 1274.64 223.969 1274.64 237.938C1274.64 263.805 1247.89 266.7 1251.94 266.876C1298.08 266.964 1327.76 237.956 1352.16 224.654C1391.22 203.367 1412.41 223.969 1412.41 237.938C1412.41 263.717 1385.82 266.683 1389.65 266.876H1389.69C1435.41 266.665 1464.92 237.885 1489.19 224.654C1528.24 203.367 1549.43 223.969 1549.43 237.938C1549.43 263.313 1523.7 266.577 1526.53 266.858H1526.54C1572.67 266.946 1602.35 237.938 1626.76 224.636C1665.81 203.367 1687 223.952 1687 237.92C1687 263.717 1660.41 266.683 1664.25 266.858H1664.28C1710 266.648 1739.51 237.868 1763.78 224.636C1802.84 203.367 1824.03 223.952 1824.03 237.92C1824.03 263.805 1797.27 266.7 1801.32 266.858C1847.45 266.946 1877.14 237.938 1901.53 224.636C1940.59 203.367 1961.78 223.952 1961.78 237.92C1961.78 263.699 1935.23 266.683 1939.04 266.858C1939.76 266.858 1940.49 266.858 1941.2 266.823C1941.67 266.823 1942.14 266.806 1942.61 266.771C1986.31 265.156 2014.92 237.517 2038.57 224.636C2049.14 218.88 2058.42 216.178 2066.3 215.598C2067.28 215.511 2068.23 215.493 2069.16 215.493C2071.63 215.493 2073.94 215.704 2076.1 216.09C2090.7 218.74 2098.36 229.532 2098.36 237.938C2098.36 259.189 2080.29 264.928 2076.1 266.402C2075.21 266.718 2074.94 266.841 2075.62 266.876H2076.1C2121.57 266.472 2150.94 237.85 2175.15 224.654C2214.19 203.367 2235.39 223.969 2235.39 237.938C2235.39 263.805 2208.63 266.7 2212.68 266.876C2258.82 266.964 2288.5 237.956 2312.9 224.654C2351.96 203.367 2373.15 223.969 2373.15 237.938C2373.15 263.717 2346.56 266.683 2350.39 266.876H2350.43C2396.15 266.665 2425.66 237.885 2449.93 224.654C2488.98 203.367 2510.17 223.969 2510.17 237.938C2510.17 263.313 2484.44 266.577 2487.27 266.858H2487.28C2533.41 266.946 2563.09 237.938 2587.5 224.636C2626.55 203.367 2647.74 223.952 2647.74 237.92C2647.74 263.717 2621.16 266.683 2624.99 266.858H2625.02C2670.74 266.648 2700.25 237.868 2724.52 224.636C2763.58 203.367 2784.77 223.952 2784.77 237.92C2784.77 263.805 2758.01 266.7 2762.06 266.858C2808.19 266.946 2837.88 237.938 2862.27 224.636C2876.7 216.774 2888.69 214.633 2898.06 215.756C2914.09 217.669 2922.52 229.111 2922.52 237.92C2922.52 263.717 2895.94 266.683 2899.78 266.858H2899.81C2900.22 266.858 2900.61 266.858 2901.01 266.841C2946.04 266.139 2975.24 237.745 2999.31 224.636C3010.65 218.459 3020.48 215.809 3028.72 215.511C3028.97 215.493 3029.2 215.493 3029.43 215.493C3032.08 215.493 3034.55 215.756 3036.84 216.213C3051.06 219.02 3058.52 229.637 3058.52 237.938C3058.52 258.33 3041.89 264.437 3036.84 266.209C3035.51 266.665 3034.98 266.841 3035.78 266.876H3035.82C3036.16 266.876 3036.51 266.876 3036.84 266.858C3081.98 266.226 3111.22 237.78 3135.31 224.654C3174.36 203.367 3195.55 223.969 3195.55 237.938C3195.55 263.805 3168.79 266.7 3172.84 266.876C3218.98 266.964 3248.66 237.956 3273.07 224.654C3312.12 203.367 3333.31 223.969 3333.31 237.938C3333.31 263.717 3306.72 266.683 3310.56 266.876H3310.59C3356.31 266.665 3385.82 237.885 3410.09 224.654C3449.15 203.367 3470.34 223.969 3470.34 237.938C3470.34 263.313 3444.6 266.577 3447.43 266.858C3493.56 266.946 3523.24 237.938 3547.65 224.636C3586.7 203.367 3607.89 223.952 3607.89 237.92C3607.89 263.717 3581.3 266.683 3585.14 266.858H3585.17C3630.89 266.648 3660.4 237.868 3684.67 224.636C3723.73 203.367 3744.92 223.952 3744.92 237.92C3744.92 263.805 3718.16 266.7 3722.21 266.858C3768.34 266.946 3798.03 237.938 3822.42 224.636C3861.48 203.367 3882.67 223.952 3882.67 237.92C3882.67 263.717 3856.09 266.683 3859.93 266.858H3859.96C3905.67 266.648 3935.18 237.868 3959.46 224.636C3974.79 216.283 3987.37 214.388 3996.99 216.002V266.56H3997Z" fill="#1A5C74" stroke="#051C25" stroke-width="6" stroke-miterlimit="10"/>
<path d="M3997 476.038C3996.47 476.231 3996.42 476.319 3997 476.337V694.432H17V476.354C63.1391 476.442 92.8184 447.434 117.225 434.132C156.267 412.846 177.458 433.448 177.458 447.416C177.458 473.196 150.883 476.161 154.715 476.354H154.752C200.472 476.144 229.967 447.364 254.25 434.132C293.293 412.846 314.483 433.448 314.483 447.416C314.483 473.283 287.724 476.179 291.777 476.354C337.916 476.442 367.596 447.434 392.002 434.132C431.057 412.846 452.248 433.448 452.248 447.416C452.248 473.196 425.661 476.161 429.492 476.354H429.529C475.249 476.144 504.756 447.364 529.027 434.132C568.082 412.846 589.273 433.448 589.273 447.416C589.273 472.792 563.536 476.056 566.37 476.337H566.382C612.509 476.425 642.188 447.416 666.594 434.115C705.649 412.846 726.84 433.43 726.84 447.399C726.84 473.196 700.253 476.161 704.085 476.337H704.122C749.842 476.126 779.349 447.346 803.619 434.115C842.674 412.846 863.865 433.43 863.865 447.399C863.865 473.283 837.106 476.179 841.159 476.337C887.286 476.425 916.977 447.416 941.371 434.115C955.798 426.253 967.786 424.112 977.162 425.235C993.19 427.148 1001.62 438.59 1001.62 447.399C1001.62 473.196 975.042 476.161 978.874 476.337H978.911C979.318 476.337 979.712 476.337 980.106 476.319C1025.14 475.617 1054.34 447.223 1078.41 434.115C1089.74 427.937 1099.57 425.288 1107.82 424.989C1108.06 424.972 1108.3 424.972 1108.53 424.972C1111.18 424.972 1113.64 425.235 1115.94 425.691C1130.15 428.499 1137.62 439.116 1137.62 447.416C1137.62 467.808 1120.99 473.915 1115.94 475.687C1114.61 476.144 1114.08 476.319 1114.88 476.354H1114.91C1115.26 476.354 1115.6 476.354 1115.94 476.337C1161.08 475.705 1190.31 447.259 1214.41 434.132C1253.45 412.846 1274.64 433.448 1274.64 447.416C1274.64 473.283 1247.89 476.179 1251.94 476.354C1298.08 476.442 1327.76 447.434 1352.16 434.132C1391.22 412.846 1412.41 433.448 1412.41 447.416C1412.41 473.196 1385.82 476.161 1389.65 476.354H1389.69C1435.41 476.144 1464.92 447.364 1489.19 434.132C1528.24 412.846 1549.43 433.448 1549.43 447.416C1549.43 472.792 1523.7 476.056 1526.53 476.337H1526.54C1572.67 476.425 1602.35 447.416 1626.76 434.115C1665.81 412.846 1687 433.43 1687 447.399C1687 473.196 1660.41 476.161 1664.25 476.337H1664.28C1710 476.126 1739.51 447.346 1763.78 434.115C1802.84 412.846 1824.03 433.43 1824.03 447.399C1824.03 473.283 1797.27 476.179 1801.32 476.337C1847.45 476.425 1877.14 447.416 1901.53 434.115C1940.59 412.846 1961.78 433.43 1961.78 447.399C1961.78 473.178 1935.23 476.161 1939.04 476.337C1939.76 476.337 1940.49 476.337 1941.2 476.302C1941.67 476.302 1942.14 476.284 1942.61 476.249C1986.31 474.635 2014.92 446.995 2038.57 434.115C2049.14 428.359 2058.42 425.656 2066.3 425.077C2067.28 424.989 2068.23 424.972 2069.16 424.972C2071.63 424.972 2073.94 425.182 2076.1 425.568C2090.7 428.218 2098.36 439.011 2098.36 447.416C2098.36 468.668 2080.29 474.406 2076.1 475.88C2075.21 476.196 2074.94 476.319 2075.62 476.354H2076.1C2121.57 475.951 2150.94 447.329 2175.15 434.132C2214.19 412.846 2235.39 433.448 2235.39 447.416C2235.39 473.283 2208.63 476.179 2212.68 476.354C2258.82 476.442 2288.5 447.434 2312.9 434.132C2351.96 412.846 2373.15 433.448 2373.15 447.416C2373.15 473.196 2346.56 476.161 2350.39 476.354H2350.43C2396.15 476.144 2425.66 447.364 2449.93 434.132C2488.98 412.846 2510.17 433.448 2510.17 447.416C2510.17 472.792 2484.44 476.056 2487.27 476.337H2487.28C2533.41 476.425 2563.09 447.416 2587.5 434.115C2626.55 412.846 2647.74 433.43 2647.74 447.399C2647.74 473.196 2621.16 476.161 2624.99 476.337H2625.02C2670.74 476.126 2700.25 447.346 2724.52 434.115C2763.58 412.846 2784.77 433.43 2784.77 447.399C2784.77 473.283 2758.01 476.179 2762.06 476.337C2808.19 476.425 2837.88 447.416 2862.27 434.115C2876.7 426.253 2888.69 424.112 2898.06 425.235C2914.09 427.148 2922.52 438.59 2922.52 447.399C2922.52 473.196 2895.94 476.161 2899.78 476.337H2899.81C2900.22 476.337 2900.61 476.337 2901.01 476.319C2946.04 475.617 2975.24 447.223 2999.31 434.115C3010.65 427.937 3020.48 425.288 3028.72 424.989C3028.97 424.972 3029.2 424.972 3029.43 424.972C3032.08 424.972 3034.55 425.235 3036.84 425.691C3051.06 428.499 3058.52 439.116 3058.52 447.416C3058.52 467.808 3041.89 473.915 3036.84 475.687C3035.51 476.144 3034.98 476.319 3035.78 476.354H3035.82C3036.16 476.354 3036.51 476.354 3036.84 476.337C3081.98 475.705 3111.22 447.259 3135.31 434.132C3174.36 412.846 3195.55 433.448 3195.55 447.416C3195.55 473.283 3168.79 476.179 3172.84 476.354C3218.98 476.442 3248.66 447.434 3273.07 434.132C3312.12 412.846 3333.31 433.448 3333.31 447.416C3333.31 473.196 3306.72 476.161 3310.56 476.354H3310.59C3356.31 476.144 3385.82 447.364 3410.09 434.132C3449.15 412.846 3470.34 433.448 3470.34 447.416C3470.34 472.792 3444.6 476.056 3447.43 476.337C3493.56 476.425 3523.24 447.416 3547.65 434.115C3586.7 412.846 3607.89 433.43 3607.89 447.399C3607.89 473.196 3581.3 476.161 3585.14 476.337H3585.17C3630.89 476.126 3660.4 447.346 3684.67 434.115C3723.73 412.846 3744.92 433.43 3744.92 447.399C3744.92 473.283 3718.16 476.179 3722.21 476.337C3768.34 476.425 3798.03 447.416 3822.42 434.115C3861.48 412.846 3882.67 433.43 3882.67 447.399C3882.67 473.196 3856.09 476.161 3859.93 476.337H3859.96C3905.67 476.126 3935.18 447.346 3959.46 434.115C3974.79 425.761 3987.37 423.866 3996.99 425.481V476.038H3997Z" fill="#083242" stroke="#051C25" stroke-width="6" stroke-miterlimit="10"/>
<path d="M3997 685.515C3996.47 685.708 3996.42 685.796 3997 685.813V903.909H17V685.831C63.1391 685.919 92.8184 656.911 117.225 643.609C156.267 622.322 177.458 642.924 177.458 656.893C177.458 682.672 150.883 685.638 154.715 685.831H154.752C200.472 685.62 229.967 656.84 254.25 643.609C293.293 622.322 314.483 642.924 314.483 656.893C314.483 682.76 287.724 685.655 291.777 685.831C337.916 685.919 367.596 656.911 392.002 643.609C431.057 622.322 452.248 642.924 452.248 656.893C452.248 682.672 425.661 685.638 429.492 685.831H429.529C475.249 685.62 504.756 656.84 529.027 643.609C568.082 622.322 589.273 642.924 589.273 656.893C589.273 682.268 563.536 685.533 566.37 685.813H566.382C612.509 685.901 642.188 656.893 666.594 643.591C705.649 622.322 726.84 642.907 726.84 656.876C726.84 682.672 700.253 685.638 704.085 685.813H704.122C749.842 685.603 779.349 656.823 803.619 643.591C842.674 622.322 863.865 642.907 863.865 656.876C863.865 682.76 837.106 685.655 841.159 685.813C887.286 685.901 916.977 656.893 941.371 643.591C955.798 635.729 967.786 633.588 977.162 634.711C993.19 636.624 1001.62 648.066 1001.62 656.876C1001.62 682.672 975.042 685.638 978.874 685.813H978.911C979.318 685.813 979.712 685.813 980.106 685.796C1025.14 685.094 1054.34 656.7 1078.41 643.591C1089.74 637.414 1099.57 634.764 1107.82 634.466C1108.06 634.448 1108.3 634.448 1108.53 634.448C1111.18 634.448 1113.64 634.712 1115.94 635.168C1130.15 637.976 1137.62 648.592 1137.62 656.893C1137.62 677.285 1120.99 683.392 1115.94 685.164C1114.61 685.62 1114.08 685.796 1114.88 685.831H1114.91C1115.26 685.831 1115.6 685.831 1115.94 685.813C1161.08 685.182 1190.31 656.735 1214.41 643.609C1253.45 622.322 1274.64 642.924 1274.64 656.893C1274.64 682.76 1247.89 685.655 1251.94 685.831C1298.08 685.919 1327.76 656.911 1352.16 643.609C1391.22 622.322 1412.41 642.924 1412.41 656.893C1412.41 682.672 1385.82 685.638 1389.65 685.831H1389.69C1435.41 685.62 1464.92 656.84 1489.19 643.609C1528.24 622.322 1549.43 642.924 1549.43 656.893C1549.43 682.268 1523.7 685.533 1526.53 685.813H1526.54C1572.67 685.901 1602.35 656.893 1626.76 643.591C1665.81 622.322 1687 642.907 1687 656.876C1687 682.672 1660.41 685.638 1664.25 685.813H1664.28C1710 685.603 1739.51 656.823 1763.78 643.591C1802.84 622.322 1824.03 642.907 1824.03 656.876C1824.03 682.76 1797.27 685.655 1801.32 685.813C1847.45 685.901 1877.14 656.893 1901.53 643.591C1940.59 622.322 1961.78 642.907 1961.78 656.876C1961.78 682.655 1935.23 685.638 1939.04 685.813C1939.76 685.813 1940.49 685.813 1941.2 685.778C1941.67 685.778 1942.14 685.761 1942.61 685.726C1986.31 684.111 2014.92 656.472 2038.57 643.591C2049.14 637.835 2058.42 635.133 2066.3 634.554C2067.28 634.466 2068.23 634.448 2069.16 634.448C2071.63 634.448 2073.94 634.659 2076.1 635.045C2090.7 637.695 2098.36 648.487 2098.36 656.893C2098.36 678.145 2080.29 683.883 2076.1 685.357C2075.21 685.673 2074.94 685.796 2075.62 685.831H2076.1C2121.57 685.427 2150.94 656.805 2175.15 643.609C2214.19 622.322 2235.39 642.924 2235.39 656.893C2235.39 682.76 2208.63 685.655 2212.68 685.831C2258.82 685.919 2288.5 656.911 2312.9 643.609C2351.96 622.322 2373.15 642.924 2373.15 656.893C2373.15 682.672 2346.56 685.638 2350.39 685.831H2350.43C2396.15 685.62 2425.66 656.84 2449.93 643.609C2488.98 622.322 2510.17 642.924 2510.17 656.893C2510.17 682.268 2484.44 685.533 2487.27 685.813H2487.28C2533.41 685.901 2563.09 656.893 2587.5 643.591C2626.55 622.322 2647.74 642.907 2647.74 656.876C2647.74 682.672 2621.16 685.638 2624.99 685.813H2625.02C2670.74 685.603 2700.25 656.823 2724.52 643.591C2763.58 622.322 2784.77 642.907 2784.77 656.876C2784.77 682.76 2758.01 685.655 2762.06 685.813C2808.19 685.901 2837.88 656.893 2862.27 643.591C2876.7 635.729 2888.69 633.588 2898.06 634.711C2914.09 636.624 2922.52 648.066 2922.52 656.876C2922.52 682.672 2895.94 685.638 2899.78 685.813H2899.81C2900.22 685.813 2900.61 685.813 2901.01 685.796C2946.04 685.094 2975.24 656.7 2999.31 643.591C3010.65 637.414 3020.48 634.764 3028.72 634.466C3028.97 634.448 3029.2 634.448 3029.43 634.448C3032.08 634.448 3034.55 634.712 3036.84 635.168C3051.06 637.976 3058.52 648.592 3058.52 656.893C3058.52 677.285 3041.89 683.392 3036.84 685.164C3035.51 685.62 3034.98 685.796 3035.78 685.831H3035.82C3036.16 685.831 3036.51 685.831 3036.84 685.813C3081.98 685.182 3111.22 656.735 3135.31 643.609C3174.36 622.322 3195.55 642.924 3195.55 656.893C3195.55 682.76 3168.79 685.655 3172.84 685.831C3218.98 685.919 3248.66 656.911 3273.07 643.609C3312.12 622.322 3333.31 642.924 3333.31 656.893C3333.31 682.672 3306.72 685.638 3310.56 685.831H3310.59C3356.31 685.62 3385.82 656.84 3410.09 643.609C3449.15 622.322 3470.34 642.924 3470.34 656.893C3470.34 682.268 3444.6 685.533 3447.43 685.813C3493.56 685.901 3523.24 656.893 3547.65 643.591C3586.7 622.322 3607.89 642.907 3607.89 656.876C3607.89 682.672 3581.3 685.638 3585.14 685.813H3585.17C3630.89 685.603 3660.4 656.823 3684.67 643.591C3723.73 622.322 3744.92 642.907 3744.92 656.876C3744.92 682.76 3718.16 685.655 3722.21 685.813C3768.34 685.901 3798.03 656.893 3822.42 643.591C3861.48 622.322 3882.67 642.907 3882.67 656.876C3882.67 682.672 3856.09 685.638 3859.93 685.813H3859.96C3905.67 685.603 3935.18 656.823 3959.46 643.591C3974.79 635.238 3987.37 633.343 3996.99 634.957V685.515H3997Z" fill="#1A5C74" stroke="#051C25" stroke-width="6" stroke-miterlimit="10"/>
<path d="M3997 894.992C3996.47 895.185 3996.42 895.272 3997 895.29V1113.39H17V895.307C63.1391 895.395 92.8184 866.387 117.225 853.085C156.267 831.799 177.458 852.401 177.458 866.37C177.458 892.149 150.883 895.114 154.715 895.307H154.752C200.472 895.097 229.967 866.317 254.25 853.085C293.293 831.799 314.483 852.401 314.483 866.37C314.483 892.236 287.724 895.132 291.777 895.307C337.916 895.395 367.596 866.387 392.002 853.085C431.057 831.799 452.248 852.401 452.248 866.37C452.248 892.149 425.661 895.114 429.492 895.307H429.529C475.249 895.097 504.756 866.317 529.027 853.085C568.082 831.799 589.273 852.401 589.273 866.37C589.273 891.745 563.536 895.009 566.37 895.29H566.382C612.509 895.378 642.188 866.37 666.594 853.068C705.649 831.799 726.84 852.383 726.84 866.352C726.84 892.149 700.253 895.114 704.085 895.29H704.122C749.842 895.079 779.349 866.299 803.619 853.068C842.674 831.799 863.865 852.383 863.865 866.352C863.865 892.236 837.106 895.132 841.159 895.29C887.286 895.378 916.977 866.37 941.371 853.068C955.798 845.206 967.786 843.065 977.162 844.188C993.19 846.101 1001.62 857.543 1001.62 866.352C1001.62 892.149 975.042 895.114 978.874 895.29H978.911C979.318 895.29 979.712 895.29 980.106 895.272C1025.14 894.57 1054.34 866.177 1078.41 853.068C1089.74 846.891 1099.57 844.241 1107.82 843.942C1108.06 843.925 1108.3 843.925 1108.53 843.925C1111.18 843.925 1113.64 844.188 1115.94 844.644C1130.15 847.452 1137.62 858.069 1137.62 866.37C1137.62 886.761 1120.99 892.868 1115.94 894.641C1114.61 895.097 1114.08 895.272 1114.88 895.307H1114.91C1115.26 895.307 1115.6 895.307 1115.94 895.29C1161.08 894.658 1190.31 866.212 1214.41 853.085C1253.45 831.799 1274.64 852.401 1274.64 866.37C1274.64 892.236 1247.89 895.132 1251.94 895.307C1298.08 895.395 1327.76 866.387 1352.16 853.085C1391.22 831.799 1412.41 852.401 1412.41 866.37C1412.41 892.149 1385.82 895.114 1389.65 895.307H1389.69C1435.41 895.097 1464.92 866.317 1489.19 853.085C1528.24 831.799 1549.43 852.401 1549.43 866.37C1549.43 891.745 1523.7 895.009 1526.53 895.29H1526.54C1572.67 895.378 1602.35 866.37 1626.76 853.068C1665.81 831.799 1687 852.383 1687 866.352C1687 892.149 1660.41 895.114 1664.25 895.29H1664.28C1710 895.079 1739.51 866.299 1763.78 853.068C1802.84 831.799 1824.03 852.383 1824.03 866.352C1824.03 892.236 1797.27 895.132 1801.32 895.29C1847.45 895.378 1877.14 866.37 1901.53 853.068C1940.59 831.799 1961.78 852.383 1961.78 866.352C1961.78 892.131 1935.23 895.114 1939.04 895.29C1939.76 895.29 1940.49 895.29 1941.2 895.255C1941.67 895.255 1942.14 895.237 1942.61 895.202C1986.31 893.588 2014.92 865.948 2038.57 853.068C2049.14 847.312 2058.42 844.609 2066.3 844.03C2067.28 843.942 2068.23 843.925 2069.16 843.925C2071.63 843.925 2073.94 844.135 2076.1 844.521C2090.7 847.171 2098.36 857.964 2098.36 866.37C2098.36 887.621 2080.29 893.36 2076.1 894.834C2075.21 895.149 2074.94 895.272 2075.62 895.307H2076.1C2121.57 894.904 2150.94 866.282 2175.15 853.085C2214.19 831.799 2235.39 852.401 2235.39 866.37C2235.39 892.236 2208.63 895.132 2212.68 895.307C2258.82 895.395 2288.5 866.387 2312.9 853.085C2351.96 831.799 2373.15 852.401 2373.15 866.37C2373.15 892.149 2346.56 895.114 2350.39 895.307H2350.43C2396.15 895.097 2425.66 866.317 2449.93 853.085C2488.98 831.799 2510.17 852.401 2510.17 866.37C2510.17 891.745 2484.44 895.009 2487.27 895.29H2487.28C2533.41 895.378 2563.09 866.37 2587.5 853.068C2626.55 831.799 2647.74 852.383 2647.74 866.352C2647.74 892.149 2621.16 895.114 2624.99 895.29H2625.02C2670.74 895.079 2700.25 866.299 2724.52 853.068C2763.58 831.799 2784.77 852.383 2784.77 866.352C2784.77 892.236 2758.01 895.132 2762.06 895.29C2808.19 895.378 2837.88 866.37 2862.27 853.068C2876.7 845.206 2888.69 843.065 2898.06 844.188C2914.09 846.101 2922.52 857.543 2922.52 866.352C2922.52 892.149 2895.94 895.114 2899.78 895.29H2899.81C2900.22 895.29 2900.61 895.29 2901.01 895.272C2946.04 894.57 2975.24 866.177 2999.31 853.068C3010.65 846.891 3020.48 844.241 3028.72 843.942C3028.97 843.925 3029.2 843.925 3029.43 843.925C3032.08 843.925 3034.55 844.188 3036.84 844.644C3051.06 847.452 3058.52 858.069 3058.52 866.37C3058.52 886.761 3041.89 892.868 3036.84 894.641C3035.51 895.097 3034.98 895.272 3035.78 895.307H3035.82C3036.16 895.307 3036.51 895.307 3036.84 895.29C3081.98 894.658 3111.22 866.212 3135.31 853.085C3174.36 831.799 3195.55 852.401 3195.55 866.37C3195.55 892.236 3168.79 895.132 3172.84 895.307C3218.98 895.395 3248.66 866.387 3273.07 853.085C3312.12 831.799 3333.31 852.401 3333.31 866.37C3333.31 892.149 3306.72 895.114 3310.56 895.307H3310.59C3356.31 895.097 3385.82 866.317 3410.09 853.085C3449.15 831.799 3470.34 852.401 3470.34 866.37C3470.34 891.745 3444.6 895.009 3447.43 895.29C3493.56 895.378 3523.24 866.37 3547.65 853.068C3586.7 831.799 3607.89 852.383 3607.89 866.352C3607.89 892.149 3581.3 895.114 3585.14 895.29H3585.17C3630.89 895.079 3660.4 866.299 3684.67 853.068C3723.73 831.799 3744.92 852.383 3744.92 866.352C3744.92 892.236 3718.16 895.132 3722.21 895.29C3768.34 895.378 3798.03 866.37 3822.42 853.068C3861.48 831.799 3882.67 852.383 3882.67 866.352C3882.67 892.149 3856.09 895.114 3859.93 895.29H3859.96C3905.67 895.079 3935.18 866.299 3959.46 853.068C3974.79 844.715 3987.37 842.819 3996.99 844.434V894.992H3997Z" fill="#083242" stroke="#051C25" stroke-width="6" stroke-miterlimit="10"/>
<path d="M3997 1104.47C3996.47 1104.66 3996.42 1104.75 3997 1104.77V1322.86H17V1104.78C63.1391 1104.87 92.8184 1075.86 117.225 1062.56C156.267 1041.28 177.458 1061.88 177.458 1075.85C177.458 1101.63 150.883 1104.59 154.715 1104.78H154.752C200.472 1104.57 229.967 1075.79 254.25 1062.56C293.293 1041.28 314.483 1061.88 314.483 1075.85C314.483 1101.71 287.724 1104.61 291.777 1104.78C337.916 1104.87 367.596 1075.86 392.002 1062.56C431.057 1041.28 452.248 1061.88 452.248 1075.85C452.248 1101.63 425.661 1104.59 429.492 1104.78H429.529C475.249 1104.57 504.756 1075.79 529.027 1062.56C568.082 1041.28 589.273 1061.88 589.273 1075.85C589.273 1101.22 563.536 1104.49 566.37 1104.77H566.382C612.509 1104.85 642.188 1075.85 666.594 1062.54C705.649 1041.28 726.84 1061.86 726.84 1075.83C726.84 1101.63 700.253 1104.59 704.085 1104.77H704.122C749.842 1104.56 779.349 1075.78 803.619 1062.54C842.674 1041.28 863.865 1061.86 863.865 1075.83C863.865 1101.71 837.106 1104.61 841.159 1104.77C887.286 1104.85 916.977 1075.85 941.371 1062.54C955.798 1054.68 967.786 1052.54 977.162 1053.66C993.19 1055.58 1001.62 1067.02 1001.62 1075.83C1001.62 1101.63 975.042 1104.59 978.874 1104.77H978.911C979.318 1104.77 979.712 1104.77 980.106 1104.75C1025.14 1104.05 1054.34 1075.65 1078.41 1062.54C1089.74 1056.37 1099.57 1053.72 1107.82 1053.42C1108.06 1053.4 1108.3 1053.4 1108.53 1053.4C1111.18 1053.4 1113.64 1053.66 1115.94 1054.12C1130.15 1056.93 1137.62 1067.55 1137.62 1075.85C1137.62 1096.24 1120.99 1102.34 1115.94 1104.12C1114.61 1104.57 1114.08 1104.75 1114.88 1104.78H1114.91C1115.26 1104.78 1115.6 1104.78 1115.94 1104.77C1161.08 1104.13 1190.31 1075.69 1214.41 1062.56C1253.45 1041.28 1274.64 1061.88 1274.64 1075.85C1274.64 1101.71 1247.89 1104.61 1251.94 1104.78C1298.08 1104.87 1327.76 1075.86 1352.16 1062.56C1391.22 1041.28 1412.41 1061.88 1412.41 1075.85C1412.41 1101.63 1385.82 1104.59 1389.65 1104.78H1389.69C1435.41 1104.57 1464.92 1075.79 1489.19 1062.56C1528.24 1041.28 1549.43 1061.88 1549.43 1075.85C1549.43 1101.22 1523.7 1104.49 1526.53 1104.77H1526.54C1572.67 1104.85 1602.35 1075.85 1626.76 1062.54C1665.81 1041.28 1687 1061.86 1687 1075.83C1687 1101.63 1660.41 1104.59 1664.25 1104.77H1664.28C1710 1104.56 1739.51 1075.78 1763.78 1062.54C1802.84 1041.28 1824.03 1061.86 1824.03 1075.83C1824.03 1101.71 1797.27 1104.61 1801.32 1104.77C1847.45 1104.85 1877.14 1075.85 1901.53 1062.54C1940.59 1041.28 1961.78 1061.86 1961.78 1075.83C1961.78 1101.61 1935.23 1104.59 1939.04 1104.77C1939.76 1104.77 1940.49 1104.77 1941.2 1104.73C1941.67 1104.73 1942.14 1104.71 1942.61 1104.68C1986.31 1103.06 2014.92 1075.43 2038.57 1062.54C2049.14 1056.79 2058.42 1054.09 2066.3 1053.51C2067.28 1053.42 2068.23 1053.4 2069.16 1053.4C2071.63 1053.4 2073.94 1053.61 2076.1 1054C2090.7 1056.65 2098.36 1067.44 2098.36 1075.85C2098.36 1097.1 2080.29 1102.84 2076.1 1104.31C2075.21 1104.63 2074.94 1104.75 2075.62 1104.78H2076.1C2121.57 1104.38 2150.94 1075.76 2175.15 1062.56C2214.19 1041.28 2235.39 1061.88 2235.39 1075.85C2235.39 1101.71 2208.63 1104.61 2212.68 1104.78C2258.82 1104.87 2288.5 1075.86 2312.9 1062.56C2351.96 1041.28 2373.15 1061.88 2373.15 1075.85C2373.15 1101.63 2346.56 1104.59 2350.39 1104.78H2350.43C2396.15 1104.57 2425.66 1075.79 2449.93 1062.56C2488.98 1041.28 2510.17 1061.88 2510.17 1075.85C2510.17 1101.22 2484.44 1104.49 2487.27 1104.77H2487.28C2533.41 1104.85 2563.09 1075.85 2587.5 1062.54C2626.55 1041.28 2647.74 1061.86 2647.74 1075.83C2647.74 1101.63 2621.16 1104.59 2624.99 1104.77H2625.02C2670.74 1104.56 2700.25 1075.78 2724.52 1062.54C2763.58 1041.28 2784.77 1061.86 2784.77 1075.83C2784.77 1101.71 2758.01 1104.61 2762.06 1104.77C2808.19 1104.85 2837.88 1075.85 2862.27 1062.54C2876.7 1054.68 2888.69 1052.54 2898.06 1053.66C2914.09 1055.58 2922.52 1067.02 2922.52 1075.83C2922.52 1101.63 2895.94 1104.59 2899.78 1104.77H2899.81C2900.22 1104.77 2900.61 1104.77 2901.01 1104.75C2946.04 1104.05 2975.24 1075.65 2999.31 1062.54C3010.65 1056.37 3020.48 1053.72 3028.72 1053.42C3028.97 1053.4 3029.2 1053.4 3029.43 1053.4C3032.08 1053.4 3034.55 1053.66 3036.84 1054.12C3051.06 1056.93 3058.52 1067.55 3058.52 1075.85C3058.52 1096.24 3041.89 1102.34 3036.84 1104.12C3035.51 1104.57 3034.98 1104.75 3035.78 1104.78H3035.82C3036.16 1104.78 3036.51 1104.78 3036.84 1104.77C3081.98 1104.13 3111.22 1075.69 3135.31 1062.56C3174.36 1041.28 3195.55 1061.88 3195.55 1075.85C3195.55 1101.71 3168.79 1104.61 3172.84 1104.78C3218.98 1104.87 3248.66 1075.86 3273.07 1062.56C3312.12 1041.28 3333.31 1061.88 3333.31 1075.85C3333.31 1101.63 3306.72 1104.59 3310.56 1104.78H3310.59C3356.31 1104.57 3385.82 1075.79 3410.09 1062.56C3449.15 1041.28 3470.34 1061.88 3470.34 1075.85C3470.34 1101.22 3444.6 1104.49 3447.43 1104.77C3493.56 1104.85 3523.24 1075.85 3547.65 1062.54C3586.7 1041.28 3607.89 1061.86 3607.89 1075.83C3607.89 1101.63 3581.3 1104.59 3585.14 1104.77H3585.17C3630.89 1104.56 3660.4 1075.78 3684.67 1062.54C3723.73 1041.28 3744.92 1061.86 3744.92 1075.83C3744.92 1101.71 3718.16 1104.61 3722.21 1104.77C3768.34 1104.85 3798.03 1075.85 3822.42 1062.54C3861.48 1041.28 3882.67 1061.86 3882.67 1075.83C3882.67 1101.63 3856.09 1104.59 3859.93 1104.77H3859.96C3905.67 1104.56 3935.18 1075.78 3959.46 1062.54C3974.79 1054.19 3987.37 1052.3 3996.99 1053.91V1104.47H3997Z" fill="#1A5C74" stroke="#051C25" stroke-width="6" stroke-miterlimit="10"/>
<path d="M3997 1313.95C3996.47 1314.14 3996.42 1314.23 3997 1314.24V1532.34H17V1314.26C63.1391 1314.35 92.8184 1285.34 117.225 1272.04C156.267 1250.75 177.458 1271.36 177.458 1285.32C177.458 1311.1 150.883 1314.07 154.715 1314.26H154.752C200.472 1314.05 229.967 1285.27 254.25 1272.04C293.293 1250.75 314.483 1271.36 314.483 1285.32C314.483 1311.19 287.724 1314.09 291.777 1314.26C337.916 1314.35 367.596 1285.34 392.002 1272.04C431.057 1250.75 452.248 1271.36 452.248 1285.32C452.248 1311.1 425.661 1314.07 429.492 1314.26H429.529C475.249 1314.05 504.756 1285.27 529.027 1272.04C568.082 1250.75 589.273 1271.36 589.273 1285.32C589.273 1310.7 563.536 1313.96 566.37 1314.24H566.382C612.509 1314.33 642.188 1285.32 666.594 1272.02C705.649 1250.75 726.84 1271.34 726.84 1285.31C726.84 1311.1 700.253 1314.07 704.085 1314.24H704.122C749.842 1314.03 779.349 1285.25 803.619 1272.02C842.674 1250.75 863.865 1271.34 863.865 1285.31C863.865 1311.19 837.106 1314.09 841.159 1314.24C887.286 1314.33 916.977 1285.32 941.371 1272.02C955.798 1264.16 967.786 1262.02 977.162 1263.14C993.19 1265.06 1001.62 1276.5 1001.62 1285.31C1001.62 1311.1 975.042 1314.07 978.874 1314.24H978.911C979.318 1314.24 979.712 1314.24 980.106 1314.23C1025.14 1313.53 1054.34 1285.13 1078.41 1272.02C1089.74 1265.85 1099.57 1263.2 1107.82 1262.9C1108.06 1262.88 1108.3 1262.88 1108.53 1262.88C1111.18 1262.88 1113.64 1263.14 1115.94 1263.6C1130.15 1266.41 1137.62 1277.02 1137.62 1285.32C1137.62 1305.72 1120.99 1311.82 1115.94 1313.6C1114.61 1314.05 1114.08 1314.23 1114.88 1314.26H1114.91C1115.26 1314.26 1115.6 1314.26 1115.94 1314.24C1161.08 1313.61 1190.31 1285.17 1214.41 1272.04C1253.45 1250.75 1274.64 1271.36 1274.64 1285.32C1274.64 1311.19 1247.89 1314.09 1251.94 1314.26C1298.08 1314.35 1327.76 1285.34 1352.16 1272.04C1391.22 1250.75 1412.41 1271.36 1412.41 1285.32C1412.41 1311.1 1385.82 1314.07 1389.65 1314.26H1389.69C1435.41 1314.05 1464.92 1285.27 1489.19 1272.04C1528.24 1250.75 1549.43 1271.36 1549.43 1285.32C1549.43 1310.7 1523.7 1313.96 1526.53 1314.24H1526.54C1572.67 1314.33 1602.35 1285.32 1626.76 1272.02C1665.81 1250.75 1687 1271.34 1687 1285.31C1687 1311.1 1660.41 1314.07 1664.25 1314.24H1664.28C1710 1314.03 1739.51 1285.25 1763.78 1272.02C1802.84 1250.75 1824.03 1271.34 1824.03 1285.31C1824.03 1311.19 1797.27 1314.09 1801.32 1314.24C1847.45 1314.33 1877.14 1285.32 1901.53 1272.02C1940.59 1250.75 1961.78 1271.34 1961.78 1285.31C1961.78 1311.09 1935.23 1314.07 1939.04 1314.24C1939.76 1314.24 1940.49 1314.24 1941.2 1314.21C1941.67 1314.21 1942.14 1314.19 1942.61 1314.16C1986.31 1312.54 2014.92 1284.9 2038.57 1272.02C2049.14 1266.27 2058.42 1263.56 2066.3 1262.99C2067.28 1262.9 2068.23 1262.88 2069.16 1262.88C2071.63 1262.88 2073.94 1263.09 2076.1 1263.48C2090.7 1266.13 2098.36 1276.92 2098.36 1285.32C2098.36 1306.58 2080.29 1312.31 2076.1 1313.79C2075.21 1314.1 2074.94 1314.23 2075.62 1314.26H2076.1C2121.57 1313.86 2150.94 1285.24 2175.15 1272.04C2214.19 1250.75 2235.39 1271.36 2235.39 1285.32C2235.39 1311.19 2208.63 1314.09 2212.68 1314.26C2258.82 1314.35 2288.5 1285.34 2312.9 1272.04C2351.96 1250.75 2373.15 1271.36 2373.15 1285.32C2373.15 1311.1 2346.56 1314.07 2350.39 1314.26H2350.43C2396.15 1314.05 2425.66 1285.27 2449.93 1272.04C2488.98 1250.75 2510.17 1271.36 2510.17 1285.32C2510.17 1310.7 2484.44 1313.96 2487.27 1314.24H2487.28C2533.41 1314.33 2563.09 1285.32 2587.5 1272.02C2626.55 1250.75 2647.74 1271.34 2647.74 1285.31C2647.74 1311.1 2621.16 1314.07 2624.99 1314.24H2625.02C2670.74 1314.03 2700.25 1285.25 2724.52 1272.02C2763.58 1250.75 2784.77 1271.34 2784.77 1285.31C2784.77 1311.19 2758.01 1314.09 2762.06 1314.24C2808.19 1314.33 2837.88 1285.32 2862.27 1272.02C2876.7 1264.16 2888.69 1262.02 2898.06 1263.14C2914.09 1265.06 2922.52 1276.5 2922.52 1285.31C2922.52 1311.1 2895.94 1314.07 2899.78 1314.24H2899.81C2900.22 1314.24 2900.61 1314.24 2901.01 1314.23C2946.04 1313.53 2975.24 1285.13 2999.31 1272.02C3010.65 1265.85 3020.48 1263.2 3028.72 1262.9C3028.97 1262.88 3029.2 1262.88 3029.43 1262.88C3032.08 1262.88 3034.55 1263.14 3036.84 1263.6C3051.06 1266.41 3058.52 1277.02 3058.52 1285.32C3058.52 1305.72 3041.89 1311.82 3036.84 1313.6C3035.51 1314.05 3034.98 1314.23 3035.78 1314.26H3035.82C3036.16 1314.26 3036.51 1314.26 3036.84 1314.24C3081.98 1313.61 3111.22 1285.17 3135.31 1272.04C3174.36 1250.75 3195.55 1271.36 3195.55 1285.32C3195.55 1311.19 3168.79 1314.09 3172.84 1314.26C3218.98 1314.35 3248.66 1285.34 3273.07 1272.04C3312.12 1250.75 3333.31 1271.36 3333.31 1285.32C3333.31 1311.1 3306.72 1314.07 3310.56 1314.26H3310.59C3356.31 1314.05 3385.82 1285.27 3410.09 1272.04C3449.15 1250.75 3470.34 1271.36 3470.34 1285.32C3470.34 1310.7 3444.6 1313.96 3447.43 1314.24C3493.56 1314.33 3523.24 1285.32 3547.65 1272.02C3586.7 1250.75 3607.89 1271.34 3607.89 1285.31C3607.89 1311.1 3581.3 1314.07 3585.14 1314.24H3585.17C3630.89 1314.03 3660.4 1285.25 3684.67 1272.02C3723.73 1250.75 3744.92 1271.34 3744.92 1285.31C3744.92 1311.19 3718.16 1314.09 3722.21 1314.24C3768.34 1314.33 3798.03 1285.32 3822.42 1272.02C3861.48 1250.75 3882.67 1271.34 3882.67 1285.31C3882.67 1311.1 3856.09 1314.07 3859.93 1314.24H3859.96C3905.67 1314.03 3935.18 1285.25 3959.46 1272.02C3974.79 1263.67 3987.37 1261.77 3996.99 1263.39V1313.95H3997Z" fill="#083242" stroke="#051C25" stroke-width="6" stroke-miterlimit="10"/>
<path d="M3997 1523.42C3996.47 1523.62 3996.42 1523.7 3997 1523.72V1741.82H17V1523.74C63.1391 1523.83 92.8184 1494.82 117.225 1481.52C156.267 1460.23 177.458 1480.83 177.458 1494.8C177.458 1520.58 150.883 1523.55 154.715 1523.74H154.752C200.472 1523.53 229.967 1494.75 254.25 1481.52C293.293 1460.23 314.483 1480.83 314.483 1494.8C314.483 1520.67 287.724 1523.56 291.777 1523.74C337.916 1523.83 367.596 1494.82 392.002 1481.52C431.057 1460.23 452.248 1480.83 452.248 1494.8C452.248 1520.58 425.661 1523.55 429.492 1523.74H429.529C475.249 1523.53 504.756 1494.75 529.027 1481.52C568.082 1460.23 589.273 1480.83 589.273 1494.8C589.273 1520.18 563.536 1523.44 566.37 1523.72H566.382C612.509 1523.81 642.188 1494.8 666.594 1481.5C705.649 1460.23 726.84 1480.81 726.84 1494.78C726.84 1520.58 700.253 1523.55 704.085 1523.72H704.122C749.842 1523.51 779.349 1494.73 803.619 1481.5C842.674 1460.23 863.865 1480.81 863.865 1494.78C863.865 1520.67 837.106 1523.56 841.159 1523.72C887.286 1523.81 916.977 1494.8 941.371 1481.5C955.798 1473.64 967.786 1471.5 977.162 1472.62C993.19 1474.53 1001.62 1485.97 1001.62 1494.78C1001.62 1520.58 975.042 1523.55 978.874 1523.72H978.911C979.318 1523.72 979.712 1523.72 980.106 1523.7C1025.14 1523 1054.34 1494.61 1078.41 1481.5C1089.74 1475.32 1099.57 1472.67 1107.82 1472.37C1108.06 1472.36 1108.3 1472.36 1108.53 1472.36C1111.18 1472.36 1113.64 1472.62 1115.94 1473.08C1130.15 1475.88 1137.62 1486.5 1137.62 1494.8C1137.62 1515.19 1120.99 1521.3 1115.94 1523.07C1114.61 1523.53 1114.08 1523.7 1114.88 1523.74H1114.91C1115.26 1523.74 1115.6 1523.74 1115.94 1523.72C1161.08 1523.09 1190.31 1494.64 1214.41 1481.52C1253.45 1460.23 1274.64 1480.83 1274.64 1494.8C1274.64 1520.67 1247.89 1523.56 1251.94 1523.74C1298.08 1523.83 1327.76 1494.82 1352.16 1481.52C1391.22 1460.23 1412.41 1480.83 1412.41 1494.8C1412.41 1520.58 1385.82 1523.55 1389.65 1523.74H1389.69C1435.41 1523.53 1464.92 1494.75 1489.19 1481.52C1528.24 1460.23 1549.43 1480.83 1549.43 1494.8C1549.43 1520.18 1523.7 1523.44 1526.53 1523.72H1526.54C1572.67 1523.81 1602.35 1494.8 1626.76 1481.5C1665.81 1460.23 1687 1480.81 1687 1494.78C1687 1520.58 1660.41 1523.55 1664.25 1523.72H1664.28C1710 1523.51 1739.51 1494.73 1763.78 1481.5C1802.84 1460.23 1824.03 1480.81 1824.03 1494.78C1824.03 1520.67 1797.27 1523.56 1801.32 1523.72C1847.45 1523.81 1877.14 1494.8 1901.53 1481.5C1940.59 1460.23 1961.78 1480.81 1961.78 1494.78C1961.78 1520.56 1935.23 1523.55 1939.04 1523.72C1939.76 1523.72 1940.49 1523.72 1941.2 1523.69C1941.67 1523.69 1942.14 1523.67 1942.61 1523.63C1986.31 1522.02 2014.92 1494.38 2038.57 1481.5C2049.14 1475.74 2058.42 1473.04 2066.3 1472.46C2067.28 1472.37 2068.23 1472.36 2069.16 1472.36C2071.63 1472.36 2073.94 1472.57 2076.1 1472.95C2090.7 1475.6 2098.36 1486.4 2098.36 1494.8C2098.36 1516.05 2080.29 1521.79 2076.1 1523.27C2075.21 1523.58 2074.94 1523.7 2075.62 1523.74H2076.1C2121.57 1523.34 2150.94 1494.71 2175.15 1481.52C2214.19 1460.23 2235.39 1480.83 2235.39 1494.8C2235.39 1520.67 2208.63 1523.56 2212.68 1523.74C2258.82 1523.83 2288.5 1494.82 2312.9 1481.52C2351.96 1460.23 2373.15 1480.83 2373.15 1494.8C2373.15 1520.58 2346.56 1523.55 2350.39 1523.74H2350.43C2396.15 1523.53 2425.66 1494.75 2449.93 1481.52C2488.98 1460.23 2510.17 1480.83 2510.17 1494.8C2510.17 1520.18 2484.44 1523.44 2487.27 1523.72H2487.28C2533.41 1523.81 2563.09 1494.8 2587.5 1481.5C2626.55 1460.23 2647.74 1480.81 2647.74 1494.78C2647.74 1520.58 2621.16 1523.55 2624.99 1523.72H2625.02C2670.74 1523.51 2700.25 1494.73 2724.52 1481.5C2763.58 1460.23 2784.77 1480.81 2784.77 1494.78C2784.77 1520.67 2758.01 1523.56 2762.06 1523.72C2808.19 1523.81 2837.88 1494.8 2862.27 1481.5C2876.7 1473.64 2888.69 1471.5 2898.06 1472.62C2914.09 1474.53 2922.52 1485.97 2922.52 1494.78C2922.52 1520.58 2895.94 1523.55 2899.78 1523.72H2899.81C2900.22 1523.72 2900.61 1523.72 2901.01 1523.7C2946.04 1523 2975.24 1494.61 2999.31 1481.5C3010.65 1475.32 3020.48 1472.67 3028.72 1472.37C3028.97 1472.36 3029.2 1472.36 3029.43 1472.36C3032.08 1472.36 3034.55 1472.62 3036.84 1473.08C3051.06 1475.88 3058.52 1486.5 3058.52 1494.8C3058.52 1515.19 3041.89 1521.3 3036.84 1523.07C3035.51 1523.53 3034.98 1523.7 3035.78 1523.74H3035.82C3036.16 1523.74 3036.51 1523.74 3036.84 1523.72C3081.98 1523.09 3111.22 1494.64 3135.31 1481.52C3174.36 1460.23 3195.55 1480.83 3195.55 1494.8C3195.55 1520.67 3168.79 1523.56 3172.84 1523.74C3218.98 1523.83 3248.66 1494.82 3273.07 1481.52C3312.12 1460.23 3333.31 1480.83 3333.31 1494.8C3333.31 1520.58 3306.72 1523.55 3310.56 1523.74H3310.59C3356.31 1523.53 3385.82 1494.75 3410.09 1481.52C3449.15 1460.23 3470.34 1480.83 3470.34 1494.8C3470.34 1520.18 3444.6 1523.44 3447.43 1523.72C3493.56 1523.81 3523.24 1494.8 3547.65 1481.5C3586.7 1460.23 3607.89 1480.81 3607.89 1494.78C3607.89 1520.58 3581.3 1523.55 3585.14 1523.72H3585.17C3630.89 1523.51 3660.4 1494.73 3684.67 1481.5C3723.73 1460.23 3744.92 1480.81 3744.92 1494.78C3744.92 1520.67 3718.16 1523.56 3722.21 1523.72C3768.34 1523.81 3798.03 1494.8 3822.42 1481.5C3861.48 1460.23 3882.67 1480.81 3882.67 1494.78C3882.67 1520.58 3856.09 1523.55 3859.93 1523.72H3859.96C3905.67 1523.51 3935.18 1494.73 3959.46 1481.5C3974.79 1473.15 3987.37 1471.25 3996.99 1472.87V1523.42H3997Z" fill="#1A5C74" stroke="#051C25" stroke-width="6" stroke-miterlimit="10"/>
<path d="M3997 1732.9C3996.47 1733.09 3996.42 1733.18 3997 1733.2V1951.29H17V1733.22C63.1391 1733.3 92.8184 1704.3 117.225 1690.99C156.267 1669.71 177.458 1690.31 177.458 1704.28C177.458 1730.06 150.883 1733.02 154.715 1733.22H154.752C200.472 1733.01 229.967 1704.23 254.25 1690.99C293.293 1669.71 314.483 1690.31 314.483 1704.28C314.483 1730.14 287.724 1733.04 291.777 1733.22C337.916 1733.3 367.596 1704.3 392.002 1690.99C431.057 1669.71 452.248 1690.31 452.248 1704.28C452.248 1730.06 425.661 1733.02 429.492 1733.22H429.529C475.249 1733.01 504.756 1704.23 529.027 1690.99C568.082 1669.71 589.273 1690.31 589.273 1704.28C589.273 1729.65 563.536 1732.92 566.37 1733.2H566.382C612.509 1733.29 642.188 1704.28 666.594 1690.98C705.649 1669.71 726.84 1690.29 726.84 1704.26C726.84 1730.06 700.253 1733.02 704.085 1733.2H704.122C749.842 1732.99 779.349 1704.21 803.619 1690.98C842.674 1669.71 863.865 1690.29 863.865 1704.26C863.865 1730.14 837.106 1733.04 841.159 1733.2C887.286 1733.29 916.977 1704.28 941.371 1690.98C955.798 1683.11 967.786 1680.97 977.162 1682.1C993.19 1684.01 1001.62 1695.45 1001.62 1704.26C1001.62 1730.06 975.042 1733.02 978.874 1733.2H978.911C979.318 1733.2 979.712 1733.2 980.106 1733.18C1025.14 1732.48 1054.34 1704.08 1078.41 1690.98C1089.74 1684.8 1099.57 1682.15 1107.82 1681.85C1108.06 1681.83 1108.3 1681.83 1108.53 1681.83C1111.18 1681.83 1113.64 1682.1 1115.94 1682.55C1130.15 1685.36 1137.62 1695.98 1137.62 1704.28C1137.62 1724.67 1120.99 1730.78 1115.94 1732.55C1114.61 1733.01 1114.08 1733.18 1114.88 1733.22H1114.91C1115.26 1733.22 1115.6 1733.22 1115.94 1733.2C1161.08 1732.57 1190.31 1704.12 1214.41 1690.99C1253.45 1669.71 1274.64 1690.31 1274.64 1704.28C1274.64 1730.14 1247.89 1733.04 1251.94 1733.22C1298.08 1733.3 1327.76 1704.3 1352.16 1690.99C1391.22 1669.71 1412.41 1690.31 1412.41 1704.28C1412.41 1730.06 1385.82 1733.02 1389.65 1733.22H1389.69C1435.41 1733.01 1464.92 1704.23 1489.19 1690.99C1528.24 1669.71 1549.43 1690.31 1549.43 1704.28C1549.43 1729.65 1523.7 1732.92 1526.53 1733.2H1526.54C1572.67 1733.29 1602.35 1704.28 1626.76 1690.98C1665.81 1669.71 1687 1690.29 1687 1704.26C1687 1730.06 1660.41 1733.02 1664.25 1733.2H1664.28C1710 1732.99 1739.51 1704.21 1763.78 1690.98C1802.84 1669.71 1824.03 1690.29 1824.03 1704.26C1824.03 1730.14 1797.27 1733.04 1801.32 1733.2C1847.45 1733.29 1877.14 1704.28 1901.53 1690.98C1940.59 1669.71 1961.78 1690.29 1961.78 1704.26C1961.78 1730.04 1935.23 1733.02 1939.04 1733.2C1939.76 1733.2 1940.49 1733.2 1941.2 1733.16C1941.67 1733.16 1942.14 1733.15 1942.61 1733.11C1986.31 1731.5 2014.92 1703.86 2038.57 1690.98C2049.14 1685.22 2058.42 1682.52 2066.3 1681.94C2067.28 1681.85 2068.23 1681.83 2069.16 1681.83C2071.63 1681.83 2073.94 1682.04 2076.1 1682.43C2090.7 1685.08 2098.36 1695.87 2098.36 1704.28C2098.36 1725.53 2080.29 1731.27 2076.1 1732.74C2075.21 1733.06 2074.94 1733.18 2075.62 1733.22H2076.1C2121.57 1732.81 2150.94 1704.19 2175.15 1690.99C2214.19 1669.71 2235.39 1690.31 2235.39 1704.28C2235.39 1730.14 2208.63 1733.04 2212.68 1733.22C2258.82 1733.3 2288.5 1704.3 2312.9 1690.99C2351.96 1669.71 2373.15 1690.31 2373.15 1704.28C2373.15 1730.06 2346.56 1733.02 2350.39 1733.22H2350.43C2396.15 1733.01 2425.66 1704.23 2449.93 1690.99C2488.98 1669.71 2510.17 1690.31 2510.17 1704.28C2510.17 1729.65 2484.44 1732.92 2487.27 1733.2H2487.28C2533.41 1733.29 2563.09 1704.28 2587.5 1690.98C2626.55 1669.71 2647.74 1690.29 2647.74 1704.26C2647.74 1730.06 2621.16 1733.02 2624.99 1733.2H2625.02C2670.74 1732.99 2700.25 1704.21 2724.52 1690.98C2763.58 1669.71 2784.77 1690.29 2784.77 1704.26C2784.77 1730.14 2758.01 1733.04 2762.06 1733.2C2808.19 1733.29 2837.88 1704.28 2862.27 1690.98C2876.7 1683.11 2888.69 1680.97 2898.06 1682.1C2914.09 1684.01 2922.52 1695.45 2922.52 1704.26C2922.52 1730.06 2895.94 1733.02 2899.78 1733.2H2899.81C2900.22 1733.2 2900.61 1733.2 2901.01 1733.18C2946.04 1732.48 2975.24 1704.08 2999.31 1690.98C3010.65 1684.8 3020.48 1682.15 3028.72 1681.85C3028.97 1681.83 3029.2 1681.83 3029.43 1681.83C3032.08 1681.83 3034.55 1682.1 3036.84 1682.55C3051.06 1685.36 3058.52 1695.98 3058.52 1704.28C3058.52 1724.67 3041.89 1730.78 3036.84 1732.55C3035.51 1733.01 3034.98 1733.18 3035.78 1733.22H3035.82C3036.16 1733.22 3036.51 1733.22 3036.84 1733.2C3081.98 1732.57 3111.22 1704.12 3135.31 1690.99C3174.36 1669.71 3195.55 1690.31 3195.55 1704.28C3195.55 1730.14 3168.79 1733.04 3172.84 1733.22C3218.98 1733.3 3248.66 1704.3 3273.07 1690.99C3312.12 1669.71 3333.31 1690.31 3333.31 1704.28C3333.31 1730.06 3306.72 1733.02 3310.56 1733.22H3310.59C3356.31 1733.01 3385.82 1704.23 3410.09 1690.99C3449.15 1669.71 3470.34 1690.31 3470.34 1704.28C3470.34 1729.65 3444.6 1732.92 3447.43 1733.2C3493.56 1733.29 3523.24 1704.28 3547.65 1690.98C3586.7 1669.71 3607.89 1690.29 3607.89 1704.26C3607.89 1730.06 3581.3 1733.02 3585.14 1733.2H3585.17C3630.89 1732.99 3660.4 1704.21 3684.67 1690.98C3723.73 1669.71 3744.92 1690.29 3744.92 1704.26C3744.92 1730.14 3718.16 1733.04 3722.21 1733.2C3768.34 1733.29 3798.03 1704.28 3822.42 1690.98C3861.48 1669.71 3882.67 1690.29 3882.67 1704.26C3882.67 1730.06 3856.09 1733.02 3859.93 1733.2H3859.96C3905.67 1732.99 3935.18 1704.21 3959.46 1690.98C3974.79 1682.62 3987.37 1680.73 3996.99 1682.34V1732.9H3997Z" fill="#083242" stroke="#051C25" stroke-width="6" stroke-miterlimit="10"/>
<path d="M3997 1942.38C3996.47 1942.57 3996.42 1942.66 3997 1942.67V2160.77H17V1942.69C63.1391 1942.78 92.8184 1913.77 117.225 1900.47C156.267 1879.18 177.458 1899.79 177.458 1913.75C177.458 1939.53 150.883 1942.5 154.715 1942.69H154.752C200.472 1942.48 229.967 1913.7 254.25 1900.47C293.293 1879.18 314.483 1899.79 314.483 1913.75C314.483 1939.62 287.724 1942.52 291.777 1942.69C337.916 1942.78 367.596 1913.77 392.002 1900.47C431.057 1879.18 452.248 1899.79 452.248 1913.75C452.248 1939.53 425.661 1942.5 429.492 1942.69H429.529C475.249 1942.48 504.756 1913.7 529.027 1900.47C568.082 1879.18 589.273 1899.79 589.273 1913.75C589.273 1939.13 563.536 1942.39 566.37 1942.67H566.382C612.509 1942.76 642.188 1913.75 666.594 1900.45C705.649 1879.18 726.84 1899.77 726.84 1913.74C726.84 1939.53 700.253 1942.5 704.085 1942.67H704.122C749.842 1942.46 779.349 1913.68 803.619 1900.45C842.674 1879.18 863.865 1899.77 863.865 1913.74C863.865 1939.62 837.106 1942.52 841.159 1942.67C887.286 1942.76 916.977 1913.75 941.371 1900.45C955.798 1892.59 967.786 1890.45 977.162 1891.57C993.19 1893.49 1001.62 1904.93 1001.62 1913.74C1001.62 1939.53 975.042 1942.5 978.874 1942.67H978.911C979.318 1942.67 979.712 1942.67 980.106 1942.66C1025.14 1941.96 1054.34 1913.56 1078.41 1900.45C1089.74 1894.28 1099.57 1891.63 1107.82 1891.33C1108.06 1891.31 1108.3 1891.31 1108.53 1891.31C1111.18 1891.31 1113.64 1891.57 1115.94 1892.03C1130.15 1894.84 1137.62 1905.45 1137.62 1913.75C1137.62 1934.15 1120.99 1940.25 1115.94 1942.03C1114.61 1942.48 1114.08 1942.66 1114.88 1942.69H1114.91C1115.26 1942.69 1115.6 1942.69 1115.94 1942.67C1161.08 1942.04 1190.31 1913.6 1214.41 1900.47C1253.45 1879.18 1274.64 1899.79 1274.64 1913.75C1274.64 1939.62 1247.89 1942.52 1251.94 1942.69C1298.08 1942.78 1327.76 1913.77 1352.16 1900.47C1391.22 1879.18 1412.41 1899.79 1412.41 1913.75C1412.41 1939.53 1385.82 1942.5 1389.65 1942.69H1389.69C1435.41 1942.48 1464.92 1913.7 1489.19 1900.47C1528.24 1879.18 1549.43 1899.79 1549.43 1913.75C1549.43 1939.13 1523.7 1942.39 1526.53 1942.67H1526.54C1572.67 1942.76 1602.35 1913.75 1626.76 1900.45C1665.81 1879.18 1687 1899.77 1687 1913.74C1687 1939.53 1660.41 1942.5 1664.25 1942.67H1664.28C1710 1942.46 1739.51 1913.68 1763.78 1900.45C1802.84 1879.18 1824.03 1899.77 1824.03 1913.74C1824.03 1939.62 1797.27 1942.52 1801.32 1942.67C1847.45 1942.76 1877.14 1913.75 1901.53 1900.45C1940.59 1879.18 1961.78 1899.77 1961.78 1913.74C1961.78 1939.52 1935.23 1942.5 1939.04 1942.67C1939.76 1942.67 1940.49 1942.67 1941.2 1942.64C1941.67 1942.64 1942.14 1942.62 1942.61 1942.59C1986.31 1940.97 2014.92 1913.33 2038.57 1900.45C2049.14 1894.7 2058.42 1891.99 2066.3 1891.41C2067.28 1891.33 2068.23 1891.31 2069.16 1891.31C2071.63 1891.31 2073.94 1891.52 2076.1 1891.91C2090.7 1894.56 2098.36 1905.35 2098.36 1913.75C2098.36 1935.01 2080.29 1940.74 2076.1 1942.22C2075.21 1942.53 2074.94 1942.66 2075.62 1942.69H2076.1C2121.57 1942.29 2150.94 1913.67 2175.15 1900.47C2214.19 1879.18 2235.39 1899.79 2235.39 1913.75C2235.39 1939.62 2208.63 1942.52 2212.68 1942.69C2258.82 1942.78 2288.5 1913.77 2312.9 1900.47C2351.96 1879.18 2373.15 1899.79 2373.15 1913.75C2373.15 1939.53 2346.56 1942.5 2350.39 1942.69H2350.43C2396.15 1942.48 2425.66 1913.7 2449.93 1900.47C2488.98 1879.18 2510.17 1899.79 2510.17 1913.75C2510.17 1939.13 2484.44 1942.39 2487.27 1942.67H2487.28C2533.41 1942.76 2563.09 1913.75 2587.5 1900.45C2626.55 1879.18 2647.74 1899.77 2647.74 1913.74C2647.74 1939.53 2621.16 1942.5 2624.99 1942.67H2625.02C2670.74 1942.46 2700.25 1913.68 2724.52 1900.45C2763.58 1879.18 2784.77 1899.77 2784.77 1913.74C2784.77 1939.62 2758.01 1942.52 2762.06 1942.67C2808.19 1942.76 2837.88 1913.75 2862.27 1900.45C2876.7 1892.59 2888.69 1890.45 2898.06 1891.57C2914.09 1893.49 2922.52 1904.93 2922.52 1913.74C2922.52 1939.53 2895.94 1942.5 2899.78 1942.67H2899.81C2900.22 1942.67 2900.61 1942.67 2901.01 1942.66C2946.04 1941.96 2975.24 1913.56 2999.31 1900.45C3010.65 1894.28 3020.48 1891.63 3028.72 1891.33C3028.97 1891.31 3029.2 1891.31 3029.43 1891.31C3032.08 1891.31 3034.55 1891.57 3036.84 1892.03C3051.06 1894.84 3058.52 1905.45 3058.52 1913.75C3058.52 1934.15 3041.89 1940.25 3036.84 1942.03C3035.51 1942.48 3034.98 1942.66 3035.78 1942.69H3035.82C3036.16 1942.69 3036.51 1942.69 3036.84 1942.67C3081.98 1942.04 3111.22 1913.6 3135.31 1900.47C3174.36 1879.18 3195.55 1899.79 3195.55 1913.75C3195.55 1939.62 3168.79 1942.52 3172.84 1942.69C3218.98 1942.78 3248.66 1913.77 3273.07 1900.47C3312.12 1879.18 3333.31 1899.79 3333.31 1913.75C3333.31 1939.53 3306.72 1942.5 3310.56 1942.69H3310.59C3356.31 1942.48 3385.82 1913.7 3410.09 1900.47C3449.15 1879.18 3470.34 1899.79 3470.34 1913.75C3470.34 1939.13 3444.6 1942.39 3447.43 1942.67C3493.56 1942.76 3523.24 1913.75 3547.65 1900.45C3586.7 1879.18 3607.89 1899.77 3607.89 1913.74C3607.89 1939.53 3581.3 1942.5 3585.14 1942.67H3585.17C3630.89 1942.46 3660.4 1913.68 3684.67 1900.45C3723.73 1879.18 3744.92 1899.77 3744.92 1913.74C3744.92 1939.62 3718.16 1942.52 3722.21 1942.67C3768.34 1942.76 3798.03 1913.75 3822.42 1900.45C3861.48 1879.18 3882.67 1899.77 3882.67 1913.74C3882.67 1939.53 3856.09 1942.5 3859.93 1942.67H3859.96C3905.67 1942.46 3935.18 1913.68 3959.46 1900.45C3974.79 1892.1 3987.37 1890.2 3996.99 1891.82V1942.38H3997Z" fill="#1A5C74" stroke="#051C25" stroke-width="6" stroke-miterlimit="10"/>
<path d="M3997 2151.85C3996.47 2152.05 3996.42 2152.14 3997 2152.15V2370.25H17V2152.17C63.1391 2152.26 92.8184 2123.25 117.225 2109.95C156.267 2088.66 177.458 2109.26 177.458 2123.23C177.458 2149.01 150.883 2151.98 154.715 2152.17H154.752C200.472 2151.96 229.967 2123.18 254.25 2109.95C293.293 2088.66 314.483 2109.26 314.483 2123.23C314.483 2149.1 287.724 2152 291.777 2152.17C337.916 2152.26 367.596 2123.25 392.002 2109.95C431.057 2088.66 452.248 2109.26 452.248 2123.23C452.248 2149.01 425.661 2151.98 429.492 2152.17H429.529C475.249 2151.96 504.756 2123.18 529.027 2109.95C568.082 2088.66 589.273 2109.26 589.273 2123.23C589.273 2148.61 563.536 2151.87 566.37 2152.15H566.382C612.509 2152.24 642.188 2123.23 666.594 2109.93C705.649 2088.66 726.84 2109.25 726.84 2123.22C726.84 2149.01 700.253 2151.98 704.085 2152.15H704.122C749.842 2151.94 779.349 2123.16 803.619 2109.93C842.674 2088.66 863.865 2109.25 863.865 2123.22C863.865 2149.1 837.106 2152 841.159 2152.15C887.286 2152.24 916.977 2123.23 941.371 2109.93C955.798 2102.07 967.786 2099.93 977.162 2101.05C993.19 2102.96 1001.62 2114.41 1001.62 2123.22C1001.62 2149.01 975.042 2151.98 978.874 2152.15H978.911C979.318 2152.15 979.712 2152.15 980.106 2152.14C1025.14 2151.43 1054.34 2123.04 1078.41 2109.93C1089.74 2103.75 1099.57 2101.1 1107.82 2100.81C1108.06 2100.79 1108.3 2100.79 1108.53 2100.79C1111.18 2100.79 1113.64 2101.05 1115.94 2101.51C1130.15 2104.32 1137.62 2114.93 1137.62 2123.23C1137.62 2143.62 1120.99 2149.73 1115.94 2151.5C1114.61 2151.96 1114.08 2152.14 1114.88 2152.17H1114.91C1115.26 2152.17 1115.6 2152.17 1115.94 2152.15C1161.08 2151.52 1190.31 2123.07 1214.41 2109.95C1253.45 2088.66 1274.64 2109.26 1274.64 2123.23C1274.64 2149.1 1247.89 2152 1251.94 2152.17C1298.08 2152.26 1327.76 2123.25 1352.16 2109.95C1391.22 2088.66 1412.41 2109.26 1412.41 2123.23C1412.41 2149.01 1385.82 2151.98 1389.65 2152.17H1389.69C1435.41 2151.96 1464.92 2123.18 1489.19 2109.95C1528.24 2088.66 1549.43 2109.26 1549.43 2123.23C1549.43 2148.61 1523.7 2151.87 1526.53 2152.15H1526.54C1572.67 2152.24 1602.35 2123.23 1626.76 2109.93C1665.81 2088.66 1687 2109.25 1687 2123.22C1687 2149.01 1660.41 2151.98 1664.25 2152.15H1664.28C1710 2151.94 1739.51 2123.16 1763.78 2109.93C1802.84 2088.66 1824.03 2109.25 1824.03 2123.22C1824.03 2149.1 1797.27 2152 1801.32 2152.15C1847.45 2152.24 1877.14 2123.23 1901.53 2109.93C1940.59 2088.66 1961.78 2109.25 1961.78 2123.22C1961.78 2148.99 1935.23 2151.98 1939.04 2152.15C1939.76 2152.15 1940.49 2152.15 1941.2 2152.12C1941.67 2152.12 1942.14 2152.1 1942.61 2152.07C1986.31 2150.45 2014.92 2122.81 2038.57 2109.93C2049.14 2104.17 2058.42 2101.47 2066.3 2100.89C2067.28 2100.81 2068.23 2100.79 2069.16 2100.79C2071.63 2100.79 2073.94 2101 2076.1 2101.38C2090.7 2104.03 2098.36 2114.83 2098.36 2123.23C2098.36 2144.48 2080.29 2150.22 2076.1 2151.7C2075.21 2152.01 2074.94 2152.14 2075.62 2152.17H2076.1C2121.57 2151.77 2150.94 2123.15 2175.15 2109.95C2214.19 2088.66 2235.39 2109.26 2235.39 2123.23C2235.39 2149.1 2208.63 2152 2212.68 2152.17C2258.82 2152.26 2288.5 2123.25 2312.9 2109.95C2351.96 2088.66 2373.15 2109.26 2373.15 2123.23C2373.15 2149.01 2346.56 2151.98 2350.39 2152.17H2350.43C2396.15 2151.96 2425.66 2123.18 2449.93 2109.95C2488.98 2088.66 2510.17 2109.26 2510.17 2123.23C2510.17 2148.61 2484.44 2151.87 2487.27 2152.15H2487.28C2533.41 2152.24 2563.09 2123.23 2587.5 2109.93C2626.55 2088.66 2647.74 2109.25 2647.74 2123.22C2647.74 2149.01 2621.16 2151.98 2624.99 2152.15H2625.02C2670.74 2151.94 2700.25 2123.16 2724.52 2109.93C2763.58 2088.66 2784.77 2109.25 2784.77 2123.22C2784.77 2149.1 2758.01 2152 2762.06 2152.15C2808.19 2152.24 2837.88 2123.23 2862.27 2109.93C2876.7 2102.07 2888.69 2099.93 2898.06 2101.05C2914.09 2102.96 2922.52 2114.41 2922.52 2123.22C2922.52 2149.01 2895.94 2151.98 2899.78 2152.15H2899.81C2900.22 2152.15 2900.61 2152.15 2901.01 2152.14C2946.04 2151.43 2975.24 2123.04 2999.31 2109.93C3010.65 2103.75 3020.48 2101.1 3028.72 2100.81C3028.97 2100.79 3029.2 2100.79 3029.43 2100.79C3032.08 2100.79 3034.55 2101.05 3036.84 2101.51C3051.06 2104.32 3058.52 2114.93 3058.52 2123.23C3058.52 2143.62 3041.89 2149.73 3036.84 2151.5C3035.51 2151.96 3034.98 2152.14 3035.78 2152.17H3035.82C3036.16 2152.17 3036.51 2152.17 3036.84 2152.15C3081.98 2151.52 3111.22 2123.07 3135.31 2109.95C3174.36 2088.66 3195.55 2109.26 3195.55 2123.23C3195.55 2149.1 3168.79 2152 3172.84 2152.17C3218.98 2152.26 3248.66 2123.25 3273.07 2109.95C3312.12 2088.66 3333.31 2109.26 3333.31 2123.23C3333.31 2149.01 3306.72 2151.98 3310.56 2152.17H3310.59C3356.31 2151.96 3385.82 2123.18 3410.09 2109.95C3449.15 2088.66 3470.34 2109.26 3470.34 2123.23C3470.34 2148.61 3444.6 2151.87 3447.43 2152.15C3493.56 2152.24 3523.24 2123.23 3547.65 2109.93C3586.7 2088.66 3607.89 2109.25 3607.89 2123.22C3607.89 2149.01 3581.3 2151.98 3585.14 2152.15H3585.17C3630.89 2151.94 3660.4 2123.16 3684.67 2109.93C3723.73 2088.66 3744.92 2109.25 3744.92 2123.22C3744.92 2149.1 3718.16 2152 3722.21 2152.15C3768.34 2152.24 3798.03 2123.23 3822.42 2109.93C3861.48 2088.66 3882.67 2109.25 3882.67 2123.22C3882.67 2149.01 3856.09 2151.98 3859.93 2152.15H3859.96C3905.67 2151.94 3935.18 2123.16 3959.46 2109.93C3974.79 2101.58 3987.37 2099.68 3996.99 2101.3V2151.85H3997Z" fill="#083242" stroke="#051C25" stroke-width="6" stroke-miterlimit="10"/>
<path d="M3997 2361.33C3996.47 2361.52 3996.42 2361.61 3997 2361.63V2579.73H17V2361.65C63.1391 2361.74 92.8184 2332.73 117.225 2319.43C156.267 2298.14 177.458 2318.74 177.458 2332.71C177.458 2358.49 150.883 2361.45 154.715 2361.65H154.752C200.472 2361.44 229.967 2332.66 254.25 2319.43C293.293 2298.14 314.483 2318.74 314.483 2332.71C314.483 2358.58 287.724 2361.47 291.777 2361.65C337.916 2361.74 367.596 2332.73 392.002 2319.43C431.057 2298.14 452.248 2318.74 452.248 2332.71C452.248 2358.49 425.661 2361.45 429.492 2361.65H429.529C475.249 2361.44 504.756 2332.66 529.027 2319.43C568.082 2298.14 589.273 2318.74 589.273 2332.71C589.273 2358.08 563.536 2361.35 566.37 2361.63H566.382C612.509 2361.72 642.188 2332.71 666.594 2319.41C705.649 2298.14 726.84 2318.72 726.84 2332.69C726.84 2358.49 700.253 2361.45 704.085 2361.63H704.122C749.842 2361.42 779.349 2332.64 803.619 2319.41C842.674 2298.14 863.865 2318.72 863.865 2332.69C863.865 2358.58 837.106 2361.47 841.159 2361.63C887.286 2361.72 916.977 2332.71 941.371 2319.41C955.798 2311.55 967.786 2309.4 977.162 2310.53C993.19 2312.44 1001.62 2323.88 1001.62 2332.69C1001.62 2358.49 975.042 2361.45 978.874 2361.63H978.911C979.318 2361.63 979.712 2361.63 980.106 2361.61C1025.14 2360.91 1054.34 2332.52 1078.41 2319.41C1089.74 2313.23 1099.57 2310.58 1107.82 2310.28C1108.06 2310.26 1108.3 2310.26 1108.53 2310.26C1111.18 2310.26 1113.64 2310.53 1115.94 2310.98C1130.15 2313.79 1137.62 2324.41 1137.62 2332.71C1137.62 2353.1 1120.99 2359.21 1115.94 2360.98C1114.61 2361.44 1114.08 2361.61 1114.88 2361.65H1114.91C1115.26 2361.65 1115.6 2361.65 1115.94 2361.63C1161.08 2361 1190.31 2332.55 1214.41 2319.43C1253.45 2298.14 1274.64 2318.74 1274.64 2332.71C1274.64 2358.58 1247.89 2361.47 1251.94 2361.65C1298.08 2361.74 1327.76 2332.73 1352.16 2319.43C1391.22 2298.14 1412.41 2318.74 1412.41 2332.71C1412.41 2358.49 1385.82 2361.45 1389.65 2361.65H1389.69C1435.41 2361.44 1464.92 2332.66 1489.19 2319.43C1528.24 2298.14 1549.43 2318.74 1549.43 2332.71C1549.43 2358.08 1523.7 2361.35 1526.53 2361.63H1526.54C1572.67 2361.72 1602.35 2332.71 1626.76 2319.41C1665.81 2298.14 1687 2318.72 1687 2332.69C1687 2358.49 1660.41 2361.45 1664.25 2361.63H1664.28C1710 2361.42 1739.51 2332.64 1763.78 2319.41C1802.84 2298.14 1824.03 2318.72 1824.03 2332.69C1824.03 2358.58 1797.27 2361.47 1801.32 2361.63C1847.45 2361.72 1877.14 2332.71 1901.53 2319.41C1940.59 2298.14 1961.78 2318.72 1961.78 2332.69C1961.78 2358.47 1935.23 2361.45 1939.04 2361.63C1939.76 2361.63 1940.49 2361.63 1941.2 2361.59C1941.67 2361.59 1942.14 2361.58 1942.61 2361.54C1986.31 2359.93 2014.92 2332.29 2038.57 2319.41C2049.14 2313.65 2058.42 2310.95 2066.3 2310.37C2067.28 2310.28 2068.23 2310.26 2069.16 2310.26C2071.63 2310.26 2073.94 2310.48 2076.1 2310.86C2090.7 2313.51 2098.36 2324.3 2098.36 2332.71C2098.36 2353.96 2080.29 2359.7 2076.1 2361.17C2075.21 2361.49 2074.94 2361.61 2075.62 2361.65H2076.1C2121.57 2361.24 2150.94 2332.62 2175.15 2319.43C2214.19 2298.14 2235.39 2318.74 2235.39 2332.71C2235.39 2358.58 2208.63 2361.47 2212.68 2361.65C2258.82 2361.74 2288.5 2332.73 2312.9 2319.43C2351.96 2298.14 2373.15 2318.74 2373.15 2332.71C2373.15 2358.49 2346.56 2361.45 2350.39 2361.65H2350.43C2396.15 2361.44 2425.66 2332.66 2449.93 2319.43C2488.98 2298.14 2510.17 2318.74 2510.17 2332.71C2510.17 2358.08 2484.44 2361.35 2487.27 2361.63H2487.28C2533.41 2361.72 2563.09 2332.71 2587.5 2319.41C2626.55 2298.14 2647.74 2318.72 2647.74 2332.69C2647.74 2358.49 2621.16 2361.45 2624.99 2361.63H2625.02C2670.74 2361.42 2700.25 2332.64 2724.52 2319.41C2763.58 2298.14 2784.77 2318.72 2784.77 2332.69C2784.77 2358.58 2758.01 2361.47 2762.06 2361.63C2808.19 2361.72 2837.88 2332.71 2862.27 2319.41C2876.7 2311.55 2888.69 2309.4 2898.06 2310.53C2914.09 2312.44 2922.52 2323.88 2922.52 2332.69C2922.52 2358.49 2895.94 2361.45 2899.78 2361.63H2899.81C2900.22 2361.63 2900.61 2361.63 2901.01 2361.61C2946.04 2360.91 2975.24 2332.52 2999.31 2319.41C3010.65 2313.23 3020.48 2310.58 3028.72 2310.28C3028.97 2310.26 3029.2 2310.26 3029.43 2310.26C3032.08 2310.26 3034.55 2310.53 3036.84 2310.98C3051.06 2313.79 3058.52 2324.41 3058.52 2332.71C3058.52 2353.1 3041.89 2359.21 3036.84 2360.98C3035.51 2361.44 3034.98 2361.61 3035.78 2361.65H3035.82C3036.16 2361.65 3036.51 2361.65 3036.84 2361.63C3081.98 2361 3111.22 2332.55 3135.31 2319.43C3174.36 2298.14 3195.55 2318.74 3195.55 2332.71C3195.55 2358.58 3168.79 2361.47 3172.84 2361.65C3218.98 2361.74 3248.66 2332.73 3273.07 2319.43C3312.12 2298.14 3333.31 2318.74 3333.31 2332.71C3333.31 2358.49 3306.72 2361.45 3310.56 2361.65H3310.59C3356.31 2361.44 3385.82 2332.66 3410.09 2319.43C3449.15 2298.14 3470.34 2318.74 3470.34 2332.71C3470.34 2358.08 3444.6 2361.35 3447.43 2361.63C3493.56 2361.72 3523.24 2332.71 3547.65 2319.41C3586.7 2298.14 3607.89 2318.72 3607.89 2332.69C3607.89 2358.49 3581.3 2361.45 3585.14 2361.63H3585.17C3630.89 2361.42 3660.4 2332.64 3684.67 2319.41C3723.73 2298.14 3744.92 2318.72 3744.92 2332.69C3744.92 2358.58 3718.16 2361.47 3722.21 2361.63C3768.34 2361.72 3798.03 2332.71 3822.42 2319.41C3861.48 2298.14 3882.67 2318.72 3882.67 2332.69C3882.67 2358.49 3856.09 2361.45 3859.93 2361.63H3859.96C3905.67 2361.42 3935.18 2332.64 3959.46 2319.41C3974.79 2311.05 3987.37 2309.16 3996.99 2310.77V2361.33H3997Z" fill="#1A5C74" stroke="#051C25" stroke-width="6" stroke-miterlimit="10"/>
</svg>
