<svg width="20" height="15" viewBox="0 0 20 15" fill="none" xmlns="http://www.w3.org/2000/svg">
<path d="M14.7498 9.25031C14.7498 8.93737 14.3789 8.78931 14.0995 8.93029C13.6938 9.13501 13.2352 9.25031 12.7498 9.25031C11.0929 9.25031 9.74979 7.90717 9.74979 6.25031C9.74979 5.76486 9.8651 5.30634 10.0698 4.90064C10.2108 4.62125 10.0627 4.25031 9.74979 4.25031C6.98837 4.25031 4.74979 6.48889 4.74979 9.25031C4.74979 12.0117 6.98837 14.2503 9.74979 14.2503C12.5112 14.2503 14.7498 12.0117 14.7498 9.25031Z" fill="white"/>
<path fill-rule="evenodd" clip-rule="evenodd" d="M0.0527354 7.20754C1.83161 1.94196 7.18643 -1.10432 12.4181 0.372236C15.8167 1.33143 18.353 3.9738 19.4467 7.20717C19.6139 7.70134 19.3735 8.2582 18.8828 8.44236C18.3852 8.6291 17.8526 8.35064 17.6837 7.85129C16.7819 5.18549 14.6997 3.02835 11.928 2.24608C7.66988 1.04429 3.28008 3.51721 1.81602 7.85092C1.6473 8.35033 1.11484 8.62902 0.617193 8.4425C0.126414 8.25855 -0.114232 7.70178 0.0527354 7.20754Z" fill="white"/>
</svg>
