<?xml version="1.0" encoding="UTF-8"?>
<svg id="Layer_2" data-name="Layer 2" xmlns="http://www.w3.org/2000/svg" xmlns:xlink="http://www.w3.org/1999/xlink" viewBox="0 0 1778.73 1794.9">
  <defs>
    <style>
      .cls-1 {
        fill: #b55e2e;
      }

      .cls-2 {
        fill: #253d4b;
      }

      .cls-3 {
        fill: #b95c2d;
      }

      .cls-4 {
        fill: #f58238;
      }

      .cls-5 {
        fill: #796e4e;
      }

      .cls-6 {
        fill: #f9833f;
      }

      .cls-7 {
        fill: url(#linear-gradient-2);
      }

      .cls-8 {
        fill: #c09861;
      }

      .cls-9 {
        fill: #edd5b0;
      }

      .cls-10 {
        fill: #55605c;
      }

      .cls-11 {
        fill: #f4d9b4;
      }

      .cls-12 {
        fill: #bd5b28;
      }

      .cls-13 {
        fill: #ff924e;
      }

      .cls-14 {
        fill: #828681;
      }

      .cls-15 {
        fill: #d39851;
      }

      .cls-16 {
        fill: #ecb365;
      }

      .cls-17 {
        fill: #d2c5b1;
      }

      .cls-18 {
        fill: #2e3d3e;
      }

      .cls-19 {
        fill: #c56032;
      }

      .cls-20 {
        fill: #d1c3aa;
      }

      .cls-21 {
        fill: #f17e3c;
      }

      .cls-22 {
        fill: #f0dec0;
      }

      .cls-23 {
        fill: #ff944c;
      }

      .cls-24 {
        fill: #0d2d39;
      }

      .cls-25 {
        fill: #f37e39;
      }

      .cls-26 {
        fill: #ba7e41;
      }

      .cls-27 {
        fill: #bc612d;
      }

      .cls-28 {
        fill: #b75d2f;
      }

      .cls-29 {
        fill: #dc9d3b;
      }

      .cls-30 {
        fill: #152b32;
      }

      .cls-31 {
        fill: #2c3a3a;
      }

      .cls-32 {
        fill: #324f55;
      }

      .cls-33 {
        fill: #b05c2d;
      }

      .cls-34 {
        fill: #d9a566;
      }

      .cls-35 {
        fill: #c7baa2;
      }

      .cls-36 {
        fill: #dc9940;
      }

      .cls-37 {
        fill: #be5d2a;
      }

      .cls-38 {
        fill: #c0632c;
      }

      .cls-39 {
        fill: #c05c26;
      }

      .cls-40 {
        fill: #eedfc5;
      }

      .cls-41 {
        fill: #bf622c;
      }

      .cls-42 {
        fill: #da9b40;
      }

      .cls-43 {
        fill: #bf8734;
      }

      .cls-44 {
        stroke: #0f242b;
        stroke-miterlimit: 10;
      }

      .cls-44, .cls-45 {
        fill: #14141e;
      }

      .cls-46 {
        fill: #c1642d;
      }

      .cls-47 {
        fill: #b65b2e;
      }

      .cls-48 {
        fill: #bf5c26;
      }

      .cls-49 {
        fill: #e3b269;
      }

      .cls-50 {
        fill: #2a393a;
      }

      .cls-51 {
        fill: #7f847e;
      }

      .cls-52 {
        fill: #cba774;
      }

      .cls-53 {
        fill: #eedec3;
      }

      .cls-54 {
        fill: url(#linear-gradient);
      }

      .cls-55 {
        fill: #c1622b;
      }

      .cls-56 {
        fill: #bf602a;
      }
    </style>
    <linearGradient id="linear-gradient" x1="1364.66" y1="817.2" x2="1533.65" y2="817.2" gradientUnits="userSpaceOnUse">
      <stop offset="0" stop-color="#424d4c"/>
      <stop offset="1" stop-color="#3e4845"/>
    </linearGradient>
    <linearGradient id="linear-gradient-2" x1="1406.63" y1="688.23" x2="1556.01" y2="768.27" xlink:href="#linear-gradient"/>
  </defs>
  <g id="Full_Color" data-name="Full Color">
    <g>
      <ellipse class="cls-24" cx="889.36" cy="897.45" rx="889.36" ry="897.45"/>
      <g>
        <g>
          <path class="cls-52" d="M378.82,554.15s20.31-29.65,66.43-24.54c-13.67,19.93-29.43,38.7-66.43,24.54Z"/>
          <path class="cls-52" d="M486.59,480.37s-11.03,19.43-27.67,32.77c-9.06,5.93-41.83,7.58-53.69,10.38,4.12-13.51,15.15-46.28,81.36-43.15Z"/>
          <path class="cls-52" d="M447.22,471.47s30.8,1.48,46.94-.99c16.14-2.47,36.56-28.66,36.56-28.66,0,0-26.35-8.89-49.74,0-23.39,8.89-33.76,29.65-33.76,29.65Z"/>
          <path class="cls-52" d="M496.47,425.69s12.85-21.25,34.26-24.87,44.63.66,45.95,3.62c-2.96,5.76-14.33,19.93-33.93,25.03-7.74,1.32-43.81-.99-46.28-3.79Z"/>
          <path class="cls-52" d="M605,368.21s-8.07,10.21-15.15,25.69c-19.6-3.46-44.63-3.62-44.63-3.62,0,0,23.88-34.75,59.79-22.07Z"/>
          <path class="cls-52" d="M612.58,357.34s6.09-9.72,14.66-18.45c-18.28,2.8-27.83,16.31-27.83,16.31l13.18,2.14Z"/>
          <path class="cls-52" d="M908.65,277.41s24.16-3.29,35.46,3.29c11.31,6.59,21.85,21.96,24.7,28.44-8.34-2.31-28.55-14.6-39.75-19.65-11.2-5.05-19.76-10.21-20.42-12.08Z"/>
          <path class="cls-52" d="M960.91,279.16s30.3-2.8,46.88,13.7c16.58,16.5,21.19,37.25,21.19,37.25,0,0-28.77-5.38-41.28-14.6-12.52-9.22-22.95-33.27-26.79-36.34Z"/>
          <path class="cls-52" d="M1017.79,289.15s32.94,1.76,47.43,20.75c14.49,19,17.13,35.79,17.13,35.79,0,0-27.89-1.98-40.52-16.36-12.63-14.38-13.72-23.39-24.05-40.19Z"/>
          <path class="cls-52" d="M1074.55,304.53s32.28,6.48,42.49,24.16c10.21,17.68,14.6,37,14.71,40.41-12.3-4.61-30.41-11.86-38.54-24.7-8.13-12.85-13.29-31.95-18.67-39.86Z"/>
          <path class="cls-52" d="M1128.9,328.35s28,4.94,38.1,22.07c10.1,17.13,13.72,42.71,13.72,45.68-12.19-3.29-28.99-12.08-37-27.01-8.02-14.93-13.94-39.31-14.82-40.74Z"/>
          <path class="cls-52" d="M1181.72,357.01s28.44,8.67,37,25.58c8.56,16.91,7.47,43.81,7.47,43.81,0,0-21.85-6.59-32.39-27.67-8.56-17.68-9.77-36.67-12.08-41.72Z"/>
          <path class="cls-52" d="M1230.69,387.2s23.28,9,33.49,27.78c10.21,18.78,2.74,47.87,2.74,47.87,0,0-20.86-15.48-27.67-30.74-6.81-15.26-6.37-40.08-8.56-44.91Z"/>
          <path class="cls-52" d="M1277.57,422.67s19,10.43,29.87,30.96c10.87,20.53.44,39.97,2.96,51.28,0,0-23.94-18.34-29.97-36.56-2.42-10.41-2.85-45.68-2.85-45.68Z"/>
          <path class="cls-52" d="M1321.49,468.02s22.18,11.53,26.9,33.49c4.72,21.96-2.53,44.36-2.96,48.97-6.92-7.25-23.72-27.34-26.02-43.59-2.31-16.25,3.18-31.73,2.09-38.87Z"/>
          <path class="cls-52" d="M1358.93,511.72s18.89,12.3,25.36,33.49c6.48,21.19-3.95,45.13-5.27,51.06-8.02-7.36-21.3-27.34-22.51-42.93-1.21-15.59,4.5-30.41,2.42-41.61Z"/>
          <path class="cls-52" d="M1397.03,564.64s19,14.16,20.64,36.12c1.65,21.96-12.52,42.49-12.3,47.98-7.58-10.21-16.36-24.7-17.13-42.93-.77-18.23,8.02-27.34,8.78-41.17Z"/>
          <path class="cls-52" d="M1427.12,618.22s16.91,21.52,15.7,37.88c-18.89.99-28.11,6.48-28.11,6.48,0,0-1.65-9.88.99-14.82,2.64-4.94,9.99-19.43,11.42-29.54Z"/>
          <path class="cls-52" d="M396.03,1304.27s10.79.66,14.66-1.81c3.87-2.47,7.82-3.87,11.69-1.98s-.99,30.55-.58,36.73c-8.81-1.73-22.89-25.03-25.78-32.94Z"/>
          <path class="cls-52" d="M433.25,1306.32s20.75,8.56,27.59,29.23c6.83,20.67,2.96,47.76,2.96,47.76,0,0-22.81-14-29.4-35.66-6.59-21.66-.16-38.95-1.15-41.34Z"/>
          <path class="cls-52" d="M473.27,1346.18s21.58,11.03,30.39,27.92c8.81,16.88,8.15,46.77,9.8,49.74-10.62-5.35-24.21-15.48-32.94-29.23-8.73-13.75-5.76-43.64-7.25-48.42Z"/>
          <path class="cls-52" d="M517.49,1385.46s24.29,10.62,34.26,28.49c9.96,17.87,9.63,41.09,11.69,43.15-9.72-1.98-23.55-9.31-34.09-22.56-10.54-13.26-9.96-45.37-11.86-49.08Z"/>
          <path class="cls-52" d="M566.66,1421.28s26.85,9.72,35.82,24.95c8.98,15.23,12.27,36.4,14.66,40.1-13.01-2.14-28.16-9.22-39.2-23.63-11.03-14.41-11.28-41.42-11.28-41.42Z"/>
          <path class="cls-52" d="M615.32,1451.01s24.95,5.27,39.36,21.49c14.41,16.22,16.14,32.45,21.99,38.46-17.13.99-31.87-6.92-42.66-18.69-10.79-11.78-18.69-41.26-18.69-41.26Z"/>
          <path class="cls-52" d="M670.5,1476.13s28.57,1.98,42.33,18.94c13.75,16.96,18.53,32.86,22.15,35.66-26.93-1.65-39.03-8.4-48.01-21.08-8.98-12.68-16.47-33.52-16.47-33.52Z"/>
          <path class="cls-52" d="M726.77,1493.45s32.28,4.06,43.59,16.47c11.31,12.41,21.63,30.19,27.01,32.61-14.38,3.4-35.35,1.32-48.53-11.31-13.18-12.63-22.07-37.77-22.07-37.77Z"/>
          <path class="cls-52" d="M783.32,1508.49s30.3-2.64,45.13,10.87c14.82,13.51,22.07,31.18,27.89,31.95-12.19,3.4-32.5,3.35-45.46-7.33-12.96-10.68-26.57-31.43-27.56-35.49Z"/>
          <path class="cls-52" d="M840.74,1515.96s31.29-.55,45.46,9c14.16,9.55,27.34,27.12,30.74,27.78-7.58,4.94-34.59,5.38-49.3-4.39-14.71-9.77-26.13-27.89-26.9-32.39Z"/>
          <path class="cls-52" d="M895.64,1519.8s34.15-6.04,47.54,2.09c13.4,8.13,33.16,26.13,36.12,27.01-12.08,4.61-36.12,9.33-50.51.88-14.38-8.45-33.16-29.97-33.16-29.97Z"/>
          <path class="cls-52" d="M955.48,1517.93s22.29-11.86,48.97-1.87c15.48,7.69,23.72,15.7,36.67,20.64,0,0-18.34,13.72-40.3,10.65-21.96-3.07-41.28-27.23-45.35-29.43Z"/>
          <path class="cls-52" d="M1013.45,1509.48s18.12-10.54,37.66-8.78c19.54,1.76,46.01,18.78,50.73,18.45-9,7.36-28.77,13.51-44.19,12.85-15.43-.66-37.94-19.32-44.19-22.51Z"/>
          <path class="cls-52" d="M1070.77,1494.44s16.8-13.51,41.94-13.29c25.14.22,32.39,11.09,43.7,14.27-10.87,9.22-26.9,17.35-41.39,17.24-14.49-.11-37.66-15.92-44.25-18.23Z"/>
          <path class="cls-52" d="M1125.56,1472.26s17.35-16.58,44.8-16.47,29.21,8.78,42.49,8.23c-10.32,9-22.4,20.31-43.64,21.85-21.25,1.54-37.94-12.3-43.64-13.61Z"/>
          <path class="cls-52" d="M1179.25,1446.67s23.83-21.3,48.86-21.85c25.03-.55,33.38,4.28,38.1,4.17-7.36,6.59-28.44,24.92-45.24,26.57-16.8,1.65-25.25-7.36-41.72-8.89Z"/>
          <path class="cls-52" d="M1232.83,1414.94s11.75-8.56,26.57-15.81c14.82-7.25,19.54-11.53,25.69-12.74,6.15-1.21,25.36-1.65,28.77,0-3.62,5.6-7.91,15.26-21.96,24.16-14.05,8.89-42.71,7.36-59.07,4.39Z"/>
          <path class="cls-52" d="M1294.64,1377.06s23.28,4.61,41.06-10.1c17.79-14.71,18.34-25.58,18.34-25.58,0,0-25.36,2.2-32.94,7.91-7.58,5.71-14.82,14.16-20.53,19.65-5.71,5.49-5.93,8.13-5.93,8.13Z"/>
        </g>
        <g>
          <path class="cls-44" d="M1567.89,770.29c.66-39.2-7.91-101.45-93.22-112.65-85.31-11.2-105.74,51.71-119.24,65.22-12.85,11.2-17.46,28.99-5.6,35.25-1.65,41.5,9.11,73.78,9.11,73.78,0,0,.44,47.43-.88,68.95-92.23.44-53.58,81.25-53.58,81.25,0,0-18.89,57.97-74.22,83.89-90.91,36.89-152.4-20.2-157.67-72.91-5.27-52.7,36.89-64.12,83.45-151.96,46.55-87.84,15.37-173.7,15.37-173.7,77.46-9.5,91.19-54.41,90.53-96.24-.66-41.83-55.34-92.23-117.92-126.16-62.58-33.93-68.84-60.28-171.28-130.44-102.44-70.16-220.36-70.16-287.23-26.35-83.34,55.67-105.63,112.43-102.55,161.84s54.24,78.62,54.24,78.62c0,0-8.34,16.91,5.05,30.3-76.42,33.6-86.96,52.26-80.15,68.51,6.81,16.25,77.3,25.03,77.3,25.03,0,0-4.17,52.92,1.98,95.96,6.15,43.04,6.15,79.93,1.98,94.87-4.17,14.93-32.94,39.97-31.62,77.74,1.32,37.77,32.94,64.34,56.66,84.11-8.78,18.23-63.02,23.06-103.87,6.81-40.84-16.25-68.29-70.93-64.34-104.97,3.95-34.04,15.37-151.74,15.37-151.74,21.74-9.66,38.43-47.43,17.57-82.13-9.88-61.27-35.14-64.56-68.51-62.58-16.91-34.92-50.73-36.89-87.4-16.69-16.91-21.08-66.54-26.13-87.62,7.91-5.27-5.49-50.07-7.69-65.88,31.18-18.23,45.9,9.44,63.02,32.72,66.54-.44,21.3-4.83,32.28-4.83,32.28-78.18-9.22-96.84,20.86-102.55,41.72-5.71,20.86-10.32,50.95-18.23,125.83-7.91,74.88,79.82,99.04,79.82,99.04-1.98,16.3-5.6,30.47.49,42.16,12.85,21.41,53.53,35.08,89.92,41.5-9.55,41.5-3.62,71.64-3.62,71.64,0,0-17.79,17.13-7.41,43.97,10.38,26.85,32.12,22.4,32.12,22.4l1.98,2.8c-9.88,40.68,27.83,50.73,42.99,40.02.33,37.72,39.69,40.35,60.94,25.03,15.48,42.49,55.01,24.05,61.6,5.93,6.26,14.49,21.08,16.47,37.55,16.14,27.83-1.48,27.5-26.02,27.5-26.02,0,0,21.41,11.2,36.73,6.09,26.35-9.55,19.93-30.47,19.93-30.47,0,0,20.92,10.54,40.02,2.64,27.01-12.02,17.07-37.94,17.07-37.94,0,0,6.15-2.64,18.45-19.32-28.11,137.91-67.86,139.88-87.84,138.13-19.98-1.76-40.84-17.79-52.26,1.54-11.42,19.32-7.03,43.48,25.03,64.78,32.06,21.3,72.25,14.49,115.51-4.17,4.61,21.3,23.72,24.16,46.12,5.93,22.4-18.23,12.74-39.97,12.74-39.97,0,0,23.28,5.27,37.11-20.64,13.83-25.91-8.34-33.38-8.34-33.38,0,0,6.59-15.15,23.5-69.17,16.91-54.02,34.26-62.15,39.75-59.73,34.92,38.21,20.86,110.46,9.44,163.6-11.42,53.14,21.52,120.12,99.7,129.12,78.18,9,106.5-45.9,109.36-75.32,2.85-29.43-13.4-49.85-28.99-50.51s-22.4,12.3-23.72,30.3c-1.32,18.01-21.08,32.94-41.5,23.28-20.42-9.66-12.74-41.5-2.42-74,10.32-32.5,14.49-54.46,17.35-84.98,7.47,11.86,36.23,33.82,36.23,33.82,0,0-9.88,24.59,12.52,37.33,22.4,12.74,45.02-3.51,45.02-3.51,0,0,2.42.66,7.69,2.42-5.27,5.93-4.17,23.72,25.03,36.23,56.44,50.95,107.6,64.56,149.33,45.9,41.72-18.67,65.44-50.07,72.69-68.07,62.58,8.34,55.78-45.68,55.78-45.68,0,0,26.79,14.49,41.94-.66,15.15-15.15,16.03-38.87,19.32-41.5,45.24-7.47,40.84-44.36,33.38-61.93,11.86-3.73,19.98-9.44,27.67-22.84,9.22-18.45-.66-36.23-3.95-47.87s0-48.53-9.44-89.38c-9.44-40.84-34.04-80.04-34.04-80.04,0,0,9.66-14.6,20.97-37.44,11.53-24.05,8.78-21.41,26.57-34.26,28.66-18.12,35.25-26.46,44.69-38.87,9.44-12.41,13.18-11.97,17.79-16.69,4.61-4.72,1.32-20.09,1.32-46.44ZM238.73,815.47s-27.23-6.59-34.04,46.77c-6.81,45.24,12.52,53.36,20.42,56.44l-2.69,23.5s-35.3,4.39-26.08-48.97c9.22-53.36,7.03-74.22,12.3-89.6s32.94-14.49,32.94-14.49l-2.85,26.35ZM443.51,1190.87c-63.46-6.37-83.23-56.44-68.95-99.04,0,0,49.63-1.32,87.84-10.76-1.1,25.69,6.59,42.16,48.31,38.87,1.76,14.71,15.81,48.97,58.41,14.27,13.83,1.1,14.49,2.2,14.49,2.2,0,0-52.48,62.58-140.1,54.46ZM1206.82,1363.37c5.82-6.92,1.65-20.64,1.65-20.64,7.69.55,28,.22,52.15-3.73-3.84,7.36-19.32,17.9-53.8,24.38ZM1292.03,1218.76c-22.18,14.27-82.79,16.25-164.7-9.22,32.94,7.47,36.23,2.42,42.82-10.76,3.95-.22,6.37-1.98,13.4,6.37,7.03,8.34,43.48,19.98,53.14-18.45,20.42,12.3,56,10.32,52.26-33.6l9.88-6.15s-10.32,31.4-6.81,71.81ZM1335.94,1199.22c-.88-34.7,10.32-52.26,10.32-52.26,0,0,16.69,3.07,25.47-11.2,8.78-14.27,40.84-97.06,40.84-97.06,15.48,84.54-34.92,138.13-76.64,160.52Z"/>
          <path class="cls-40" d="M661.44,486.11s24.05-15.15,65.22-15.48c-20.09-27.34-21.08-68.84-2.64-104.09,18.45-35.25,51.39-49.41,79.38-46.44,28,2.96,67.86,26.35,70.16,82.02,1.32,43.81-13.83,64.23-24.05,75.1,64.23,9.55,180.51,38.87,279.33,79.05,100.79,37.88,116.93,5.27,101.78-15.81-15.15-21.08-42.49-44.8-109.69-83.67-67.2-38.87-125.83-109.36-208.51-150.53-82.68-41.17-167.99-31.62-217.73,1.32-49.74,32.94-93.55,83.01-95.19,125.83-1.65,42.82,27.67,75.43,40.84,73.13,13.18-2.31-9.88-44.8,7.58-63.57,4.94,21.41,13.51,43.15,13.51,43.15Z"/>
          <path class="cls-35" d="M993.8,460.41s86.96,65.22,140.65,82.68c53.69,17.46,99.48,3.29,99.48,3.29,0,0,14.82,18.12,6.92,48.75-7.91,30.63-29.97,45.79-55.67,49.08,4.28-18.45,8.89-30.96,2.96-41.83-5.93-10.87-84.67-55.61-142.64-76.39-14.81-17.82-52.69-52.4-51.71-65.58Z"/>
          <path class="cls-2" d="M666.71,514.43c-7.23.78-6.92-9.22-3.29-12.52,3.62-3.29,35.25-25.36,177.21-7.91,141.97,17.46,295.47,86.96,332.69,112.98,6.26,8.56.99,52.04-12.52,52.04-18.78-9.55-36.56-20.42-46.12-22.73,7.25-10.87,17.13-28.66,6.26-44.14-10.87-15.48-25.69-20.42-49.41-12.19-64.89-30.96-228.6-84.65-404.83-65.55Z"/>
          <ellipse class="cls-15" cx="1091.93" cy="608.47" rx="21.58" ry="18.91" transform="translate(314.16 1587.06) rotate(-80.65)"/>
          <path class="cls-34" d="M1063.3,592.66l-3.95,13.18,1.98,13.18s-87.95-38.32-220.36-58.41c-82.02-13.18-139-12.19-181.83-6.59-7.91-.99-11.31-7.03-7.25-15.04,4.06-8.02,7.8-9.11,12.96-9.44,5.16-.33,110.79-9.55,227.72,12.52,87.62,19.1,139.55,37.33,170.74,50.62Z"/>
          <path class="cls-26" d="M675.6,552.18s.34-10.44,9.89-23.9l-8.79.46s-7.24,11.78-9.76,21.11c.99,2.53,1.9,3.01,1.9,3.01l6.77-.68Z"/>
          <path class="cls-26" d="M693.93,550.84c.13,0,3.18-13.58,9.88-23.21l10.11-.19s-12.41,9.61-13.28,23.09l-6.7.31Z"/>
          <polygon class="cls-26" points="735.77 527.38 720.62 550.11 728.2 550.14 743.35 527.48 735.77 527.38"/>
          <polygon class="cls-26" points="768.83 528.23 749.6 550.77 759.21 551.28 776.3 528.58 768.83 528.23"/>
          <polygon class="cls-26" points="802.32 530.24 782.21 553.06 795.6 554.42 816.48 531.46 802.32 530.24"/>
          <path class="cls-26" d="M842.21,534.24s-11.28,14.12-23.12,23.1l12.29,1.77,21.44-23.5-10.62-1.38Z"/>
          <polygon class="cls-26" points="879.74 539.74 857.52 563.25 866.49 564.79 889.47 541.47 879.74 539.74"/>
          <path class="cls-26" d="M918.96,548.02c-.7.17-26.14,21.73-26.14,21.73,0,0,11.79,2.44,11.93,2.47s27.23-21.08,27.23-21.08l-13.03-3.12Z"/>
          <polygon class="cls-26" points="958.2 557.83 933.79 578.82 944.96 581.58 966.15 559.97 958.2 557.83"/>
          <polygon class="cls-26" points="985.82 565.54 961.27 585.84 970.23 588.29 997.73 569.12 985.82 565.54"/>
          <polygon class="cls-26" points="1013.25 574.05 986.92 593.11 1000.09 597.12 1025.43 578.15 1013.25 574.05"/>
          <path class="cls-26" d="M1046.6,585.89c-.53.07-26.02,17.9-26.02,17.9l9.42,3.26,25.47-17.64-8.87-3.51Z"/>
          <path class="cls-30" d="M669.56,565.54s228.55-5.42,370.24,63.25c0,0-34.26,42.49-191.05,30.25-186.11-18.22-140.96-13.9-210.16-53.97-.59-.34-.37-1.23.3-1.27,61.16-3.97,68.44-10.58,68.44-10.58,0,0-21.85-6.71-37.77-27.67Z"/>
          <path class="cls-32" d="M586.56,608.47s24.54,19.46,120.78,33.51c-30.48-25.69-31.19-14.7-68.29-36.6-.69-.41-.43-1.48.38-1.5,42.92-1.07,63.97-7.08,67.92-10.66-18.89-10.98-30.19-20.82-37.77-27.67-45.09,20.05-83.01,42.93-83.01,42.93Z"/>
          <path class="cls-5" d="M1001.37,624.94c.66,0,7.47,4.61,7.47,4.61,0,0-12.74,1.32-16.91,2.42-4.17,1.1-11.42,10.76-17.13,5.49l-11.69-.22s-22.23,12.11-42.88,13.42c-8.13.44-7.03-9,3.51-10.1,10.54-1.1,19.32-2.75,19.32-2.75h-3.07s-12.52-2.75-37.11,0c-6.59,5.39-14.71,5.83-18.67,7.14-3.95,1.32-5.71,3.07-13.61,2.2s-12.74-6.59,13.18-11.64c-24.81-3.51-63.9,3.07-74.22-11.64,1.1-4.61,31.84-4.17,49.19,1.76,17.35,5.93,34.07,5.71,34.07,5.71,0,0-14.09-6.67-24.19-10.58-10.1-3.91-11.2-8.08-3.51-9.4,7.69-1.32,10.1,1.32,20.86,6.37s25.03,9.22,25.03,9.22l.44,2.64,20.54,1.27s-14.61-10.93-32.61-16.86c12.08-3.29,24.1,2.15,34.42,8.52,7.52,3.34,32.36,1.36,32.36,1.36,0,0-19.57-3.29-23.96-9.22-4.39-5.93,3.73-4.29,10.54-1.6s15.37,7.75,24.81,10.16c9.44,2.42,23.83,1.73,23.83,1.73Z"/>
          <path class="cls-53" d="M373.66,620.91s15.81-20.42,43.26-21.08c27.45-.66,34.26,24.81,34.7,33.16,17.35-7.47,44.36-4.83,55.12,13.18,10.76,18.01,4.17,37.11,4.17,37.11,0,0,21.96,18.01,6.81,41.94-15.15,23.94-37.99,7.47-46.12-1.1,3.95,24.16,6.81,37.55,1.32,56.88-5.49,19.32-13.18,22.4-22.84,20.86-9.66-1.54-21.52-15.15-9.88-51.17-12.96-3.29-31.62-11.86-42.16-41.94-9.22,14.93-48.53,28-73.35-7.74-17.35,9.72-45.02,9.06-48.53-21.91-9.88,6.59-41.06,10.1-40.41-21.52.66-31.62,42.16-51.17,62.58-33.38,9.22-18.01,21.3-27.89,40.84-27.01,19.54.88,32.5,15.37,34.48,23.72Z"/>
          <path class="cls-20" d="M468.41,708.97c6.7-4.34,18.23,23.72,31.4,23.94,13.18.22,17.41-19.86,18.92-40.01,5.68,10.59,10.73,23.77-2.88,40.01-13.61,16.25-26.35,13.61-41.5-3.52,5.93,17.13,3.45,44.83-2.98,56.47-2.95-21.12-1.42-32.1-4.71-50.1s-1.98-24.38,1.76-26.79Z"/>
          <path class="cls-9" d="M268.09,706.99s20.09,25.36,53.69,10.87c14.66,19.43,47.43,29.15,72.8,15.81,7.25,13.01,18.28,21.25,26.52,24.38-.82,17.95-2.64,31.13,2.31,51.39,4.94,20.26,44.47,18.28,54.68-2.96,10.21-21.25,11.36-28.99,13.51-51.06h8.07l-28.27,260.17s5.76,4.61,5.6,12.02c-.16,7.41-1.48,18.45-2.31,22.73-.82,4.28-6.59,18.67-92.89,23.06-39.53.44-127.15-10.98-158.11-45.02-1.1-3.73,2.42-31.84,2.42-31.84,0,0,7.91-3.07,8.78-16.47s3.4-57.53,6.2-60.17,20.15-11.2,16.2-44.14c-3.95-32.94-3.29-51.82-1.54-75.1,1.76-23.28,12.35-93.66,12.35-93.66Z"/>
          <path class="cls-36" d="M273.96,763.76l25.03,6.37s-5.49,39.53-4.83,51.82c.66,12.3,22.4,17.57,26.79-1.1,4.39-18.67,6.37-45.46,6.37-45.46,0,0,38.03,9.18,92.91,12.71,5.03,20.67,10.3,24.18,18.87,29.01,8.56,4.83,27.32,6.11,30.08,1.76,2.76-4.36,10.32-10.1,10.32-10.1,0,0-6.59,64.12-10.76,100.79-4.17,36.67-9.66,84.54-10.76,91.79-1.1,7.25-7.69,15.81-75.32,17.13-67.64,1.32-131.98-18.45-134.17-37.99.22-8.34,8.13-70.93,11.42-104.97,3.29-34.04,11.64-96.4,14.05-111.77Z"/>
          <path class="cls-43" d="M321.61,995.21s47.65,8.34,68.73,2.2c21.08-6.15,17.13-36.89,23.72-89.16,6.59-52.26,13.92-100.2,13.92-100.2,0,0,23.48,23.44,49.25,0,0,0-24.74,190.23-28.91,200.77-1.21,2.71-6.12,4.35-9.88,5.07s-48.1,11.25-116.83.23c-1.98-10.79,0-18.92,0-18.92Z"/>
          <path class="cls-42" d="M426.91,935.48s16.91,19.32,20.2,3.95,7.25-80.59,6.15-88.5c-1.1-7.91-12.96-12.08-16.03,1.1-3.07,13.18-9,64.12-10.32,83.45Z"/>
          <path class="cls-29" d="M427.65,971.28c5.83-.13,9.31-5.19,6.59-10.38-2.72-5.19-11.78-4.04-14.41.82s.16,9.72,7.82,9.55Z"/>
          <path class="cls-16" d="M284.26,866.91c1.22-6.1,33.27,3.29,32.94,10.71-.33,7.41-7.08,90.42-9.55,97.01-2.47,6.59-12.35,9.55-18.12,9.55s-12.68-6.09-12.85-14.99,6.92-98.98,7.58-102.28Z"/>
          <ellipse class="cls-22" cx="390.82" cy="864.19" rx="9.72" ry="7.33"/>
          <ellipse class="cls-22" cx="345.28" cy="923.49" rx="9.47" ry="8.98"/>
          <ellipse class="cls-22" cx="299.74" cy="858.55" rx="8.24" ry="6.39"/>
          <ellipse class="cls-22" cx="351.8" cy="812.11" rx="9.76" ry="10.33"/>
          <path class="cls-4" d="M236.33,832.98s.99,18.78,3.46,36.07c2.47,17.29.16,36.56-10.05,36.56s-13.18-24.05-8.73-43.32c4.45-19.27,9.72-28.33,15.32-29.32Z"/>
          <path class="cls-13" d="M234.02,890.2c2.64-2.86-5.11-20.13-5.27-25.25s-5.77-10.34-5.77-10.34c0,0-5.53,16.56-3.59,33.13,0,0,9.03,6.15,14.63,2.46Z"/>
          <path class="cls-51" d="M244.4,773.69l4.09-25.03s-41.81-5.82-58.93,11.14c-17.13,16.96-28.33,35.25-32.61,134.06-2.31,69.01,23.83,88.77,60.75,89.1l4.14-24.87s-45.62-.66-43.48-39.36c2.14-38.7,7.25-99.64,13.18-119.24,5.93-19.6,21.25-26.41,52.87-25.8Z"/>
          <path class="cls-17" d="M248.49,746.63l-.13,2.83s-47.33-3.71-66.76,26.76c-19.43,30.47-20.09,105.24-22.73,128.3-2.64,23.06,3.96,59.36,26.69,70.85-31.13-18.31-39.04-38.22-36.24-77.92,2.8-39.7,6.26-78.9,10.87-101.47,4.61-22.56,19.16-59.35,88.31-49.35Z"/>
          <path class="cls-14" d="M333.12,1029.91c43.41,6.24,98.86,3.95,120.33-7.41,3.19-1.48,6.15,5.44,4.34,12.52s-22.89,21.41-106.89,16.8c-56.49-3.29-101.29-22.73-104.25-30.8-2.96-8.07.99-13.83,4.61-13.18,3.62.66,29.15,14.49,81.85,22.07Z"/>
          <path class="cls-50" d="M1123.44,1355.68l9.88-5.76s29.54,27.01,77.85,26.13c48.31-.88,77.52-39.09,89.38-66.76,11.86-27.67,8.34-71.37,7.03-99.48-1.32-28.11,4.61-59.95,15.81-76.64l10.76,4.61s-14.05,32.28-13.4,81.69c.66,49.41,2.2,91.13-21.08,124.51-23.28,33.38-56.88,50.51-97.28,47.43-40.41-3.07-72.25-28.22-78.94-35.74Z"/>
          <path class="cls-31" d="M1325.36,1114.07s20.09,15.81,32.17,13.4c1.98-1.43,26.46-58.52,27.56-63.79-13.72-5.16-30.19-13.51-32.17-39.42-19.32,16.69-27.56,89.81-27.56,89.81Z"/>
          <polygon class="cls-10" points="1342.16 1008.11 1358.3 1018.54 1331.43 1118.35 1317.46 1109.57 1342.16 1008.11"/>
          <path class="cls-31" d="M1448.33,923.68l-34.26,74.88s-7.25-31.18-21.52-39.75c-14.27-8.56-26.21-13.12-26.21-13.12l10.54-40.02s34.83,11.86,40.27,12.93c18.12,5.02,31.18,5.08,31.18,5.08Z"/>
          <path class="cls-10" d="M1369.55,901.06l13.83,6.01-7.93,42.61-13.48-4.81s5.02-24.46,7.58-43.81Z"/>
          <path class="cls-31" d="M1476.28,875.78l-18.69,34.09s-39.12-1.65-75.93-24.62c-3.38-23.55,6.92-29.32,6.92-29.32,0,0,31.05,23.55,87.7,19.85Z"/>
          <path class="cls-10" d="M1374.17,846.63l14.91,9.31-2.36,32.33s-11.15-4.5-12.88-9.6l.33-32.03Z"/>
          <path class="cls-54" d="M1364.67,771.17s84.22,43.1,168.98,52.98c-23.94,33.38-41.28,50.95-113.75,30.08-34.26-12.52-55.56-23.83-55.23-83.06Z"/>
          <circle class="cls-18" cx="1383.66" cy="802.84" r="7.58"/>
          <circle class="cls-18" cx="1405.18" cy="804.82" r="6.7"/>
          <circle class="cls-18" cx="1423.85" cy="808.99" r="6.15"/>
          <circle class="cls-18" cx="1405.18" cy="831.83" r="9.44"/>
          <circle class="cls-18" cx="1425.61" cy="833.37" r="7.91"/>
          <circle class="cls-18" cx="1449.16" cy="831.83" r="8.34"/>
          <circle class="cls-18" cx="1382.35" cy="823.49" r="6.59"/>
          <path class="cls-10" d="M1363.68,738.94l-3.73,13.83s38.43,22.62,95.3,38.87c56.88,16.25,84.76,21.08,93.77,16.25v-7.47s-36.45-7.91-98.6-27.23c-62.15-19.32-86.74-34.26-86.74-34.26Z"/>
          <path class="cls-7" d="M1374.88,726.65s71.15,40.63,174.14,55.34c4.39-32.94-.44-81.25-52.26-99.7-46.33-16.03-89.16-9-121.88,44.36Z"/>
          <circle class="cls-18" cx="1423.19" cy="739.6" r="7.25"/>
          <circle class="cls-18" cx="1443.39" cy="730.16" r="7.91"/>
          <circle class="cls-18" cx="1464.48" cy="716.98" r="7.47"/>
          <circle class="cls-18" cx="1486.22" cy="705.12" r="7.47"/>
          <circle class="cls-18" cx="1495.22" cy="724.45" r="7.03"/>
          <circle class="cls-18" cx="1517.4" cy="712.59" r="7.91"/>
          <circle class="cls-18" cx="1506.86" cy="695.68" r="6.92"/>
          <circle class="cls-18" cx="1474.58" cy="735.21" r="8.13"/>
          <circle class="cls-18" cx="1454.48" cy="747.95" r="7.14"/>
          <circle class="cls-18" cx="1486.22" cy="758.27" r="7.47"/>
          <circle class="cls-18" cx="1508.39" cy="746.85" r="8.23"/>
          <circle class="cls-18" cx="1528.38" cy="735.21" r="7.58"/>
          <circle class="cls-18" cx="1537.55" cy="759.09" r="6.86"/>
          <circle class="cls-18" cx="1518.5" cy="769.69" r="6.81"/>
          <circle class="cls-18" cx="1454.67" cy="697.66" r="7.91"/>
          <circle class="cls-18" cx="1475.67" cy="685.36" r="7.03"/>
          <circle class="cls-18" cx="1433.51" cy="711.27" r="7.3"/>
          <circle class="cls-18" cx="1409.8" cy="720.5" r="6.15"/>
          <circle class="cls-18" cx="1423.19" cy="694.36" r="5.27"/>
          <circle class="cls-18" cx="1442.08" cy="685.36" r="4.69"/>
          <path class="cls-21" d="M654.6,854.67s12.75-8.63,6.82-79.28c-1.87-51.95-4.51-74.61-4.18-76.09s111.66-10.97,111.66-10.97l183.47-.49s105.9-30.14,107.71-30.8,33.27-2.31,36.4-1.32c3.13.99,26.02,19.76,27.5,20.92s12.35,20.26,12.35,20.26c0,0,4.12,62.09,4.34,78.12s-49.85,108.7-49.85,108.7c0,0-43.92,32.94-47.87,80.81-3.95,47.87,25.69,97.28,37.55,105.41,11.86,8.13,57.53,25.69,99.26,25.03,41.72-.66,104.75-26.57,136.15-99.48l12.74,7.47s-12.74,98.66-48.75,124.76c-36.01,26.1-172.6,51.57-225.74,12.49-15.81-16.69-19.98-20.64-26.79-18.01-6.81,2.64,48.31,88.06,122.75,108.26,74.44,20.2,111.55,16.69,141.64,2.42,3.29,25.69.22,52.7-3.73,61.71-3.95,9-71.37,21.52-71.37,21.52l-80.15-8.13s-60.61-23.5-63.02-25.91c-2.42-2.42-47.87-27.01-50.07-29.21-2.2-2.2-33.16-25.03-33.16-25.03l-15.15-20.42s-20.64-54.9-27.01-54.68c-6.37.22,5.93,42.6,8.56,55.12,2.64,12.52,0,48.09-6.81,69.83-6.81,21.74-20.86,63.46-20.86,76.64s-10.98,59.95,30.52,71.37c41.5,11.42,61.49-24.38,62.8-52.04.44-5.05,19.54-8.13,18.01,13.4-1.54,21.52-32.06,75.54-83.45,76.86-51.39,1.32-93.33-36.89-93.11-97.06,0-28.55,13.83-54.46,13.4-96.62-.44-42.16-22.18-123.41-45.9-117.92-23.94,5.93-57.31,61.05-62.37,86.74-5.05,25.69-22.62,79.05-30.52,89.81-7.91,10.76-45.02,45.68-69.39,58.63s-68.29,23.5-90.47,8.13c-22.18-15.37-25.69-28.99-19.54-38.43s19.98-1.1,27.67,2.64,53.14,10.76,81.25-41.94c28.11-52.7,27.89-85.42,33.16-110.46,5.27-25.03,24.81-76.86,28.33-82.13-17.13,8.56-21.74,22.18-24.59,25.03s-44.58,40.19-50.29,46.55c-5.71,6.37-80.81,48.31-90.25,50.29-9.44,1.98-66.1,15.37-80.37,15.15-14.27-.22-46.55-1.1-56-5.71-9.44-4.61-49.41,2.2-77.08-32.28-27.67-34.48-41.94-64.12-39.97-101.45,10.98-17.57,30.52,11.2,30.52,11.2,0,0,14.49,12.3,23.28,28.11,8.78,15.81,40.41,52.04,108.04,45.9,67.64-6.15,109.8-51.82,129.56-67.2,19.76-15.37,52.48-42.82,62.8-61.93,3.51-6.37,0-10.32,0-10.32,0,0-32.28,29.43-48.09,36.23s-76.86,1.54-98.6-21.74c-21.74-23.28-9.66-52.92-9-55.78.66-2.85,16.03-21.08,16.03-21.08,0,0,34.04,34.26,85.86,34.48s71.59-13.83,74.88-35.14c3.29-21.3-50.95-23.06-54.24-91.35,0-23.94,10.98-42.6,33.16-51.17,0,0,3.29-8.02-10.43-8.4Z"/>
          <path class="cls-41" d="M657.25,699.29c-2.77-17.63,1.91-46.32,1.91-46.32,0,0,63.57,23.39,216.41,24.7,152.84,1.32,192.97-43.86,192.97-43.86,0,0,10.43,11.09,23.39,7.58,22.07,11.2,63.57,34.26,66.86,43.97,11.51,33.43,6.26,91.41-18.78,150.7s-73.45,68.18-83.34,126.49c-10.21,70.16,34.26,110.68,66.76,124.47-110.13-4.65-114.85-123.15-64.78-191.67,50.07-68.51,63.24-91.57,71.81-148.23,8.56-56.66-16.14-64.56-63.57-82.68-19.43,24.7-72.8,38.54-182.48,44.14-109.69,5.6-165.4-16.73-165.4-16.73l-61.76,7.44Z"/>
          <path class="cls-12" d="M1296.02,1109.39s.62,6.7,7.43,15.27c-19.54,19.98-86.74,75.54-217.84,45.68-18.01-9.88-31.46-30.14-31.46-30.14,0,0,77.57,21.58,129.62,13.23,63.68-9.24,97.35-35.15,112.25-44.04Z"/>
          <path class="cls-3" d="M1290.39,1286.53s-2.3,18.2-9.33,29.62c-76.42,18.67-197.31,24.08-303.7-87.05-2.39-18.63-10.72-42.92-10.72-42.92,0,0,34.27,40.94,74.3,70.22,40.02,29.28,153.38,75.17,249.46,30.13Z"/>
          <path class="cls-47" d="M957.49,1214.83s-9.45,48.07-22.29,90.89c-12.85,42.82-51.72,106.13,29.15,121.08-29.81-13.04-42.32-37.75-22.23-90.12,20.09-52.37,22.28-89.72,15.38-121.85Z"/>
          <path class="cls-39" d="M836.17,1170.13s1.77-2.66.44-15.36c-.1-.92.02-2.64-1.68-3.28-9-2.93-39.53-1.38-59.17,48.49-20.75,52.7-25.52,92.68-57.31,134.39-31.8,41.71-77.47,66.6-151.87,51.42,0,0,0,0,0,0,18.49,15.78,61.64,41.12,132.44-3.34,70.82-44.47,72.14-115.62,88.94-157.78,16.8-42.16,23.18-50.94,48.22-54.56Z"/>
          <path class="cls-23" d="M752.05,1125.54s-25.69,93.55-46.77,130.77c-1.65-48.09,3.29-104.75,46.77-130.77Z"/>
          <path class="cls-56" d="M705.01,1147.7s-.06,14.4-13.24,33.84c-44.14,37.22-104.75,92.91-199.61,96.03-67.53,2.46-120.18-29.1-133.87-45.15,47.9,13.69,91.05,33.12,182.29,12.04,91.24-21.08,164.43-96.75,164.43-96.75Z"/>
          <path class="cls-23" d="M687.49,1093.59s-78.73,97.83-164.37,113.64c53.03-38.54,66.87-52.04,88.94-68.84,22.07-16.8,50.07-48.09,75.43-44.8Z"/>
          <path class="cls-38" d="M360.07,1090.63s-21.52,50.53,18.72,89.33c-41.12-20.49-53.97-25.2-68.14-49.8,1-32.95,5.28-42.58,5.28-42.58,0,0,28.25,2.47,44.14,3.05Z"/>
          <path class="cls-55" d="M527.5,1008.22s-22.49-18.78-32.82-40.52c-5.05,29.87-6.15,38.87-1.76,45.68s3.07,42.16-9.66,56.22c28.33,26.79,57.41,53.24,117.92,52.7l43.21-36.08s-20.15,8.85-55.28,11.05c-35.14,2.2-60.39-8.34-68.07-27.67-7.69-19.32,6.46-61.38,6.46-61.38Z"/>
          <path class="cls-45" d="M910.05,935.87s-9.66-.22-9.99-5.38c-.33-5.16,17.13-11.09,32.28-2.85,15.15,8.23,17.02,17.79,10.87,21.96-4.28-2.42-5.71-5.05-8.34-4.72-2.64.33-10.76,11.75-19.65,31.18-8.89,19.43-41.83,65-86.63,64.34-31.4-.44-65.06-25.86-76.25-80.87-19.76-11.86-34.81-23.22-34.48-29.92.33-6.7,9-6.37,11.64-4.28,2.64,2.09,43.7,37,102,34.48,58.3-2.53,78.56-23.94,78.56-23.94Z"/>
          <path class="cls-46" d="M789.55,1002.62s17.5-15.7,42.62-15.92,47.74,7.96,47.74,7.96c0,0-15.81,25.53-51.39,27.28-19.32.99-35.03-8.89-38.98-19.32Z"/>
          <path class="cls-45" d="M986.3,714.73c12.72,4.88,19.76,16.91,23.72,23.83,3.95,6.92,9,2.42,8.78-3.07-.22-5.49-6.15-23.17-24.92-31.4-18.78-8.23-48.09-4.61-51.39,3.62-1.76,4.83,4.83,5.38,13.61,4.72,8.78-.66,19.32-1.87,30.19,2.31Z"/>
          <path class="cls-45" d="M674.64,710.94s2.85,4.17,6.7,3.73,11.53-11.64,25.47-16.36c13.94-4.72,25.91-1.54,40.08,7.69,3.62,1.98,6.59-4.17,1.32-10.32-5.27-6.15-16.47-12.85-32.61-12.52s-35.14,13.83-40.95,27.78Z"/>
          <path class="cls-45" d="M740.69,867.52s9.88,8.13,13.51,14.93c-2.96,2.74-6.92,5.27-11.53,2.42-4.61-2.85-34.26-22.29-59.62-21.96-1.65-.11-12.52-24.92-11.53-49.3.99-24.38,14.82-75.87,54.24-75.1,26.57,1.65,40.84,33.21,40.84,65s-14.69,54.42-25.91,64.01Z"/>
          <path class="cls-11" d="M708.79,853.57l-17.62-1.65s-8.73-14.33-8.73-37.22,14-63.57,40.19-63.57,35.25,38.7,30.3,69.17c-2.64-23.72-7.58-38.54-28.33-38.54s-29.97,38.37-15.81,71.81Z"/>
          <path class="cls-45" d="M977.08,876.79s15.15,7.91,12.68,13.18c-2.47,5.27-11.86,3.79-18.94.82-7.08-2.96-22.56-6.05-37.22-5.66-14.66.39-30.3,7.47-35.9,5.33-5.6-2.14,0-6.42,0-6.42,0,0-13.34-23.72-11.36-48.09,1.98-24.38,17.95-82.35,65.22-83.01,28.82-.16,48.59,34.92,45.13,72.8-4.12,33.6-19.6,51.06-19.6,51.06Z"/>
          <path class="cls-11" d="M979.39,847.31s1.15-47.93-28.66-47.93-36.4,56.33-25.53,73.95l-16.14,4.28s-12.05-17.38-10.87-43.48c1.21-26.63,17.13-65.88,49.08-69.17,18.94-1.15,48.42,23.06,32.12,82.35Z"/>
          <path class="cls-6" d="M1350.37,919.97l-3.51,20.2-11.47,3.29s4.88,8.78,14.98,16.91c10.1,8.13,41.72,13.4,44.8,53.58.88,17.35-5.98,33.6-11.78,32.94s-10.24-7.03-9.55-11.86c.69-4.83,4.2-25.25-13.37-35.57-17.57-10.32-53.08-24.94-51.11-50.47,1.98-25.53,23-35.39,41.01-29.02Z"/>
          <path class="cls-25" d="M1335.39,1219.34s57.97-26.57,81.35-83.23,11.89-100.79,11.89-100.79l22.37-38.54,4.61-2.31,7.58,5.6s20.09,38.87,10.87,98.82c-9.22,59.95-50.06,142.96-138.67,181.83,0,0,3.3-23.28,0-61.38Z"/>
          <path class="cls-48" d="M1332.09,1299.49s3.49-17.57,3.98-25.49c36.87-21.29,70.92-47.09,102.75-99.19,31.83-52.1,32.14-103.38,32.98-149.05,0,0,10.72,37.37,8.08,83.63-2.64,46.26-37.33,143.54-147.79,190.09Z"/>
          <path class="cls-27" d="M1464,1001.79s-8.92-23.73-18.27-37.85c-15.81,34.04-23.94,52.92-23.94,52.92,0,0,6.58,17.13,9,32.5,18.01-31.18,29.96-46.18,33.21-47.57Z"/>
          <path class="cls-33" d="M1117.54,1189.47s28.66,3.73,38.32,3.84c2.85,0,7.14,15.15-14.93,14.82-13.51-.88-25.69-13.51-23.39-18.67Z"/>
          <path class="cls-33" d="M1188.47,1191.23c5.09-2.2,31.4-6.37,33.27-6.7,1.21,4.94-.22,13.61-11.53,17.24-11.31,3.62-29.1-7.36-21.74-10.54Z"/>
          <path class="cls-33" d="M1245.24,1176.62c.01-.4,29.32-14.05,30.96-14.6,1.65-.55,3.73,10.76-5.16,16.47-8.89,5.71-26.02,5.49-25.8-1.87Z"/>
          <path class="cls-28" d="M1491.4,1134.24s-4.5,19.76-9.66,29.97c2.64,3.29,10.32-4.06,11.86-12.52,1.54-8.45-.88-18.23-2.2-17.46Z"/>
          <path class="cls-28" d="M1465.82,1196.28s-21.3,34.37-22.07,37.55c2.96,1.32,17.9-3.29,23.19-13.67,4.58-8.98,6.13-19.27-1.12-23.88Z"/>
          <path class="cls-28" d="M1391.82,1279.94s24.48-20.97,27.56-22.29c3.07-1.32,9.33,6.48,2.31,13.94-7.03,7.47-18.89,16.58-29.87,8.34Z"/>
          <path class="cls-28" d="M1366.78,1297.4c2.4-.53,5.27,10.1-3.18,17.79-8.45,7.69-25.03,9.33-32.94,8.34-.22-4.5.88-8.89,7.8-11.53s24.38-13.72,28.33-14.6Z"/>
          <path class="cls-28" d="M1166.35,1340.61c12.32,1.31,24.7,1.21,28.33,2.09,3.62.88,3.51,5.49-.88,8.4-4.39,2.91-18.78,5.76-25.36,3.9s-18.23-11.86-15.48-16.09c2.2-1.6,8.45,1.18,13.4,1.7Z"/>
          <path class="cls-28" d="M1128.51,1335.01s-5.64-3.4-21.02-6.92c-15.37-3.51-17.68-5.6-19.43-4.28s.44,12.52,14.49,17.02c14.05,4.5,18.97,2.42,25.96-5.82Z"/>
          <path class="cls-28" d="M1056.11,1308.33s-24.92-14.93-31.73-18.89c-2.74,7.36.22,15.7,7.14,20.53,6.92,4.83,17.9,8.89,24.59-1.65Z"/>
          <path class="cls-37" d="M770.19,1325.29s-8.02,22.29-19.98,35.03c8.34.55,15.81-3.62,19.98-9.11,4.17-5.49,9-19.21,0-25.91Z"/>
          <path class="cls-37" d="M733.19,1376.24c1.59-1.42,5.38,4.94,3.4,11.86s-11.42,18.89-20.09,21.52-18.34-3.62-17.57-8.02c9.88-8.56,31.18-22.62,34.26-25.36Z"/>
          <path class="cls-1" d="M653.2,1229.22c2-1.15,4.72,2.2,6.59,5.82,1.87,3.62-.55,10.21-10.1,16.14-9.55,5.93-20.53,7.36-26.35,0,10.21-9.88,28.33-21.08,29.87-21.96Z"/>
          <path class="cls-1" d="M595.34,1263.58c1.84-1.04,4.06,8.78-2.85,13.51-6.92,4.72-18.56,8.67-25.36-.44,9.33-8.13,25.69-11.64,28.22-13.07Z"/>
          <path class="cls-1" d="M503.66,1291.03c-.04-.35,15.48-2.42,25.8-4.72,10.32-2.31,11.53-1.32,11.09,4.28-.44,5.6-8.34,9.33-16.69,9.88-8.34.55-19.65-4.06-20.2-9.44Z"/>
          <path class="cls-1" d="M441.62,1289.61s30.63,1.65,33.49,1.98c.66,6.7-3.95,12.85-12.85,13.18s-20.42-8.02-20.64-15.15Z"/>
          <path class="cls-1" d="M414.83,1283.02s-29.97-14.93-35.57-17.79c-.22,3.95-1.76,9.66,1.65,12.74s20.86,15.59,33.93,5.05Z"/>
          <path class="cls-1" d="M358.84,1251.51s-13.4-11.53-22.07-22.18c-6.15,4.72-.77,16.14,3.29,19.98,4.06,3.84,11.31,5.93,18.78,2.2Z"/>
          <path class="cls-1" d="M318.43,1206.93s-12.96-21.74-17.35-34.81c-4.72,2.42-5.6,14.38-2.31,20.64,3.29,6.26,10.1,16.03,19.65,14.16Z"/>
          <path class="cls-1" d="M502.62,1107.18c1.32-1.08-18.34-12.63-27.45-22.62-3.29-1.21-3.29,11.64,2.85,17.57s19,9.66,24.59,5.05Z"/>
          <path class="cls-1" d="M552.36,1129.58c-2.71-.45-20.97-4.39-27.89-8.45-3.62.44-3.9,5.82-1.35,9.11s8.37,8.13,19.57,7.8,13.38-7.83,9.66-8.45Z"/>
          <path class="cls-8" d="M800.88,381.36v8.56s21.74,1.98,27.01,1.1c-1.98,8.56-5.71,12.3-11.2,12.52s-15.81-.88-15.81-.88c0,0-4.01,22.53-5.33,48.66,17.57-6.81,23.18-10.7,31.02-19.45,8.13-10.54,10.54-13.4,13.83-11.86,3.29,1.54.44,17.3-18.11,33.6-13.25,10.36-23.18,14.05-28.23,14.71l-.44,5.93s-10.1,4.17-18.45-1.32l-.44-5.05s-12.3-5.93-21.52-16.69-11.68-18.17-12.78-25.57c-1.01-6.76-1.72-12.86,3.99-13.3,5.71-.44,10.54,31.84,34.04,38.21l5.27-50.07s-13.4-.88-18.67-2.2c-5.27-1.32-6.59-10.98-5.05-13.18,4.83,1.98,22.18,4.39,25.69,3.51l.88-8.34s-10.49-2.09-10.65-13.94c-.16-11.86,12.35-9.39,12.35-9.39,0,0-2.14-10.21,8.56-10.21,7.91,0,8.56,7.08,8.07,10.54,0,0,10.38-.82,10.38,10.05-.16,14.16-14.44,14.05-14.44,14.05Z"/>
          <circle cx="795.44" cy="366.89" r="7.08"/>
          <path class="cls-19" d="M1031.1,1370.15s9.18,18.99-5.73,44.52c-14.91,25.53-51.37,41.5-76.85,49.08,32.05.99,56.81-5.16,74.85-23.38,18.03-18.23,18.09-46.03,16.97-57.93-1.13-11.9-9.23-12.28-9.23-12.28Z"/>
          <path class="cls-41" d="M1068.81,847.17c0,3.97,1.63,6.94,5.05,6.94s5.19-4.54,5.19-8.51-1.77-5.87-5.19-5.87-5.05,3.47-5.05,7.44Z"/>
          <path class="cls-41" d="M1098.44,798.47c0,5.44,1.94,9.51,6,9.51s6.17-6.22,6.17-11.66-2.11-8.04-6.17-8.04-6,4.75-6,10.19Z"/>
          <path class="cls-41" d="M1106.11,753.12c1.48,3.68,4.1,5.83,7.27,4.56,3.17-1.28,3.13-6.15,1.65-9.83s-3.83-4.78-7.01-3.51c-3.17,1.28-3.39,5.1-1.91,8.78Z"/>
          <path class="cls-49" d="M1082.47,601.3c-.91,5.55.89,12.04,6.69,13,5.8.96,9.26-3.1,10.17-8.65.91-5.55-1.06-10.5-6.86-11.46-5.8-.96-9.09,1.56-10,7.12Z"/>
          <circle class="cls-18" cx="1460.3" cy="849.62" r="8.34"/>
          <circle class="cls-18" cx="1468.65" cy="826.78" r="7.03"/>
          <circle class="cls-18" cx="1486.22" cy="840.18" r="7.03"/>
          <circle class="cls-18" cx="1508.39" cy="830.07" r="7.03"/>
          <circle class="cls-18" cx="1375.76" cy="788.28" r="6"/>
          <circle class="cls-18" cx="1402.07" cy="706" r="5.27"/>
          <circle class="cls-18" cx="1391.24" cy="727.08" r="4.39"/>
        </g>
      </g>
      <g>
        <path class="cls-40" d="M489.24,1632.1c-17.89,6.28-35.73,3.53-53.81-8.16-16.13-10.44-25.73-27.46-28.57-50.67-2.76-22.16,1.3-41.65,11.97-58.14,11.47-17.72,27.53-29.71,47.88-35.91,21.75-6.8,41.16-4.55,58.53,6.69,8.33,5.39,14.51,12.16,18.55,20.3.78,1.51,1.44,2.44,1.97,2.78,1.24.8,3.52.77,7.03.02,3.5-.75,6.14-.55,7.91.59,4.08,2.64,4.54,6.2,1.44,10.99l-22.48,34.74c-2.98,4.61-6.42,5.65-10.5,3.01-4.61-2.98-5.6-6.89-3.03-12.02,7.91-16.51,6.11-28.49-5.59-36.05-11.52-7.45-24.05-7.52-38.07-.24-11.4,5.95-21.17,15.22-29.08,27.45-7.45,11.52-11.85,23.76-12.97,36.37-1.25,15.53,3.41,26.6,14.04,33.48,5.85,3.78,11.73,5.58,17.76,5.2,1.41.16,6.14-.55,14.38-2.01,4.96-1.06,8.72-.65,11.55,1.19,4.25,2.75,4.86,8.42,1.99,12.86-1.95,3.01-5.66,5.64-10.91,7.53Z"/>
        <path class="cls-40" d="M587.96,1699.33c-19.38-7.25-32.96-21.57-40.74-42.96-7.28-20.31-7.23-40.34.17-60.12,7.4-19.77,20.5-34.93,39.32-45.48,19.91-11.04,39.55-12.93,58.93-5.69,19.58,7.32,33.16,21.64,40.74,42.96,7.28,20.3,7.23,40.34-.17,60.12-7.39,19.78-20.5,34.93-39.32,45.48-19.71,11.11-39.35,13.01-58.93,5.69ZM637.06,1568.02c-10.09-3.77-20.9-.15-32.53,11.05-18.69,18.03-27.56,41.76-25.29,67.63,1.42,16.08,7.21,25.91,17.3,29.69,10.28,3.85,21.1.23,32.73-10.98,18.56-18.3,27.29-41.64,25.29-67.63-1.42-16.08-7.21-25.91-17.5-29.76Z"/>
        <path class="cls-40" d="M885.92,1754.65l-51.06-4.97c-5.88-.57-8.37-3.36-7.46-8.36.54-3.34,2.88-5.66,7.02-6.74,6.09-1.53,9.36-4.61,9.81-9.23l7.44-76.49-41.5,58.11c-3.91,5.35-7.35,7.98-10.5,7.68-2.73-.27-5.6-3.51-8.2-9.49l-29.73-65.04-7.44,76.49c-.45,4.62,2.16,8.27,7.84,10.94,3.85,1.86,5.71,4.59,5.59,7.97-.07,5.08-3.05,7.34-8.93,6.77l-43.29-4.21c-5.88-.57-8.37-3.36-7.46-8.36.54-3.34,2.88-5.66,7.02-6.74,6.09-1.53,9.36-4.61,9.81-9.23l10.67-109.69c.45-4.62-2.16-8.27-7.84-10.94-3.85-1.86-5.71-4.59-5.59-7.97.07-5.08,3.05-7.34,8.93-6.77l30.47,2.96c5.67.55,9.98,2.03,12.91,4.65,2.55,2.16,4.76,5.55,7.07,10.23l20.87,42.76c2.47,5.12,3.91,7.8,4.12,7.82l5.78-7.07,30.8-37.52c3.6-4.32,6.64-7.2,9.12-8.66,3.38-2,7.68-2.65,13.35-2.09l35.93,3.5c5.88.57,8.37,3.36,7.46,8.36-.54,3.34-2.88,5.66-7.02,6.74-6.09,1.53-9.36,4.6-9.81,9.23l-10.67,109.69c-.45,4.62,2.17,8.27,7.84,10.95,3.85,1.86,5.71,4.59,5.59,7.97-.07,5.08-3.05,7.34-8.93,6.77Z"/>
        <path class="cls-40" d="M1075.22,1724.1c.66,4.38-1.28,7.03-6.08,7.76l-116.68,17.67c-5.84.89-8.94-1.21-9.28-6.28-.3-3.37,1.41-6.19,5.16-8.25,5.53-2.97,7.94-6.76,7.25-11.35l-16.5-108.96c-.7-4.59-4.12-7.49-10.28-8.69-4.19-.86-6.65-3.05-7.37-6.36-1.18-4.95,1.16-7.86,7-8.75l116.68-17.67c4.8-.73,7.44,1.22,8.11,5.6l3.35,22.13c.98,6.47-2.06,10.35-7.1,10.9-2.33.14-5.36-1.54-8.73-5.51-3.14-3.79-6.38-5.44-9.92-4.9l-47.59,7.21c-3.13.47-4.58,2.19-4.14,5.11l5.34,35.28c.19,1.25.91,1.78,2.16,1.59l20.87-3.16c4.59-.7,7.31-3.88,8.37-9.6.65-4.16,2.66-6.38,5.97-7.1,4.77-.94,7.41,1.01,8.27,6.65l5.69,37.57c.85,5.64-1.09,8.28-5.93,8.8-3.37.3-5.95-1.23-7.81-5.01-2.7-5.14-6.24-7.38-10.83-6.69l-21.08,3.19c-1.04.16-1.61.67-1.45,1.71l5.41,35.69c.44,2.92,2.33,4.13,5.47,3.66l47.59-7.21c3.55-.54,6.16-3.07,8.03-7.62,2.05-4.79,4.45-7.29,6.71-7.85,4.98-.97,9.03,1.83,10.01,8.31l3.35,22.13Z"/>
        <path class="cls-40" d="M1221.35,1653.62c-6.05,20.18-18.79,34.12-38.31,41.6l-54.2,20.79c-5.52,2.12-8.99.74-10.41-4.15-1.01-3.23.05-6.35,3.27-9.17,4.76-4.09,6.31-8.3,4.65-12.64l-39.47-102.89c-1.66-4.34-5.63-6.43-11.91-6.29-4.27.06-7.15-1.55-8.56-4.63-2.21-4.58-.55-7.93,4.96-10.04l55.58-21.32c19.91-7.64,38.9-5.88,56.5,5.23,15.81,9.99,27.32,25.24,34.72,45.7,7.59,20.38,8.65,39.64,3.18,57.8ZM1164.76,1577.43c-9.6-8.53-19.13-10.97-28.79-7.27l-6.7,2.57c-3.15,1.21-4.13,3.39-2.84,6.74l36.37,94.81,10.05-3.86c9.26-3.55,14.91-11.82,16.54-24.66,1.42-11.62-.21-24.12-4.73-37.08-4.94-13.48-11.42-23.88-19.9-31.26Z"/>
        <path class="cls-40" d="M1319.71,1454.47c-2.06,2.63-3.02,7.31-3.22,14.28l-.96,51c-.07,4.1.21,7.2.96,9.49.4,1.76,1.97,4.52,4.65,8.57l27.59,41.74c2.56,3.87,6.89,5.06,12.99,3.56,4.16-.98,7.32-.03,9.36,2.67,3.15,3.99,2.25,7.62-2.68,10.88l-44.74,29.57c-4.93,3.26-8.62,2.66-11.06-1.8-1.69-2.93-1.32-6.21,1.21-9.66,3.77-5.02,4.37-9.47,1.81-13.34l-25.26-38.22c-3.14-4.76-7.29-8.34-12.31-10.59l-51.9-24.15c-6.14-2.78-10.99-3.61-14.39-2.63-5.1,2.61-8.79,2.02-11.06-1.8-2.5-4.17-1.43-7.91,3.32-11.05l42.62-28.18c5.28-3.49,9.44-2.95,12.35,1.45,1.16,1.76,1.51,3.81,1.09,5.86-.42,1.29-1.24,3.1-2.6,5.26-1.47,2.75-1.6,4.85-.5,6.91.82,1.23,2.16,2.12,4.09,3.12l28.52,13.29.42-32.67c.07-1.82-.22-3.4-1.04-4.63-1.28-1.94-3.56-2.71-6.84-2.31-3.1.28-4.92.22-5.68.21-2.05-.42-3.8-1.54-4.96-3.3-2.91-4.4-1.78-8.44,3.33-11.82l36.11-23.87c4.93-3.26,8.79-2.78,11.47,1.27,2.62,3.58,1.73,7.21-2.68,10.88Z"/>
      </g>
      <g>
        <path class="cls-40" d="M410.02,424.9l-30.54,41.22c-3.52,4.75-7.19,5.45-11.01,2.09-2.59-2.18-3.37-5.39-2.17-9.49,1.82-6.01.87-10.39-2.86-13.16l-61.74-45.75,28.46,65.49c2.57,6.11,3.06,10.41,1.17,12.96-1.63,2.2-5.89,2.99-12.36,2.14l-71.07-7.99,61.74,45.75c3.73,2.77,8.21,2.4,13.42-1.09,3.58-2.34,6.87-2.53,9.71-.69,4.32,2.68,4.72,6.39,1.2,11.14l-25.89,34.94c-3.52,4.75-7.19,5.45-11.01,2.09-2.59-2.18-3.37-5.39-2.17-9.49,1.82-6.01.87-10.39-2.86-13.16l-88.54-65.61c-3.73-2.77-8.21-2.4-13.42,1.09-3.58,2.34-6.87,2.53-9.71.69-4.32-2.68-4.72-6.39-1.2-11.14l18.23-24.6c3.39-4.58,6.88-7.51,10.63-8.68,3.16-1.07,7.21-1.22,12.41-.79l47.4,4.12c5.66.52,8.7.67,8.83.5l-3.09-8.6-16.31-45.72c-1.85-5.31-2.76-9.4-2.73-12.27.02-3.93,1.69-7.95,5.08-12.53l21.49-29.01c3.52-4.75,7.19-5.45,11.01-2.09,2.59,2.18,3.37,5.39,2.17,9.49-1.82,6.01-.87,10.39,2.86,13.16l88.54,65.61c3.73,2.77,8.21,2.4,13.42-1.09,3.58-2.34,6.87-2.53,9.71-.69,4.32,2.68,4.72,6.39,1.2,11.14Z"/>
        <path class="cls-40" d="M470.64,375.49l-40,35.72c-4.41,3.94-8.14,3.88-11.2-.19-2.09-2.66-2.2-5.96-.2-9.73,3-5.51,2.96-10-.14-13.46l-73.4-82.2c-3.09-3.46-7.55-4.02-13.36-1.65-3.98,1.57-7.24,1.09-9.65-1.29-3.69-3.5-3.33-7.22,1.08-11.15l40-35.72c4.41-3.94,8.14-3.88,11.2.19,2.09,2.66,2.2,5.96.2,9.73-3,5.51-2.96,10,.14,13.46l73.4,82.2c3.09,3.46,7.55,4.02,13.36,1.65,3.98-1.57,7.24-1.09,9.65,1.29,3.69,3.5,3.33,7.22-1.08,11.15Z"/>
        <path class="cls-40" d="M558.89,302.9c-4.64,11.84-13.12,21.64-25.56,30-7.85,5.36-20.64,8.15-37.98,8.61l-2.35.27c-.18.12.28.82,1.21,2.24,2.88,4.42,1.52,10.85-2.9,13.73-4.42,2.88-10.67,1.41-13.55-3.02l-20.74-31.85c-2.88-4.42-1.58-10.56,2.84-13.44,3.72-2.42,8.1-1.49,13.61,2.72,5.75,4.57,12.87,6.99,21.35,7.26,8.37.09,15.66-1.88,21.56-5.97,9.73-6.34,13.89-17.36,8.36-25.85-4.72-7.25-16.35-9.25-35.07-5.88-17.66,3.44-29.86,4.83-37.05,4.23-13.92-1.26-24.92-7.71-32.93-19.62-8.01-11.92-9.51-25.05-4.73-38.99,4.53-12.78,12.89-22.76,25.16-30.24,9.61-5.75,20.65-8.91,33.01-9.66l6.33-.34c.71-.46.6-1.4-.32-2.81-3.11-4.78-1.52-10.85,2.9-13.73,4.42-2.88,10.44-1.76,13.55,3.02l18.32,28.13c2.88,4.42,1.58,10.56-2.84,13.44-1.59,1.04-3.18,1.31-6.39.63-2.86-.91-2.57-.85-6.24-2.23-6.76-2.65-14.37-3.49-22.52-2.47-8.27.85-15.14,3.06-20.98,6.86-3.89,2.53-6.57,6.55-7.86,11.92-1.29,5.37-.4,9.83,2.6,13.67,2.83,3.95,7.78,5.76,15.23,5.2l17.13-3.09c16.84-3.16,29.56-4.13,38.39-3.33,14.91,1.63,26.31,9.07,34.31,21.75,8,12.68,9.38,25.63,4.15,38.87Z"/>
        <path class="cls-40" d="M690.65,232.11c-5.09,18.26-17.55,31.32-37.49,39.45-17.79,7.25-37.25,5.38-57.9-5.58-19.75-10.42-33.41-24.91-40.82-43.09-7.97-19.55-8.61-39.58-2.04-59.81,6.87-21.72,19.83-36.35,38.99-44.16,9.19-3.75,18.28-4.94,27.26-3.59,1.69.22,2.82.22,3.41-.02,1.37-.56,2.65-2.45,4.04-5.75,1.39-3.3,3.06-5.35,5.02-6.15,4.5-1.83,7.68-.17,9.83,5.11l15.62,38.32c2.07,5.08.96,8.5-3.54,10.33-5.08,2.07-8.86.65-11.59-4.39-9-15.94-19.86-21.31-32.76-16.05-12.71,5.18-19.93,15.42-21.98,31.08-1.64,12.75.37,26.07,5.87,39.56,5.18,12.71,12.7,23.32,22.4,31.45,12.02,9.92,23.76,12.43,35.49,7.65,6.45-2.63,11.29-6.43,14.43-11.58.93-1.06,3.06-5.35,6.58-12.94,1.97-4.68,4.46-7.52,7.59-8.79,4.69-1.91,9.69.84,11.68,5.73,1.36,3.32,1.38,7.87-.07,13.25Z"/>
        <path class="cls-40" d="M777.88,237.01c-20.38,3.55-39.34-1.94-56.87-16.46-16.55-13.83-26.64-31.15-30.25-51.95-3.62-20.8.02-40.51,10.93-59.12,11.59-19.59,27.58-31.16,47.96-34.7,20.59-3.58,39.55,1.9,56.87,16.46,16.55,13.83,26.64,31.15,30.25,51.95,3.62,20.8-.02,40.51-10.93,59.12-11.38,19.55-27.37,31.12-47.96,34.7ZM753.85,98.9c-10.61,1.85-18.11,10.44-22.48,25.98-7.01,25.01-2.66,49.96,12.38,71.13,9.36,13.16,19.33,18.71,29.94,16.86,10.82-1.88,18.32-10.47,22.69-26.02,6.76-25.18,2.49-49.72-12.38-71.13-9.36-13.16-19.33-18.71-30.14-16.83Z"/>
        <path class="cls-40" d="M1012.77,85.31c-6.03,1.76-9.17,4.96-9.45,9.6l-7.24,123.08c-.47,8.01-4.92,11.77-13.14,11.28l-11.8-.69c-5.48-.32-8.63-.72-9.66-1.2-1.23-.71-2.99-3.14-5.47-7.72l-48.65-96.98-4.51,76.72c-.27,4.64,2.48,8.18,8.26,10.64,3.92,1.71,5.88,4.36,5.89,7.75.12,5.08-2.76,7.45-8.67,7.1l-43.42-2.55c-5.9-.35-8.49-3.04-7.77-8.07.41-3.36,2.67-5.77,6.76-7,6.03-1.76,9.17-4.96,9.45-9.6l6.47-110.02c.27-4.64-2.48-8.18-8.26-10.64-3.92-1.71-5.88-4.36-5.89-7.75-.12-5.08,2.77-7.45,8.67-7.1l33.09,1.95c5.69.33,10.05,1.65,13.09,3.94,2.63,2.06,4.97,5.37,7.23,10.15l41.83,87.06,4.24-72.08c.27-4.64-2.48-8.18-8.26-10.64-3.92-1.71-5.88-4.36-5.89-7.75-.12-5.08,2.77-7.45,8.67-7.1l43.42,2.55c5.9.35,8.49,3.04,7.77,8.07-.41,3.36-2.67,5.76-6.76,7Z"/>
        <path class="cls-40" d="M1132.42,241.26c-17.03,12.41-35.61,15.79-55.67,9.94l-55.74-16.25c-5.68-1.65-7.6-4.85-5.78-9.6,1.15-3.18,3.88-5.03,8.15-5.32,6.27-.37,10.05-2.79,11.35-7.25l30.84-105.8c1.3-4.46-.59-8.53-5.68-12.21-3.44-2.54-4.75-5.56-4.01-8.87,1.01-4.98,4.36-6.65,10.03-4.99l57.16,16.66c20.47,5.97,34.52,18.86,41.81,38.36,6.55,17.52,6.47,36.63-.02,57.39-6.29,20.82-17.1,36.79-32.45,47.94ZM1133.48,146.35c-2.48-12.6-8.59-20.32-18.52-23.21l-6.89-2.01c-3.24-.95-5.34.2-6.34,3.65l-28.42,97.49,10.34,3.01c9.53,2.78,19.03-.39,28.09-9.62,8.16-8.4,14.43-19.32,18.67-32.38,4.22-13.72,5.36-25.93,3.07-36.93Z"/>
        <path class="cls-40" d="M1345.27,214.91c-6.19-1.02-10.42.5-12.67,4.56l-39,70.35c-8.09,14.59-19.81,23.54-35.55,27.12-15.74,3.58-31.04,1.13-46.18-7.26-14.95-8.29-25.14-19.97-30.36-34.94-5.49-15.35-4.19-30.32,3.9-44.91l39-70.34c2.25-4.06,1.31-8.45-2.84-13.16-2.79-3.24-3.41-6.48-1.96-9.53,2.09-4.64,5.72-5.52,10.89-2.65l46.9,26c5.17,2.87,6.34,6.41,3.51,10.64-1.82,2.85-4.9,4.04-9.12,3.39-6.19-1.02-10.42.5-12.67,4.56l-40.85,73.67c-2.97,5.35-3.68,10.99-1.95,17.02,1.73,6.03,5.14,10.33,10.49,13.3,10.89,6.04,24.2,2.07,30.24-8.82l40.85-73.67c2.25-4.06,1.31-8.45-2.84-13.16-2.79-3.24-3.41-6.48-1.96-9.53,2.09-4.64,5.72-5.52,10.89-2.65l46.9,26c5.17,2.87,6.34,6.41,3.52,10.64-1.82,2.85-4.9,4.04-9.12,3.39Z"/>
        <path class="cls-40" d="M1387.11,413.45c-18.61,3.65-35.87-1.63-52.08-15.8-14.46-12.64-21.53-30.87-21-54.24.44-22.32,7.26-41.03,20.18-55.82,13.89-15.9,31.5-25.46,52.53-28.67,22.5-3.61,41.39,1.4,56.97,15.02,7.47,6.53,12.62,14.11,15.45,22.75.56,1.61,1.07,2.62,1.55,3.04,1.11.97,3.38,1.27,6.95,1.03,3.57-.24,6.16.33,7.75,1.72,3.66,3.2,3.6,6.79-.15,11.08l-27.23,31.16c-3.61,4.13-7.17,4.67-10.82,1.48-4.13-3.61-4.55-7.62-1.28-12.33,10.2-15.2,10.13-27.31-.36-36.48-10.33-9.03-22.73-10.89-37.64-5.7-12.13,4.26-23.13,12.03-32.71,23-9.03,10.33-15.14,21.82-18.05,34.13-3.47,15.19-.44,26.81,9.1,35.15,5.25,4.58,10.81,7.2,16.83,7.7,1.37.36,6.16.33,14.52.07,5.06-.34,8.72.61,11.26,2.83,3.82,3.33,3.6,9.03.13,13.01-2.36,2.7-6.41,4.77-11.87,5.89Z"/>
        <path class="cls-40" d="M1562.42,456.92c-4.85,3.74-10.18,3.04-13.1-1.1-1.25-1.97-1.12-5.26.72-10.14,1.67-4.75,1.41-8.55-.65-11.22l-9.15-11.88c-2.7-3.51-5.67-3.9-8.84-1.45l-81.96,63.12c-3.68,2.83-4.55,7.24-2.62,13.21,1.28,4.08.56,7.3-1.99,9.53-3.76,3.43-7.44,2.8-11.05-1.89l-32.72-42.49c-3.61-4.68-3.27-8.4,1-11.16,2.81-1.89,6.1-1.77,9.72.51,5.28,3.4,9.76,3.68,13.44.84l81.96-63.12c3.18-2.45,3.69-5.24,1.24-8.42l-9.53-12.38c-2.19-2.84-5.67-3.9-10.69-3.5-15.1,1.5-14.23-9.83-7.7-14.85l17.73-13.65c3.51-2.7,6.9-2.11,9.86,1.73l72.91,94.68c2.96,3.85,2.67,7.27-.84,9.98l-17.73,13.65Z"/>
      </g>
    </g>
  </g>
</svg>